<?xml version="1.0" encoding="UTF-8" standalone="no"?>
<!-- Created with Inkscape (http://www.inkscape.org/) -->

<svg
   xmlns:dc="http://purl.org/dc/elements/1.1/"
   xmlns:cc="http://creativecommons.org/ns#"
   xmlns:rdf="http://www.w3.org/1999/02/22-rdf-syntax-ns#"
   xmlns:svg="http://www.w3.org/2000/svg"
   xmlns="http://www.w3.org/2000/svg"
   xmlns:sodipodi="http://sodipodi.sourceforge.net/DTD/sodipodi-0.dtd"
   xmlns:inkscape="http://www.inkscape.org/namespaces/inkscape"
   width="1200"
   height="414"
   id="svg2"
   version="1.1"
   inkscape:version="0.48.4 r9939"
   sodipodi:docname="occ-front_v.svg">
  <defs
     id="defs4" />
  <sodipodi:namedview
     id="base"
     pagecolor="#ffffff"
     bordercolor="#666666"
     borderopacity="1.0"
     inkscape:pageopacity="0.0"
     inkscape:pageshadow="2"
     inkscape:zoom="2.1803707"
     inkscape:cx="705.9496"
     inkscape:cy="204.73575"
     inkscape:document-units="px"
     inkscape:current-layer="text3772"
     showgrid="false"
     inkscape:window-width="1920"
     inkscape:window-height="1033"
     inkscape:window-x="-4"
     inkscape:window-y="-4"
     inkscape:window-maximized="1" />
  <metadata
     id="metadata7">
    <rdf:RDF>
      <cc:Work
         rdf:about="">
        <dc:format>image/svg+xml</dc:format>
        <dc:type
           rdf:resource="http://purl.org/dc/dcmitype/StillImage" />
        <dc:title />
      </cc:Work>
    </rdf:RDF>
  </metadata>
  <g
     inkscape:label="Ebene 1"
     inkscape:groupmode="layer"
     id="layer1"
     transform="translate(0,-638.36218)">
    <rect
       style="fill:#ffffd4;fill-opacity:1;stroke:none;stroke-width:0.70866119999999999;stroke-miterlimit:10;stroke-opacity:1;stroke-dasharray:none;stroke-dashoffset:0"
       id="rect2985"
       width="1214.2858"
       height="428.57144"
       x="-2.8571429"
       y="-11.714286"
       transform="translate(0,638.36218)" />
    <g
       transform="matrix(1.1433757,0,0,1.1433757,143.51931,680.52302)"
       id="g1361">
      <path
         inkscape:connector-curvature="0"
         style="fill:#4d4d4d"
         d="m 127.4447,69.460071 10.38591,2.787797 c 0,0 11.10851,-4.847243 27.74132,5.548264 0.97558,5.013671 0,6.914831 0,6.914831 0,0 -6.71442,-3.335911 -8.09008,0.983929 0.28624,0.09266 3.04004,0.983928 6.12222,0.983928 1.14892,0 4.01563,-0.101419 5.38427,-1.393899 2.50342,-2.363772 3.36176,-6.614186 3.36176,-6.614186 0,0 2.40083,10.13993 -8.50005,10.13993 -4.88092,0 -6.21609,-0.590803 -6.58685,-0.983928 0.19137,6.397074 5.52093,1.749206 5.52093,1.749206 l 0,6.914831 c 0,0 -8.61635,-1.150523 -10.13993,-2.405159 0.45868,1.524906 1.36657,5.766915 1.36657,5.766915 l 14.32162,-0.573959 c 0,0 15.94759,-13.872342 20.79916,2.760469 l -11.09653,0.68328 -25.6368,16.64479 11.77981,9.01935 c 0,0 18.01997,-5.98991 17.32807,7.87143 l -23.31364,0.40997 -36.29603,-8.2814 0,-4.15437 c 0,0 -9.69973,-0.71061 -11.77981,-0.71061 -2.07715,0 -33.972864,-15.2509 -33.972864,-15.2509 l -2.760466,0.71062 2.760466,19.40526 10.413244,-0.71062 c 2.852544,1.33155 3.745181,4.38747 4.154365,6.94216 l -24.953521,0 c 0,0 -0.680389,-7.63071 -2.760466,-11.09652 -2.078127,-3.46582 -8.336061,-11.09653 -8.336061,-11.09653 0,0 -6.910528,9.71604 -22.849007,14.56761 11.458009,0.44629 8.992013,7.62544 8.992013,7.62544 l -19.405257,0.68329 c 0,0 -1.375672,-15.25089 -0.683283,-15.25089 0.692379,0 2.200676,-4.68608 9.702628,-2.07719 -0.08204,-4.72899 2.112438,-20.912125 8.30873,-21.482436 C 35.138268,92.983939 30.546689,90.544881 31.81231,80.556598 35.276176,67.389605 51.217567,70.170686 51.217567,70.170686 l 39.493798,11.069196 c 0,0 15.247025,4.158204 17.328075,0 2.07715,-4.157715 -3.47108,-11.779811 -3.47108,-11.779811 0,0 15.26191,4.180708 12.49042,13.884325 -2.77343,9.701657 -22.193051,5.520932 -22.193051,5.520932 L 54.661317,77.085517 c 0,0 -18.002228,-2.769571 -16.61746,7.625446 1.384759,10.395996 5.548264,6.942162 5.548264,6.942162 0,0 3.454271,-3.481156 10.385912,-2.787797 6.931641,0.694339 63.066837,11.802342 67.918397,6.258879 -1.02002,-8.724123 9.70263,-20.115872 9.70263,-20.115872 l -4.15436,-5.548264 z m 23.06765,5.220287 c -1.61718,-0.03525 -1.47589,0.382639 -1.47589,0.382639 l 4.31835,3.334425 c 0,0 3.52663,-2.900272 -0.57395,-3.498413 -1.00001,-0.145875 -1.72944,-0.206905 -2.26851,-0.218651 z"
         id="path1363" />
      <flowRoot
         xml:space="preserve"
         id="flowRoot3764"
         style="fill:black;stroke:none;stroke-opacity:1;stroke-width:1px;stroke-linejoin:miter;stroke-linecap:butt;fill-opacity:1;font-family:Droid Sans Mono;font-style:normal;font-weight:normal;font-size:40px;line-height:125%;letter-spacing:0px;word-spacing:0px;-inkscape-font-specification:Droid Sans Mono;font-stretch:normal;font-variant:normal"><flowRegion
           id="flowRegion3766"><rect
             id="rect3768"
             width="517.74768"
             height="117.34002"
             x="388.31079"
             y="109.1579" /></flowRegion><flowPara
           id="flowPara3770" /></flowRoot>      <g
         style="font-size:34.98412704px;font-style:normal;font-variant:normal;font-weight:normal;font-stretch:normal;line-height:125%;letter-spacing:0px;word-spacing:0px;fill:#666666;fill-opacity:1;stroke:none;font-family:Colaborate-Regular;-inkscape-font-specification:Colaborate-Regular"
         id="text3772">
        <path
           d="m 227.95744,91.603724 c 2.31646,-0.0339 4.36538,-0.634672 6.14676,-1.802308 1.78134,-1.167631 3.17982,-2.698706 4.19545,-4.593227 1.01558,-1.894509 1.53299,-3.949042 1.55224,-6.163605 -0.0141,-2.138308 -0.50686,-4.162609 -1.47839,-6.072907 -0.97157,-1.910261 -2.33766,-3.470705 -4.09827,-4.681335 -1.76065,-1.210584 -3.83159,-1.835538 -6.21284,-1.874865 -3.51223,0.110806 -6.36194,1.376047 -8.54914,3.795728 -2.18721,2.419723 -3.31397,5.329196 -3.3803,8.728428 0.0151,2.171805 0.51353,4.214677 1.49523,6.128621 0.9817,1.913957 2.356,3.472241 4.12289,4.674856 1.76689,1.202619 3.83567,1.822823 6.20637,1.860614 z M 221.97523,79.0096 c 0.001,-1.949597 0.5058,-3.665253 1.51304,-5.146973 1.00723,-1.481686 2.50861,-2.26153 4.50415,-2.339534 1.93429,0.06853 3.41818,0.823594 4.45167,2.265194 1.03346,1.441635 1.5553,3.158749 1.56552,5.151346 -2e-5,1.937231 -0.49853,3.660176 -1.49555,5.168838 -0.99705,1.508677 -2.4926,2.304555 -4.48666,2.387636 -1.96638,-0.07361 -3.46485,-0.844705 -4.4954,-2.313296 -1.03057,-1.468578 -1.54949,-3.192979 -1.55677,-5.173211 z"
           style="font-size:34.98412704px;font-weight:800;text-align:start;line-height:125%;writing-mode:lr-tb;text-anchor:start;font-family:Raleway;-inkscape-font-specification:Raleway Ultra-Bold"
           id="path4157" />
        <path
           d="m 254.38356,91.743658 c 2.33588,-0.05831 4.23228,-0.973711 5.68922,-2.746219 1.45691,-1.772502 2.2076,-4.052269 2.25208,-6.839308 -0.0489,-2.721426 -0.86077,-4.96621 -2.43574,-6.734358 -1.57501,-1.768116 -3.6201,-2.683521 -6.13526,-2.746218 -1.38114,0.0095 -2.58079,0.305396 -3.59895,0.88771 -1.01818,0.58235 -1.85924,1.394262 -2.5232,2.435739 l 0,-2.973613 -4.89771,0 0,25.817954 5.59739,0 0,-10.425136 c 0.58451,1.041495 1.39205,1.853407 2.42262,2.435738 1.03055,0.582332 2.2404,0.878236 3.62955,0.887711 z m -1.9241,-4.722796 c -0.87606,-0.02113 -1.68651,-0.337443 -2.43136,-0.948933 -0.74487,-0.611479 -1.31044,-1.391323 -1.69671,-2.339532 l 0,-3.778238 c 0.40084,-0.778374 0.94601,-1.390588 1.63548,-1.836643 0.68947,-0.446028 1.42704,-0.673422 2.21272,-0.682181 1.31625,0.02698 2.37451,0.471564 3.17477,1.333753 0.80024,0.862213 1.21129,1.980232 1.23318,3.354059 -0.0212,1.351981 -0.40743,2.496238 -1.15884,3.432773 -0.75143,0.936548 -1.74118,1.424861 -2.96924,1.464942 z"
           style="font-size:34.98412704px;font-weight:800;text-align:start;line-height:125%;writing-mode:lr-tb;text-anchor:start;font-family:Raleway;-inkscape-font-specification:Raleway Ultra-Bold"
           id="path4159" />
        <path
           d="m 273.89326,91.743658 c 2.12962,-0.02478 3.94877,-0.482483 5.45746,-1.373109 1.50865,-0.890625 2.62813,-2.065492 3.35843,-3.524605 l -4.75778,-1.32938 c -0.28863,0.673441 -0.79589,1.206942 -1.52179,1.600503 -0.72592,0.39357 -1.51305,0.594726 -2.3614,0.603469 -1.04733,-0.0044 -1.96128,-0.327968 -2.74184,-0.970797 -0.78058,-0.64282 -1.231,-1.578633 -1.35125,-2.80744 l 13.57367,0 c 0.0364,-0.23176 0.0685,-0.502883 0.0962,-0.813371 0.0277,-0.310472 0.0423,-0.634071 0.0437,-0.970797 -0.0168,-2.583678 -0.86659,-4.789106 -2.54943,-6.616288 -1.68288,-1.827151 -4.09821,-2.781913 -7.246,-2.864288 -3.15072,0.07509 -5.57771,1.03568 -7.28097,2.88178 -1.70327,1.846131 -2.56475,4.127356 -2.58442,6.843682 0.024,2.562561 0.89427,4.740292 2.61066,6.533201 1.71638,1.792914 4.13462,2.728727 7.25473,2.80744 z m -4.02312,-11.264743 c 0.12098,-1.152264 0.53495,-2.066212 1.24192,-2.741847 0.70695,-0.675608 1.6107,-1.021071 2.71124,-1.03639 1.08521,0.01313 1.98458,0.354224 2.69811,1.023272 0.71351,0.669076 1.13186,1.587397 1.25504,2.754965 z"
           style="font-size:34.98412704px;font-weight:800;text-align:start;line-height:125%;writing-mode:lr-tb;text-anchor:start;font-family:Raleway;-inkscape-font-specification:Raleway Ultra-Bold"
           id="path4161" />
        <path
           d="m 303.92757,79.639306 c 0.0678,-1.636931 -0.26021,-3.182042 -0.98392,-4.635337 -0.72374,-1.453263 -2.2499,-2.228734 -4.57848,-2.326414 -1.60489,0.0073 -3.02173,0.307583 -4.25052,0.90083 -1.22881,0.593282 -2.19086,1.435805 -2.88615,2.52757 l 0,-3.078564 -5.03765,0 0,18.366431 5.59738,0 0,-10.530087 c 0.36368,-0.96204 0.93071,-1.740426 1.70109,-2.335161 0.77036,-0.594709 1.55603,-0.900816 2.35702,-0.918321 0.74631,-0.0065 1.34394,0.268952 1.79291,0.82649 0.44895,0.557565 0.67926,1.436529 0.69093,2.636894 l 0,10.320185 5.59739,0 z"
           style="font-size:34.98412704px;font-weight:800;text-align:start;line-height:125%;writing-mode:lr-tb;text-anchor:start;font-family:Raleway;-inkscape-font-specification:Raleway Ultra-Bold"
           id="path4163" />
        <path
           d="m 306.63307,78.764714 c 0.0175,2.162952 0.52281,4.215758 1.51596,6.158423 0.99314,1.942678 2.36916,3.531626 4.12807,4.76685 1.75889,1.235226 3.79572,1.873138 6.11048,1.913737 2.03633,-0.01093 3.99833,-0.513823 5.88601,-1.508672 1.88764,-0.994846 3.23742,-2.416056 4.04936,-4.263635 l -4.7228,-2.76371 c -0.49125,1.229537 -1.21424,2.111416 -2.16899,2.645639 -0.95478,0.534236 -1.92266,0.795156 -2.90364,0.782761 -1.85925,-0.06632 -3.32711,-0.825756 -4.40357,-2.278313 -1.07649,-1.452542 -1.62602,-3.200267 -1.64861,-5.243177 -0.004,-1.886919 0.48539,-3.579252 1.46931,-5.077007 0.98391,-1.497719 2.48821,-2.289224 4.5129,-2.374517 0.94673,-0.02257 1.90441,0.215023 2.87303,0.712793 0.9686,0.497807 1.72512,1.391348 2.26957,2.680624 l 4.40794,-3.078564 c -0.80537,-1.634007 -2.0196,-2.940063 -3.64267,-3.918171 -1.62312,-0.978061 -3.54576,-1.479493 -5.76794,-1.504298 -2.52661,0.04106 -4.68004,0.662555 -6.46032,1.8645 -1.78028,1.201991 -3.14076,2.738248 -4.08143,4.608775 -0.94067,1.870563 -1.41489,3.829216 -1.42266,5.875962 z"
           style="font-size:34.98412704px;font-weight:800;text-align:start;line-height:125%;writing-mode:lr-tb;text-anchor:start;font-family:Raleway;-inkscape-font-specification:Raleway Ultra-Bold"
           id="path4165" />
        <path
           d="m 336.33834,91.393822 0,-18.366431 -5.59739,0 0,18.366431 z m 0,-20.465451 0,-5.072633 -5.59739,0 0,5.072633 z"
           style="font-size:34.98412704px;font-weight:800;text-align:start;line-height:125%;writing-mode:lr-tb;text-anchor:start;font-family:Raleway;-inkscape-font-specification:Raleway Ultra-Bold"
           id="path4167" />
        <path
           d="m 350.94687,85.971352 c -0.35786,0.165448 -0.75289,0.315586 -1.18507,0.450414 -0.4322,0.134838 -0.85347,0.206263 -1.26378,0.214276 -0.48177,0.0051 -0.87388,-0.12754 -1.17633,-0.39794 -0.30247,-0.270389 -0.45844,-0.709142 -0.46791,-1.31626 l 0,-7.661426 3.74326,0 0,-4.233025 -3.74326,0 0,-5.842274 -5.59739,0 0,5.842274 -2.3439,0 0,4.233025 2.3439,0 0,9.585528 c 0.0401,1.76522 0.54589,3.027547 1.51742,3.786982 0.97152,0.759437 2.16825,1.129681 3.5902,1.110732 1.02618,-0.01385 2.02613,-0.152324 2.99985,-0.41543 0.9737,-0.263107 1.85121,-0.567756 2.63252,-0.913949 z"
           style="font-size:34.98412704px;font-weight:800;text-align:start;line-height:125%;writing-mode:lr-tb;text-anchor:start;font-family:Raleway;-inkscape-font-specification:Raleway Ultra-Bold"
           id="path4169" />
        <path
           d="m 354.03927,98.950296 c 0.50872,0.190215 1.02182,0.325777 1.53929,0.406684 0.51746,0.08089 1.03055,0.120249 1.53928,0.118071 1.63038,-0.03572 3.04867,-0.506543 4.25489,-1.412467 1.2062,-0.905937 2.0735,-2.137653 2.60191,-3.69515 l 7.03172,-21.340043 -5.21257,0 -3.67329,13.573667 -4.30299,-13.573667 -5.73732,0 6.96175,18.366431 c -0.25728,1.159562 -0.58234,1.988965 -0.97517,2.488213 -0.39284,0.499243 -0.88407,0.742671 -1.47369,0.730285 -0.3185,7.25e-4 -0.69603,-0.03572 -1.13259,-0.109325 -0.43657,-0.07361 -0.91031,-0.188769 -1.42122,-0.345463 z"
           style="font-size:34.98412704px;font-weight:800;text-align:start;line-height:125%;writing-mode:lr-tb;text-anchor:start;font-family:Raleway;-inkscape-font-specification:Raleway Ultra-Bold"
           id="path4171" />
        <path
           d="m 372.22831,78.764714 c 0.0175,2.162952 0.52281,4.215758 1.51596,6.158423 0.99314,1.942678 2.36917,3.531626 4.12807,4.76685 1.7589,1.235226 3.79572,1.873138 6.11049,1.913737 2.03632,-0.01093 3.99832,-0.513823 5.886,-1.508672 1.88764,-0.994846 3.23743,-2.416056 4.04936,-4.263635 l -4.7228,-2.76371 c -0.49124,1.229537 -1.21424,2.111416 -2.16898,2.645639 -0.95478,0.534236 -1.92266,0.795156 -2.90365,0.782761 -1.85925,-0.06632 -3.3271,-0.825756 -4.40357,-2.278313 -1.07648,-1.452542 -1.62602,-3.200267 -1.6486,-5.243177 -0.004,-1.886919 0.48539,-3.579252 1.46931,-5.077007 0.98391,-1.497719 2.4882,-2.289224 4.51289,-2.374517 0.94674,-0.02257 1.90441,0.215023 2.87304,0.712793 0.96859,0.497807 1.72511,1.391348 2.26956,2.680624 l 4.40795,-3.078564 c -0.80538,-1.634007 -2.0196,-2.940063 -3.64268,-3.918171 -1.62311,-0.978061 -3.54575,-1.479493 -5.76793,-1.504298 -2.52661,0.04106 -4.68005,0.662555 -6.46032,1.8645 -1.78029,1.201991 -3.14076,2.738248 -4.08143,4.608775 -0.94067,1.870563 -1.4149,3.829216 -1.42267,5.875962 z"
           style="font-size:34.98412704px;font-weight:800;text-align:start;line-height:125%;writing-mode:lr-tb;text-anchor:start;font-family:Raleway;-inkscape-font-specification:Raleway Ultra-Bold"
           id="path4173" />
        <path
           d="m 401.58374,91.743658 c 1.27033,-0.0044 2.46415,-0.284242 3.58145,-0.839608 1.11728,-0.555365 2.09245,-1.359989 2.92551,-2.413873 l 0.10495,0.839608 c 0.13555,0.753607 0.47664,1.327922 1.02327,1.722946 0.54661,0.395024 1.325,0.602011 2.33517,0.62096 0.35273,0.0015 0.75796,-0.01895 1.21568,-0.06122 0.45768,-0.04227 0.95037,-0.115155 1.47806,-0.218648 l 0,-4.722797 c -0.53425,-0.02623 -0.90887,-0.157422 -1.12385,-0.393567 -0.21502,-0.236135 -0.31852,-0.6297 -0.31048,-1.180698 l 0,-4.722796 c -0.0175,-2.509337 -0.77841,-4.417403 -2.28269,-5.724205 -1.50431,-1.306769 -3.64706,-1.964169 -6.42825,-1.972204 -1.46568,7.48e-4 -2.85482,0.200446 -4.16743,0.599095 -1.31262,0.398686 -2.57057,0.99195 -3.77386,1.779795 l 1.64423,3.498367 c 0.98683,-0.666134 1.94305,-1.170482 2.86866,-1.513045 0.9256,-0.342534 1.88182,-0.514536 2.86866,-0.516008 1.23973,0.0037 2.16242,0.27624 2.76809,0.817743 0.60564,0.541532 0.90737,1.330121 0.9052,2.365772 l 0,0.839608 c -0.55028,-0.246333 -1.18144,-0.435828 -1.89349,-0.568486 -0.71208,-0.132635 -1.45694,-0.199686 -2.23458,-0.201155 -2.34829,0.02989 -4.23741,0.599835 -5.66736,1.709828 -1.42996,1.110011 -2.16462,2.580782 -2.20397,4.412315 0.0379,1.697441 0.64428,3.086583 1.81915,4.167431 1.17486,1.08085 2.69082,1.63913 4.54788,1.674843 z m 1.64423,-4.023122 c -0.80245,-0.01311 -1.45402,-0.231763 -1.95471,-0.655944 -0.50071,-0.424173 -0.75872,-0.975165 -0.77402,-1.652979 0.0204,-0.747769 0.35566,-1.351237 1.00578,-1.810406 0.65011,-0.459153 1.49263,-0.695292 2.52757,-0.708419 0.49997,0.0029 1.03055,0.05832 1.59176,0.166173 0.56119,0.107875 1.09177,0.250724 1.59176,0.42855 l 0,1.749184 c -0.003,0.230315 -0.0758,0.460624 -0.21865,0.690927 -0.14286,0.230315 -0.33819,0.443132 -0.58598,0.638452 -0.37973,0.354215 -0.85346,0.634084 -1.42121,0.839609 -0.56776,0.205532 -1.1552,0.310483 -1.7623,0.314853 z"
           style="font-size:34.98412704px;font-weight:800;text-align:start;line-height:125%;writing-mode:lr-tb;text-anchor:start;font-family:Raleway;-inkscape-font-specification:Raleway Ultra-Bold"
           id="path4175" />
        <path
           d="m 446.0078,79.639306 c 0.0634,-1.636931 -0.2646,-3.182042 -0.98392,-4.635337 -0.71938,-1.453263 -2.21056,-2.228734 -4.47353,-2.326414 -1.46205,0.0066 -2.76228,0.317059 -3.90068,0.931441 -1.13845,0.614418 -2.05386,1.493381 -2.74622,2.636894 -0.23762,-0.99046 -0.7682,-1.825695 -1.59176,-2.505707 -0.82359,-0.679977 -1.98388,-1.034186 -3.48088,-1.062628 -1.54585,0.0051 -2.89709,0.301023 -4.05373,0.88771 -1.15665,0.586723 -2.07935,1.433618 -2.76808,2.54069 l 0,-3.078564 -5.03765,0 0,18.366431 5.59739,0 0,-10.530087 c 0.35493,-0.977345 0.87822,-1.760104 1.56989,-2.34828 0.69165,-0.588149 1.4161,-0.889883 2.17336,-0.905202 0.72663,-0.0065 1.3024,0.268952 1.72732,0.82649 0.42489,0.557565 0.64208,1.436529 0.65157,2.636894 l 0,10.320185 5.59739,0 0,-10.530087 c 0.33961,-0.96204 0.85853,-1.740426 1.55677,-2.335161 0.6982,-0.594709 1.42702,-0.900816 2.18648,-0.918321 0.72662,-0.0065 1.30239,0.268952 1.72732,0.82649 0.42488,0.557565 0.64207,1.436529 0.65157,2.636894 l 0,10.320185 5.59739,0 z"
           style="font-size:34.98412704px;font-weight:800;text-align:start;line-height:125%;writing-mode:lr-tb;text-anchor:start;font-family:Raleway;-inkscape-font-specification:Raleway Ultra-Bold"
           id="path4177" />
        <path
           d="m 461.28188,91.743658 c 2.33587,-0.05831 4.23227,-0.973711 5.68922,-2.746219 1.4569,-1.772502 2.20759,-4.052269 2.25207,-6.839308 -0.0488,-2.721426 -0.86076,-4.96621 -2.43574,-6.734358 -1.57501,-1.768116 -3.62009,-2.683521 -6.13526,-2.746218 -1.38114,0.0095 -2.58078,0.305396 -3.59894,0.88771 -1.01818,0.58235 -1.85925,1.394262 -2.5232,2.435739 l 0,-2.973613 -4.89772,0 0,25.817954 5.59739,0 0,-10.425136 c 0.58451,1.041495 1.39205,1.853407 2.42262,2.435738 1.03055,0.582332 2.2404,0.878236 3.62956,0.887711 z m -1.9241,-4.722796 c -0.87606,-0.02113 -1.68652,-0.337443 -2.43137,-0.948933 -0.74487,-0.611479 -1.31044,-1.391323 -1.69671,-2.339532 l 0,-3.778238 c 0.40085,-0.778374 0.94601,-1.390588 1.63549,-1.836643 0.68946,-0.446028 1.42703,-0.673422 2.21272,-0.682181 1.31624,0.02698 2.3745,0.471564 3.17476,1.333753 0.80024,0.862213 1.2113,1.980232 1.23318,3.354059 -0.0212,1.351981 -0.40743,2.496238 -1.15884,3.432773 -0.75143,0.936548 -1.74118,1.424861 -2.96923,1.464942 z"
           style="font-size:34.98412704px;font-weight:800;text-align:start;line-height:125%;writing-mode:lr-tb;text-anchor:start;font-family:Raleway;-inkscape-font-specification:Raleway Ultra-Bold"
           id="path4179" />
        <path
           d="m 483.79046,95.9417 0,-31.660228 -1.57426,0 0,31.660228 z"
           style="font-size:34.98412704px;font-weight:300;text-align:start;line-height:125%;writing-mode:lr-tb;text-anchor:start;font-family:Raleway;-inkscape-font-specification:Raleway Light"
           id="path4181" />
        <path
           d="m 514.63097,69.284138 c -1.00871,-0.962757 -2.1486,-1.68721 -3.41965,-2.173361 -1.27109,-0.486103 -2.70834,-0.729531 -4.31174,-0.730284 -2.64638,0.01023 -4.76143,0.610781 -6.34517,1.801659 -1.58374,1.190924 -2.39565,2.910953 -2.43574,5.160093 0.009,1.970763 0.70842,3.399261 2.09903,4.285499 1.39059,0.886266 3.41964,1.580109 6.08716,2.08153 2.60408,0.514563 4.55004,1.164676 5.8379,1.95034 1.28781,0.785684 1.93064,1.978043 1.92847,3.577081 -0.0197,1.59249 -0.63628,2.789222 -1.84976,3.590199 -1.21351,0.800981 -2.90585,1.201836 -5.07701,1.202564 -1.89714,-0.01312 -3.60405,-0.336716 -5.12073,-0.970797 -1.5167,-0.634076 -2.79506,-1.499921 -3.83509,-2.597538 l -0.94456,1.434331 c 1.34541,1.241193 2.83513,2.169717 4.46917,2.785575 1.63402,0.615858 3.4211,0.923423 5.36125,0.922695 2.68134,-7.3e-4 4.82263,-0.550265 6.42387,-1.648607 1.60122,-1.098339 2.42187,-2.741112 2.46198,-4.928324 -0.0277,-2.142013 -0.81193,-3.691497 -2.35265,-4.648457 -1.54076,-0.956937 -3.67184,-1.693051 -6.39327,-2.208344 -2.52248,-0.471537 -4.36932,-1.050225 -5.54054,-1.736065 -1.17123,-0.685811 -1.74992,-1.797999 -1.73606,-3.336568 -0.0139,-1.574975 0.53859,-2.815437 1.65735,-3.72139 1.11874,-0.905908 2.88687,-1.367984 5.3044,-1.386227 1.4846,7.52e-4 2.79212,0.226688 3.92254,0.677809 1.1304,0.451166 2.09682,1.123143 2.89927,2.015934 z"
           style="font-size:34.98412704px;font-weight:300;text-align:start;line-height:125%;writing-mode:lr-tb;text-anchor:start;font-family:Raleway;-inkscape-font-specification:Raleway Light"
           id="path4183" />
        <path
           d="m 527.65665,89.119883 c -0.12027,0.09621 -0.43949,0.253633 -0.95768,0.472279 -0.5182,0.218649 -1.14353,0.341092 -1.876,0.367329 -0.61659,7.3e-4 -1.15009,-0.1669 -1.6005,-0.502891 -0.45042,-0.335986 -0.68656,-0.844707 -0.70842,-1.526162 l 0,-13.293797 4.26801,0 0,-1.434331 -4.26801,0 0,-6.227095 -1.74918,0 0,6.227095 -2.55381,0 0,1.434331 2.55381,0 0,13.713601 c 0.0299,1.053886 0.38992,1.858509 1.08012,2.413874 0.69019,0.555365 1.53126,0.835234 2.5232,0.839608 0.9788,-0.03207 1.81112,-0.18658 2.49696,-0.463534 0.68581,-0.276954 1.12456,-0.483941 1.31626,-0.62096 z"
           style="font-size:34.98412704px;font-weight:300;text-align:start;line-height:125%;writing-mode:lr-tb;text-anchor:start;font-family:Raleway;-inkscape-font-specification:Raleway Light"
           id="path4185" />
        <path
           d="m 536.76511,91.743658 c 1.6158,-0.01239 3.10698,-0.424906 4.47354,-1.237547 1.36653,-0.81264 2.46415,-1.951066 3.29284,-3.415282 l 0,2.763711 c 0.009,0.463534 0.16615,0.839608 0.47228,1.128223 0.30609,0.288616 0.7084,0.437296 1.20693,0.446042 0.0853,7.29e-4 0.17709,-7.29e-4 0.2755,-0.0044 0.0984,-0.0036 0.21644,-0.01385 0.35421,-0.03061 l 0,-1.574266 c -0.26021,-0.0015 -0.44825,-0.07725 -0.56411,-0.227394 -0.1159,-0.150137 -0.17275,-0.365869 -0.17055,-0.647198 l 0,-15.742654 -1.74918,0 0,11.474646 c -0.57798,1.66756 -1.51233,2.994023 -2.80307,3.979393 -1.29076,0.985375 -2.72364,1.489723 -4.29862,1.513044 -1.53783,0.0022 -2.68646,-0.553177 -3.44589,-1.666098 -0.75944,-1.112914 -1.13843,-2.796502 -1.13697,-5.050768 l 0,-10.250217 -1.74918,0 0,10.495103 c 0.003,2.66168 0.4956,4.667409 1.47806,6.017192 0.98245,1.349787 2.43719,2.026137 4.36421,2.029053 z"
           style="font-size:34.98412704px;font-weight:300;text-align:start;line-height:125%;writing-mode:lr-tb;text-anchor:start;font-family:Raleway;-inkscape-font-specification:Raleway Light"
           id="path4187" />
        <path
           d="m 559.36103,89.119883 c -0.12027,0.09621 -0.4395,0.253633 -0.95768,0.472279 -0.51821,0.218649 -1.14354,0.341092 -1.876,0.367329 -0.61659,7.3e-4 -1.1501,-0.1669 -1.6005,-0.502891 -0.45042,-0.335986 -0.68656,-0.844707 -0.70842,-1.526162 l 0,-13.293797 4.26801,0 0,-1.434331 -4.26801,0 0,-6.227095 -1.74919,0 0,6.227095 -2.55381,0 0,1.434331 2.55381,0 0,13.713601 c 0.0299,1.053886 0.38992,1.858509 1.08012,2.413874 0.6902,0.555365 1.53126,0.835234 2.5232,0.839608 0.97881,-0.03207 1.81113,-0.18658 2.49696,-0.463534 0.68582,-0.276954 1.12457,-0.483941 1.31626,-0.62096 z"
           style="font-size:34.98412704px;font-weight:300;text-align:start;line-height:125%;writing-mode:lr-tb;text-anchor:start;font-family:Raleway;-inkscape-font-specification:Raleway Light"
           id="path4189" />
        <path
           d="m 570.49854,89.119883 c -0.12027,0.09621 -0.43949,0.253633 -0.95768,0.472279 -0.5182,0.218649 -1.14354,0.341092 -1.876,0.367329 -0.61659,7.3e-4 -1.15009,-0.1669 -1.6005,-0.502891 -0.45042,-0.335986 -0.68656,-0.844707 -0.70842,-1.526162 l 0,-13.293797 4.26801,0 0,-1.434331 -4.26801,0 0,-6.227095 -1.74918,0 0,6.227095 -2.55381,0 0,1.434331 2.55381,0 0,13.713601 c 0.0299,1.053886 0.38991,1.858509 1.08012,2.413874 0.69019,0.555365 1.53126,0.835234 2.52319,0.839608 0.97881,-0.03207 1.81113,-0.18658 2.49696,-0.463534 0.68582,-0.276954 1.12457,-0.483941 1.31627,-0.62096 z"
           style="font-size:34.98412704px;font-weight:300;text-align:start;line-height:125%;writing-mode:lr-tb;text-anchor:start;font-family:Raleway;-inkscape-font-specification:Raleway Light"
           id="path4191" />
        <path
           d="m 581.39117,91.673691 c 1.3556,-0.01676 2.64125,-0.376803 3.85695,-1.080121 1.21566,-0.703316 2.20395,-1.649332 2.96486,-2.838051 l 0,3.988139 c -0.0525,1.995525 -0.72592,3.496907 -2.0203,4.504149 -1.29441,1.007232 -2.89492,1.51158 -4.80151,1.513044 -1.42195,0.0044 -2.74113,-0.284248 -3.95753,-0.865846 -1.21642,-0.581609 -2.1945,-1.482438 -2.93426,-2.702489 l -1.18944,0.804624 c 0.74558,1.292205 1.75574,2.311103 3.03046,3.056698 1.27471,0.745582 2.9583,1.12603 5.05077,1.141344 2.36211,-0.0022 4.36347,-0.627528 6.00407,-1.876 1.64057,-1.248485 2.49621,-3.106991 2.56693,-5.575524 l 0,-18.541348 -1.57427,0 0,3.953155 c -0.83452,-1.218583 -1.84176,-2.227278 -3.02171,-3.026088 -1.17999,-0.798776 -2.5633,-1.212749 -4.14994,-1.24192 -2.52467,0.08311 -4.5508,1.036409 -6.07842,2.859916 -1.52762,1.823538 -2.31184,4.018761 -2.35265,6.585676 0.0437,2.470729 0.84835,4.622223 2.41388,6.454488 1.56551,1.832271 3.62954,2.794321 6.19211,2.886154 z m 0.4198,-1.504298 c -2.07862,-0.06486 -3.79865,-0.844708 -5.16009,-2.339533 -1.36145,-1.494818 -2.06696,-3.315425 -2.11651,-5.461827 0.0168,-1.997703 0.63043,-3.792072 1.84101,-5.383113 1.21058,-1.591013 2.91749,-2.432078 5.12074,-2.523198 1.4365,0.02626 2.77025,0.481043 4.00126,1.364364 1.23097,0.883352 2.13617,2.037812 2.7156,3.463384 l 0,5.982208 c -0.21429,1.229536 -0.9402,2.338809 -2.17773,3.327822 -1.23756,0.98902 -2.64565,1.512317 -4.22428,1.569893 z"
           style="font-size:34.98412704px;font-weight:300;text-align:start;line-height:125%;writing-mode:lr-tb;text-anchor:start;font-family:Raleway;-inkscape-font-specification:Raleway Light"
           id="path4193" />
        <path
           d="m 599.8743,91.743658 c 1.52032,-0.0058 2.92259,-0.300277 4.20679,-0.883338 1.28418,-0.58306 2.35409,-1.419752 3.20975,-2.510078 l 0,1.504298 c 0.0175,0.47884 0.1924,0.859287 0.52476,1.141342 0.33232,0.282055 0.71714,0.426363 1.15446,0.432923 0.1749,0.0058 0.3848,-0.0058 0.6297,-0.03498 l 0,-1.574266 c -0.48978,0.0058 -0.73467,-0.285698 -0.73465,-0.874592 l 0,-8.885854 c -0.0226,-2.242586 -0.65961,-3.993225 -1.91099,-5.251924 -1.25141,-1.258666 -2.98164,-1.898575 -5.1907,-1.919729 -2.0932,0.0058 -4.30883,0.798812 -6.6469,2.37889 l 0.69967,1.189445 c 1.00214,-0.702573 1.99771,-1.238989 2.98674,-1.609249 0.98901,-0.370228 1.94085,-0.556807 2.85554,-0.559739 1.68139,0.02042 3.0064,0.530603 3.97502,1.530536 0.96859,0.999965 1.46274,2.367242 1.48243,4.101836 l 0,1.784167 c -0.80245,-0.300996 -1.69891,-0.538593 -2.68937,-0.712793 -0.99048,-0.174179 -1.98315,-0.263095 -2.97798,-0.26675 -2.2601,0.02771 -4.08071,0.532054 -5.46183,1.513044 -1.38113,0.981009 -2.091,2.272489 -2.12963,3.874443 0.0386,1.627473 0.61731,2.964139 1.73606,4.010003 1.11875,1.045866 2.54579,1.586655 4.28113,1.622368 z m 0.34984,-1.399347 c -1.34178,-0.02769 -2.44522,-0.444582 -3.31033,-1.250666 -0.86512,-0.806079 -1.31262,-1.835182 -1.3425,-3.087309 0.0262,-1.225152 0.58597,-2.203236 1.67922,-2.934257 1.09323,-0.731004 2.56254,-1.10562 4.40794,-1.12385 0.94673,0.0015 1.87817,0.08601 2.79432,0.253632 0.91612,0.167639 1.80383,0.409609 2.66313,0.725911 l 0,3.218498 c -7.4e-4,0.213552 -0.0518,0.442403 -0.15305,0.686556 -0.10132,0.244161 -0.24855,0.481758 -0.44167,0.712791 -0.5838,0.866578 -1.43653,1.547301 -2.55818,2.042172 -1.12168,0.494874 -2.36797,0.747048 -3.73888,0.756522 z"
           style="font-size:34.98412704px;font-weight:300;text-align:start;line-height:125%;writing-mode:lr-tb;text-anchor:start;font-family:Raleway;-inkscape-font-specification:Raleway Light"
           id="path4195" />
        <path
           d="m 622.82603,73.132343 c -0.14067,0.0015 -0.30539,0.0073 -0.49414,0.01749 -0.18878,0.01022 -0.39722,0.01605 -0.62533,0.01749 -1.19019,0.13558 -2.29946,0.599114 -3.32783,1.390602 -1.02838,0.791522 -1.86653,1.832285 -2.51445,3.122292 l 0,-4.47791 -1.64423,0 0,18.191512 1.74918,0 0,-11.369695 c 0.50872,-1.604864 1.3629,-2.864275 2.56256,-3.778237 1.19964,-0.913932 2.63105,-1.403703 4.29424,-1.469315 z"
           style="font-size:34.98412704px;font-weight:300;text-align:start;line-height:125%;writing-mode:lr-tb;text-anchor:start;font-family:Raleway;-inkscape-font-specification:Raleway Light"
           id="path4197" />
        <path
           d="m 633.83893,89.119883 c -0.12026,0.09621 -0.43949,0.253633 -0.95768,0.472279 -0.5182,0.218649 -1.14353,0.341092 -1.87599,0.367329 -0.6166,7.3e-4 -1.1501,-0.1669 -1.60051,-0.502891 -0.45042,-0.335986 -0.68656,-0.844707 -0.70842,-1.526162 l 0,-13.293797 4.26801,0 0,-1.434331 -4.26801,0 0,-6.227095 -1.74918,0 0,6.227095 -2.55381,0 0,1.434331 2.55381,0 0,13.713601 c 0.0299,1.053886 0.38992,1.858509 1.08012,2.413874 0.69019,0.555365 1.53126,0.835234 2.5232,0.839608 0.9788,-0.03207 1.81112,-0.18658 2.49696,-0.463534 0.68581,-0.276954 1.12457,-0.483941 1.31626,-0.62096 z"
           style="font-size:34.98412704px;font-weight:300;text-align:start;line-height:125%;writing-mode:lr-tb;text-anchor:start;font-family:Raleway;-inkscape-font-specification:Raleway Light"
           id="path4199" />
        <path
           d="m 660.14967,91.393822 0,-1.609249 -12.48917,0 c 0.0539,-1.338123 0.47956,-2.588789 1.27691,-3.752 0.79733,-1.163201 2.27247,-2.186472 4.42543,-3.069817 1.35342,-0.457694 2.7309,-1.169028 4.13245,-2.134005 1.40152,-0.964955 2.15804,-2.375962 2.26956,-4.233025 -0.0153,-1.531248 -0.58818,-2.824185 -1.71857,-3.878815 -1.13042,-1.054592 -2.72655,-1.604127 -4.78839,-1.648605 -1.85341,0.05978 -3.38541,0.456265 -4.59598,1.189445 -1.21059,0.733218 -2.10413,1.444552 -2.68063,2.134004 l 1.18945,1.224429 c 0.34182,-0.489756 0.98756,-1.084478 1.93722,-1.784168 0.94966,-0.699655 2.25134,-1.084475 3.90505,-1.154461 1.62746,0.04375 2.85043,0.463552 3.66892,1.259412 0.81846,0.795895 1.22806,1.70547 1.2288,2.728727 -0.0365,1.028144 -0.41831,1.887187 -1.14539,2.57713 -0.72712,0.689967 -1.58054,1.269141 -2.56029,1.737523 -0.97977,0.468402 -1.86688,0.884319 -2.66135,1.247751 -2.556,1.343964 -4.19586,2.854091 -4.91958,4.530386 -0.72373,1.676304 -1.04295,3.221415 -0.95768,4.635338 z"
           style="font-size:34.98412704px;font-weight:300;text-align:start;line-height:125%;writing-mode:lr-tb;text-anchor:start;font-family:Raleway;-inkscape-font-specification:Raleway Light"
           id="path4201" />
        <path
           d="m 681.5752,81.143604 c -0.0503,-3.136856 -0.87679,-5.679 -2.47947,-7.626441 -1.6027,-1.947405 -3.67985,-2.950269 -6.23146,-3.008596 -2.56694,0.05833 -4.64847,1.061191 -6.24459,3.008596 -1.59613,1.947441 -2.41825,4.489585 -2.46635,7.626441 0.0481,3.13542 0.87022,5.671734 2.46635,7.60895 1.59612,1.937221 3.67765,2.934255 6.24459,2.991104 2.55161,-0.05685 4.62876,-1.053882 6.23146,-2.991104 1.60268,-1.937217 2.42916,-4.473531 2.47947,-7.60895 z m -1.78417,0 c -0.0328,2.699582 -0.67564,4.856907 -1.92847,6.471981 -1.25287,1.615081 -2.91896,2.443027 -4.99829,2.483841 -2.09612,-0.04081 -3.77242,-0.868759 -5.02891,-2.483841 -1.2565,-1.615075 -1.90078,-3.7724 -1.93284,-6.471981 0.0321,-2.701018 0.67634,-4.864174 1.93284,-6.489472 1.25649,-1.625265 2.93279,-2.459042 5.02891,-2.501332 2.07933,0.04229 3.74542,0.876067 4.99829,2.501332 1.25283,1.625298 1.89566,3.788454 1.92847,6.489472 z"
           style="font-size:34.98412704px;font-weight:300;text-align:start;line-height:125%;writing-mode:lr-tb;text-anchor:start;font-family:Raleway;-inkscape-font-specification:Raleway Light"
           id="path4203" />
        <path
           d="m 692.74347,89.784573 0,-18.366431 -1.78417,0 c -0.0721,0.14017 -0.41765,0.474026 -1.03655,1.001569 -0.61892,0.527581 -1.35832,1.037651 -2.21822,1.530212 -0.85992,0.492596 -1.68743,0.756485 -2.48255,0.791669 l 0,1.749183 c 1.00213,-0.05173 2.09392,-0.39428 3.27535,-1.027645 1.18142,-0.633334 2.00208,-1.247005 2.46197,-1.841016 l 0,16.162459 -4.96768,0 0,1.609249 11.19478,0 0,-1.609249 z"
           style="font-size:34.98412704px;font-weight:300;text-align:start;line-height:125%;writing-mode:lr-tb;text-anchor:start;font-family:Raleway;-inkscape-font-specification:Raleway Light"
           id="path4205" />
        <path
           d="m 712.54989,95.836749 0,-6.506964 3.07857,0 0,-1.609249 -3.07857,0 0,-16.302394 -1.22443,0 -12.6291,16.372361 0,1.539282 12.10435,0 0,6.506964 z m -1.60925,-21.584929 0,13.468716 -10.2852,0 z"
           style="font-size:34.98412704px;font-weight:300;text-align:start;line-height:125%;writing-mode:lr-tb;text-anchor:start;font-family:Raleway;-inkscape-font-specification:Raleway Light"
           id="path4207" />
        <path
           d="m 237.473,128.72197 c -0.0153,-1.58884 -0.43076,-2.93279 -1.2463,-4.03187 -0.81557,-1.09906 -1.93942,-1.86579 -3.37155,-2.30018 1.14351,-0.53349 2.02248,-1.32062 2.6369,-2.3614 0.61438,-1.04074 0.92486,-2.17771 0.93144,-3.4109 -0.0175,-1.626 -0.52478,-3.07053 -1.52179,-4.33361 -0.99706,-1.26303 -2.37891,-1.92918 -4.14557,-1.99844 l -12.80402,0 0,24.83841 11.85946,0 c 2.15585,-0.0175 3.95751,-0.58598 5.40498,-1.70545 1.44743,-1.11948 2.19958,-2.685 2.25645,-4.69656 z m -4.02313,-0.73466 c -0.0226,1.04369 -0.37099,1.92119 -1.04513,2.63252 -0.67418,0.71134 -1.53857,1.08158 -2.59317,1.11073 l -7.94129,0 0,-7.59145 8.18618,0 c 0.99847,0.0335 1.80893,0.42127 2.43136,1.1632 0.6224,0.74196 0.94309,1.63696 0.96205,2.685 z m -4.16305,-14.30832 c 0.94527,0.0197 1.71345,0.36516 2.30455,1.03639 0.59106,0.67127 0.89571,1.55023 0.91395,2.63689 -0.0226,1.06994 -0.3535,1.9387 -0.99267,2.60629 -0.63919,0.66762 -1.4511,1.01162 -2.43573,1.03202 l -7.20664,0 0,-7.31159 z"
           style="font-weight:600;text-align:start;line-height:125%;writing-mode:lr-tb;text-anchor:start;font-family:Raleway;-inkscape-font-specification:Raleway Semi-Bold;fill:#803300;fill-opacity:1"
           id="path4209" />
        <path
           d="m 245.96668,135.47382 c 1.3782,-0.005 2.6624,-0.29226 3.85258,-0.86148 1.19016,-0.56921 2.20323,-1.38987 3.03921,-2.46197 l 0.10495,1.15446 c 0.0853,0.5816 0.32577,1.04514 0.72154,1.3906 0.39573,0.34546 0.95985,0.54662 1.69233,0.60347 0.24706,0.001 0.5313,-0.0102 0.85273,-0.035 0.32139,-0.0248 0.66686,-0.0714 1.03639,-0.13994 l 0,-3.28847 c -0.39723,-0.0131 -0.67856,-0.11806 -0.84398,-0.31485 -0.16546,-0.19678 -0.24563,-0.51163 -0.24051,-0.94456 l 0,-6.61191 c -0.0197,-2.392 -0.72375,-4.22864 -2.11214,-5.50993 -1.38843,-1.28126 -3.34314,-1.92846 -5.86414,-1.9416 -1.29222,7.5e-4 -2.54726,0.20045 -3.76512,0.5991 -1.21787,0.39869 -2.41169,0.99195 -3.58145,1.77979 l 1.18944,2.44886 c 0.99412,-0.68435 1.97074,-1.20473 2.92988,-1.56115 0.95913,-0.35638 1.91827,-0.53567 2.87741,-0.53787 1.44161,0.011 2.54651,0.3914 3.3147,1.14134 0.76817,0.74998 1.15591,1.80386 1.16321,3.16165 l 0,1.25942 c -0.67563,-0.26456 -1.43216,-0.47009 -2.26956,-0.61659 -0.83744,-0.14649 -1.69016,-0.22083 -2.55819,-0.22302 -2.31184,0.0263 -4.16889,0.55975 -5.57115,1.6005 -1.40226,1.04077 -2.12234,2.43137 -2.16024,4.1718 0.0372,1.66246 0.62752,3.02537 1.77105,4.08872 1.14353,1.06336 2.61721,1.61289 4.42106,1.64861 z m 1.04951,-2.83368 c -1.05316,-0.0204 -1.91172,-0.32943 -2.57567,-0.92707 -0.66397,-0.59763 -1.00651,-1.36144 -1.02765,-2.29143 0.0248,-0.97735 0.46499,-1.76011 1.32064,-2.34828 0.85563,-0.58815 1.97803,-0.88989 3.36718,-0.9052 0.70768,0.003 1.4263,0.0758 2.15587,0.21865 0.72954,0.14286 1.42192,0.33818 2.07715,0.58597 l 0,2.41388 c -0.002,0.21501 -0.0678,0.44094 -0.19678,0.67781 -0.12902,0.23687 -0.30831,0.45406 -0.53788,0.65157 -0.47302,0.60055 -1.11876,1.06992 -1.93722,1.40809 -0.81848,0.33818 -1.70036,0.51018 -2.64564,0.51601 z"
           style="font-weight:600;text-align:start;line-height:125%;writing-mode:lr-tb;text-anchor:start;font-family:Raleway;-inkscape-font-specification:Raleway Semi-Bold;fill:#803300;fill-opacity:1"
           id="path4211" />
        <path
           d="m 268.44067,135.47382 c 1.31771,-0.007 2.55671,-0.32579 3.71701,-0.95768 1.16028,-0.63189 2.10192,-1.53709 2.82494,-2.71561 l 0.07,1.5043 c 0.0889,0.57942 0.33962,1.03858 0.75215,1.37748 0.4125,0.33891 0.97807,0.54443 1.69671,0.61659 0.24268,0.001 0.51818,-0.0102 0.82649,-0.035 0.30828,-0.0248 0.66248,-0.0714 1.06263,-0.13994 l 0,-3.28847 c -0.39869,-0.0131 -0.68585,-0.11806 -0.86147,-0.31485 -0.17567,-0.19678 -0.26167,-0.51163 -0.25801,-0.94456 l 0,-20.9902 -3.8482,0 0,10.705 c -0.64211,-1.10634 -1.51816,-2.00717 -2.62815,-2.70249 -1.11002,-0.69528 -2.37963,-1.05386 -3.80885,-1.07575 -2.43939,0.0693 -4.40868,0.99779 -5.90787,2.78558 -1.4992,1.78783 -2.27029,4.01949 -2.31329,6.695 0.0445,2.66022 0.85637,4.88752 2.43574,6.68188 1.57936,1.79437 3.65943,2.72727 6.24021,2.7987 z m 0.97954,-3.28847 c -1.661,-0.0452 -3.01808,-0.64574 -4.07122,-1.80166 -1.05316,-1.15591 -1.59687,-2.59607 -1.63112,-4.32048 0.0226,-1.669 0.51965,-3.11499 1.49118,-4.33798 0.97152,-1.22295 2.28195,-1.86432 3.93129,-1.9241 1.08813,0.0248 2.13035,0.40378 3.12667,1.13697 0.99629,0.73321 1.71491,1.67194 2.15587,2.81619 l 0,4.79276 c -0.31341,1.05462 -0.96353,1.919 -1.95034,2.59316 -0.98685,0.67417 -2.00429,1.02255 -3.05233,1.04514 z"
           style="font-weight:600;text-align:start;line-height:125%;writing-mode:lr-tb;text-anchor:start;font-family:Raleway;-inkscape-font-specification:Raleway Semi-Bold;fill:#803300;fill-opacity:1"
           id="path4213" />
        <path
           d="m 291.62202,135.47382 c 1.94741,-0.0248 3.6412,-0.46499 5.08138,-1.32064 1.44014,-0.85564 2.48674,-1.97803 3.13978,-3.36718 l -3.28846,-0.94455 c -0.37682,0.85127 -1.00507,1.52762 -1.88475,2.02905 -0.8797,0.50143 -1.84904,0.75798 -2.90802,0.76964 -1.45474,-0.0233 -2.69958,-0.51892 -3.7345,-1.48681 -1.03494,-0.96787 -1.63258,-2.2681 -1.79292,-3.90068 l 14.65816,0 c 0.0197,-0.16106 0.0415,-0.36367 0.0656,-0.60784 0.024,-0.24415 0.0371,-0.50798 0.0394,-0.7915 -0.0306,-2.54724 -0.87023,-4.7206 -2.51882,-6.52009 -1.64862,-1.79945 -3.92256,-2.73964 -6.82182,-2.82056 -2.90657,0.0729 -5.20966,1.01163 -6.90927,2.81619 -1.69963,1.80459 -2.56839,4.03771 -2.60629,6.69937 0.0386,2.62816 0.90593,4.84087 2.60191,6.63816 1.69598,1.79728 3.98886,2.7331 6.87867,2.80744 z m -5.49244,-10.87993 c 0.15451,-1.58081 0.73757,-2.84459 1.74919,-3.79135 1.0116,-0.94673 2.25935,-1.43213 3.74325,-1.4562 1.49773,0.0241 2.75276,0.50947 3.76512,1.4562 1.01232,0.94676 1.61142,2.21054 1.79728,3.79135 z"
           style="font-weight:600;text-align:start;line-height:125%;writing-mode:lr-tb;text-anchor:start;font-family:Raleway;-inkscape-font-specification:Raleway Semi-Bold;fill:#803300;fill-opacity:1"
           id="path4215" />
        <path
           d="m 320.5434,123.96419 c 0.0466,-2.07059 -0.31778,-3.8154 -1.09324,-5.23444 -0.77548,-1.419 -2.24188,-2.15803 -4.39919,-2.21709 -1.63113,0.0131 -3.10044,0.37173 -4.40795,1.07575 -1.30752,0.70407 -2.32204,1.67486 -3.04358,2.91239 l 0,-3.67328 -3.49836,0 0,18.29646 3.8482,0 0,-10.87992 c 0.44093,-1.26596 1.17705,-2.29361 2.20835,-3.08294 1.03128,-0.7893 2.12597,-1.19599 3.28409,-1.22006 1.05387,-0.009 1.85849,0.38484 2.41387,1.1807 0.55535,0.7959 0.83522,2.04656 0.83961,3.752 l 0,10.25022 3.8482,0 z"
           style="font-weight:600;text-align:start;line-height:125%;writing-mode:lr-tb;text-anchor:start;font-family:Raleway;-inkscape-font-specification:Raleway Semi-Bold;fill:#803300;fill-opacity:1"
           id="path4217" />
        <path
           d="m 335.19308,127.28764 0,-3.46339 -10.46012,0 0,3.46339 z"
           style="font-weight:600;text-align:start;line-height:125%;writing-mode:lr-tb;text-anchor:start;font-family:Raleway;-inkscape-font-specification:Raleway Semi-Bold;fill:#803300;fill-opacity:1"
           id="path4219" />
        <path
           d="m 353.17215,121.44536 -3.67328,9.13074 -7.80136,-20.29053 -4.23303,0 10.21524,24.83841 3.35843,0 4.65283,-11.12481 4.61784,11.12481 3.39342,0 10.21523,-24.83841 -4.26801,0 -7.73139,20.29053 -3.74325,-9.13074 4.26801,-11.05484 -3.70827,0 -3.07857,8.43107 -3.04358,-8.43107 -3.67328,0 z"
           style="font-weight:600;text-align:start;line-height:125%;writing-mode:lr-tb;text-anchor:start;font-family:Raleway;-inkscape-font-specification:Raleway Semi-Bold;fill:#803300;fill-opacity:1"
           id="path4221" />
        <path
           d="m 382.93608,113.60902 0,-3.84821 -3.2185,0 0,3.84821 z m 6.19211,0 0,-3.84821 -3.2185,0 0,3.84821 z m -7.17166,21.8648 c 1.58811,-0.003 3.02972,-0.34692 4.32486,-1.03202 1.29511,-0.6851 2.36065,-1.69379 3.19663,-3.02609 l 0.07,1.88912 c 0.0889,0.59691 0.33962,1.06482 0.75215,1.40372 0.4125,0.3389 0.97807,0.53569 1.69671,0.59035 0.22519,0.001 0.49194,-0.0102 0.80025,-0.035 0.30827,-0.0248 0.67123,-0.0714 1.08887,-0.13994 l 0,-3.28847 c -0.414,-0.0131 -0.70553,-0.11806 -0.8746,-0.31485 -0.1691,-0.19678 -0.25073,-0.51163 -0.24488,-0.94456 l 0,-13.74858 -3.84821,0 0,11.40468 c -0.56266,1.28201 -1.32647,2.26009 -2.29143,2.93425 -0.96498,0.67417 -2.00865,1.0138 -3.13104,1.0189 -1.15447,-0.002 -2.02031,-0.41761 -2.59753,-1.24629 -0.57724,-0.82867 -0.86586,-2.05747 -0.86585,-3.68641 l 0,-10.42513 -3.8482,0 0,11.19477 c 0.004,2.45324 0.49414,4.30737 1.46931,5.56241 0.97517,1.25504 2.40949,1.88474 4.30299,1.88912 z"
           style="font-weight:600;text-align:start;line-height:125%;writing-mode:lr-tb;text-anchor:start;font-family:Raleway;-inkscape-font-specification:Raleway Semi-Bold;fill:#803300;fill-opacity:1"
           id="path4223" />
        <path
           d="m 407.99614,116.68758 c -0.11954,-0.0167 -0.25656,-0.0269 -0.41106,-0.0306 -0.15452,-0.004 -0.34402,-0.005 -0.56848,-0.004 -1.15302,0.0204 -2.23168,0.41691 -3.23599,1.18944 -1.00433,0.77258 -1.83811,1.79876 -2.50133,3.07857 l 0,-4.09309 -3.56834,0 0,18.29646 3.8482,0 0,-11.19478 c 0.52621,-1.1785 1.35416,-2.09245 2.48385,-2.74184 1.12967,-0.64937 2.44738,-0.99484 3.95315,-1.03639 z"
           style="font-weight:600;text-align:start;line-height:125%;writing-mode:lr-tb;text-anchor:start;font-family:Raleway;-inkscape-font-specification:Raleway Semi-Bold;fill:#803300;fill-opacity:1"
           id="path4225" />
        <path
           d="m 420.17227,131.13584 c -0.24053,0.13775 -0.59911,0.29081 -1.07575,0.45916 -0.47666,0.16836 -0.99267,0.2602 -1.54803,0.2755 -0.53934,0.004 -0.99121,-0.14358 -1.35561,-0.44167 -0.36442,-0.29809 -0.55392,-0.76891 -0.56849,-1.41247 l 0,-10.21523 3.98814,0 0,-2.97361 -3.98814,0 0,-6.01719 -3.8482,0 0,6.01719 -2.44886,0 0,2.97361 2.44886,0 0,11.43966 c 0.035,1.45912 0.47227,2.52029 1.31188,3.18352 0.83961,0.66323 1.87162,0.98974 3.09606,0.97954 1.01014,-0.0226 1.93721,-0.16982 2.7812,-0.44167 0.84397,-0.27185 1.52615,-0.53277 2.04655,-0.78276 z"
           style="font-weight:600;text-align:start;line-height:125%;writing-mode:lr-tb;text-anchor:start;font-family:Raleway;-inkscape-font-specification:Raleway Semi-Bold;fill:#803300;fill-opacity:1"
           id="path4227" />
        <path
           d="m 432.88135,131.13584 c -0.24053,0.13775 -0.59911,0.29081 -1.07575,0.45916 -0.47667,0.16836 -0.99267,0.2602 -1.54803,0.2755 -0.53934,0.004 -0.99121,-0.14358 -1.35562,-0.44167 -0.36442,-0.29809 -0.55391,-0.76891 -0.56848,-1.41247 l 0,-10.21523 3.98814,0 0,-2.97361 -3.98814,0 0,-6.01719 -3.84821,0 0,6.01719 -2.44885,0 0,2.97361 2.44885,0 0,11.43966 c 0.035,1.45912 0.47228,2.52029 1.31189,3.18352 0.8396,0.66323 1.87162,0.98974 3.09606,0.97954 1.01014,-0.0226 1.93721,-0.16982 2.7812,-0.44167 0.84397,-0.27185 1.52615,-0.53277 2.04654,-0.78276 z"
           style="font-weight:600;text-align:start;line-height:125%;writing-mode:lr-tb;text-anchor:start;font-family:Raleway;-inkscape-font-specification:Raleway Semi-Bold;fill:#803300;fill-opacity:1"
           id="path4229" />
        <path
           d="m 444.54093,135.47382 c 1.94741,-0.0248 3.6412,-0.46499 5.08137,-1.32064 1.44015,-0.85564 2.48674,-1.97803 3.13979,-3.36718 l -3.28847,-0.94455 c -0.37681,0.85127 -1.00506,1.52762 -1.88474,2.02905 -0.87971,0.50143 -1.84905,0.75798 -2.90802,0.76964 -1.45475,-0.0233 -2.69958,-0.51892 -3.73451,-1.48681 -1.03494,-0.96787 -1.63257,-2.2681 -1.79291,-3.90068 l 14.65816,0 c 0.0197,-0.16106 0.0415,-0.36367 0.0656,-0.60784 0.024,-0.24415 0.0371,-0.50798 0.0394,-0.7915 -0.0306,-2.54724 -0.87024,-4.7206 -2.51882,-6.52009 -1.64863,-1.79945 -3.92256,-2.73964 -6.82182,-2.82056 -2.90657,0.0729 -5.20966,1.01163 -6.90928,2.81619 -1.69962,1.80459 -2.56838,4.03771 -2.60628,6.69937 0.0386,2.62816 0.90593,4.84087 2.60191,6.63816 1.69597,1.79728 3.98886,2.7331 6.87867,2.80744 z m -5.49244,-10.87993 c 0.1545,-1.58081 0.73757,-2.84459 1.74918,-3.79135 1.01161,-0.94673 2.25936,-1.43213 3.74326,-1.4562 1.49772,0.0241 2.75276,0.50947 3.76511,1.4562 1.01233,0.94676 1.61142,2.21054 1.79729,3.79135 z"
           style="font-weight:600;text-align:start;line-height:125%;writing-mode:lr-tb;text-anchor:start;font-family:Raleway;-inkscape-font-specification:Raleway Semi-Bold;fill:#803300;fill-opacity:1"
           id="path4231" />
        <path
           d="m 485.0419,123.96419 c 0.0408,-2.05528 -0.3382,-3.79572 -1.13697,-5.22132 -0.79882,-1.42556 -2.2623,-2.16897 -4.39045,-2.23021 -1.47517,0.005 -2.79288,0.36225 -3.95315,1.07138 -1.16032,0.70917 -2.1282,1.73972 -2.90365,3.09168 -0.22741,-1.21421 -0.7784,-2.20541 -1.65298,-2.97361 -0.87461,-0.76817 -2.0728,-1.16465 -3.59457,-1.18945 -1.51379,0.007 -2.8592,0.35205 -4.03624,1.0364 -1.17707,0.68438 -2.12891,1.6683 -2.85555,2.95174 l 0,-3.67328 -3.49836,0 0,18.29646 3.8482,0 0,-10.87992 c 0.42563,-1.29657 1.0874,-2.33296 1.98533,-3.10918 0.8979,-0.77618 1.89202,-1.17412 2.98235,-1.19382 1.06918,-0.009 1.87818,0.38484 2.42699,1.1807 0.5488,0.7959 0.82429,2.04656 0.82649,3.752 l 0,10.25022 3.84821,0 0,-10.84494 c 0.40812,-1.29803 1.06115,-2.34025 1.95909,-3.12667 0.89789,-0.78639 1.90075,-1.19015 3.00859,-1.21131 1.05532,-0.007 1.86577,0.3914 2.43137,1.19382 0.56554,0.80245 0.85124,2.04875 0.8571,3.73888 l 0,10.25022 3.8482,0 z"
           style="font-weight:600;text-align:start;line-height:125%;writing-mode:lr-tb;text-anchor:start;font-family:Raleway;-inkscape-font-specification:Raleway Semi-Bold;fill:#803300;fill-opacity:1"
           id="path4233" />
        <path
           d="m 499.23968,135.47382 c 2.50132,-0.0663 4.54786,-0.98319 6.13963,-2.75059 1.59174,-1.76741 2.41386,-3.98741 2.46635,-6.66002 -0.0321,-2.6019 -0.77257,-4.82336 -2.22146,-6.66439 -1.44893,-1.841 -3.41384,-2.80305 -5.89475,-2.88616 -1.45329,0.0131 -2.72728,0.35423 -3.82197,1.02328 -1.0947,0.66908 -2.00136,1.5874 -2.71998,2.75496 l 0,-10.705 -3.8482,0 0,25.53808 3.39341,0 0,-3.32345 c 0.66031,1.1326 1.5524,2.02468 2.67625,2.67625 1.12385,0.65157 2.40075,0.98392 3.83072,0.99704 z m -1.01453,-3.28847 c -1.04733,-0.0189 -2.06623,-0.35712 -3.0567,-1.01452 -0.99048,-0.6574 -1.6508,-1.52033 -1.98095,-2.5888 l 0,-4.82774 c 0.51673,-1.11364 1.23244,-2.04362 2.14712,-2.78995 0.91467,-0.74631 1.97147,-1.13404 3.1704,-1.16321 1.61871,0.0554 2.92039,0.68803 3.90505,1.89786 0.98463,1.20987 1.49044,2.66461 1.51742,4.36422 -0.0277,1.66319 -0.5583,3.08586 -1.59176,4.26801 -1.03349,1.18216 -2.40368,1.8002 -4.11058,1.85413 z"
           style="font-weight:600;text-align:start;line-height:125%;writing-mode:lr-tb;text-anchor:start;font-family:Raleway;-inkscape-font-specification:Raleway Semi-Bold;fill:#803300;fill-opacity:1"
           id="path4235" />
        <path
           d="m 519.63381,135.47382 c 1.94741,-0.0248 3.6412,-0.46499 5.08137,-1.32064 1.44015,-0.85564 2.48674,-1.97803 3.13979,-3.36718 l -3.28847,-0.94455 c -0.37681,0.85127 -1.00506,1.52762 -1.88474,2.02905 -0.87971,0.50143 -1.84905,0.75798 -2.90802,0.76964 -1.45475,-0.0233 -2.69958,-0.51892 -3.73451,-1.48681 -1.03494,-0.96787 -1.63257,-2.2681 -1.79291,-3.90068 l 14.65816,0 c 0.0197,-0.16106 0.0415,-0.36367 0.0656,-0.60784 0.024,-0.24415 0.0372,-0.50798 0.0394,-0.7915 -0.0306,-2.54724 -0.87024,-4.7206 -2.51882,-6.52009 -1.64862,-1.79945 -3.92256,-2.73964 -6.82182,-2.82056 -2.90657,0.0729 -5.20966,1.01163 -6.90928,2.81619 -1.69962,1.80459 -2.56838,4.03771 -2.60628,6.69937 0.0386,2.62816 0.90593,4.84087 2.60191,6.63816 1.69597,1.79728 3.98886,2.7331 6.87867,2.80744 z m -5.49244,-10.87993 c 0.15451,-1.58081 0.73757,-2.84459 1.74918,-3.79135 1.01161,-0.94673 2.25936,-1.43213 3.74326,-1.4562 1.49772,0.0241 2.75276,0.50947 3.76511,1.4562 1.01233,0.94676 1.61142,2.21054 1.79729,3.79135 z"
           style="font-weight:600;text-align:start;line-height:125%;writing-mode:lr-tb;text-anchor:start;font-family:Raleway;-inkscape-font-specification:Raleway Semi-Bold;fill:#803300;fill-opacity:1"
           id="path4237" />
        <path
           d="m 542.39806,116.68758 c -0.11954,-0.0167 -0.25656,-0.0269 -0.41106,-0.0306 -0.15452,-0.004 -0.34402,-0.005 -0.56849,-0.004 -1.15301,0.0204 -2.23167,0.41691 -3.23599,1.18944 -1.00433,0.77258 -1.8381,1.79876 -2.50133,3.07857 l 0,-4.09309 -3.56833,0 0,18.29646 3.8482,0 0,-11.19478 c 0.52621,-1.1785 1.35415,-2.09245 2.48384,-2.74184 1.12967,-0.64937 2.44739,-0.99484 3.95316,-1.03639 z"
           style="font-weight:600;text-align:start;line-height:125%;writing-mode:lr-tb;text-anchor:start;font-family:Raleway;-inkscape-font-specification:Raleway Semi-Bold;fill:#803300;fill-opacity:1"
           id="path4239" />
        <path
           d="m 552.44018,135.2989 c 1.28345,-0.008 2.48602,-0.31558 3.60769,-0.9227 1.12165,-0.60711 2.01811,-1.46566 2.68937,-2.57567 l 0,2.7987 c -0.0459,1.84684 -0.62753,3.20829 -1.74481,4.08434 -1.1173,0.87605 -2.49478,1.31043 -4.13244,1.30314 -1.26015,-0.003 -2.43939,-0.25947 -3.53773,-0.76964 -1.09835,-0.51018 -2.00646,-1.2565 -2.72435,-2.23895 l -2.16899,2.02905 c 0.90884,1.23463 2.03852,2.19376 3.38904,2.87741 1.35051,0.68363 3.03119,1.03055 5.04203,1.04076 2.82346,-0.0168 5.13529,-0.74414 6.93551,-2.18211 1.80018,-1.43798 2.73016,-3.48598 2.78995,-6.144 l 0,-17.77171 -3.39342,0 0,3.46338 c -0.71718,-1.13695 -1.62675,-2.04653 -2.72873,-2.72873 -1.10199,-0.68216 -2.39639,-1.032 -3.88318,-1.04951 -2.54143,0.0693 -4.57777,0.99779 -6.10903,2.78558 -1.53127,1.78783 -2.31694,4.01949 -2.35702,6.695 0.0386,2.5458 0.80972,4.71333 2.31329,6.50259 1.50357,1.78927 3.50784,2.72363 6.01282,2.80307 z m 1.25941,-3.11355 c -1.6457,-0.0459 -2.9984,-0.64501 -4.0581,-1.79728 -1.05972,-1.15227 -1.6078,-2.58223 -1.64424,-4.28988 0.0182,-1.63985 0.50653,-3.08292 1.46495,-4.32923 0.9584,-1.24628 2.27757,-1.90222 3.95752,-1.96783 1.12895,0.0204 2.177,0.39067 3.14416,1.11073 0.96714,0.7201 1.69159,1.66757 2.17336,2.84243 l 0,4.79276 c -0.31049,0.9934 -0.93145,1.84029 -1.86288,2.54069 -0.93145,0.7004 -1.98971,1.06627 -3.17477,1.09761 z"
           style="font-weight:600;text-align:start;line-height:125%;writing-mode:lr-tb;text-anchor:start;font-family:Raleway;-inkscape-font-specification:Raleway Semi-Bold;fill:#803300;fill-opacity:1"
           id="path4241" />
        <path
           d="m 585.53841,135.47382 c 2.50132,-0.0663 4.54786,-0.98319 6.13964,-2.75059 1.59174,-1.76741 2.41385,-3.98741 2.46635,-6.66002 -0.0321,-2.6019 -0.77258,-4.82336 -2.22147,-6.66439 -1.44892,-1.841 -3.41383,-2.80305 -5.89474,-2.88616 -1.4533,0.0131 -2.72728,0.35423 -3.82197,1.02328 -1.09471,0.66908 -2.00137,1.5874 -2.71998,2.75496 l 0,-10.705 -3.84821,0 0,25.53808 3.39342,0 0,-3.32345 c 0.66031,1.1326 1.55239,2.02468 2.67625,2.67625 1.12384,0.65157 2.40075,0.98392 3.83071,0.99704 z m -1.01452,-3.28847 c -1.04734,-0.0189 -2.06624,-0.35712 -3.0567,-1.01452 -0.99048,-0.6574 -1.6508,-1.52033 -1.98095,-2.5888 l 0,-4.82774 c 0.51673,-1.11364 1.23244,-2.04362 2.14712,-2.78995 0.91467,-0.74631 1.97147,-1.13404 3.1704,-1.16321 1.61871,0.0554 2.92039,0.68803 3.90505,1.89786 0.98463,1.20987 1.49043,2.66461 1.51742,4.36422 -0.0277,1.66319 -0.5583,3.08586 -1.59176,4.26801 -1.03349,1.18216 -2.40368,1.8002 -4.11058,1.85413 z"
           style="font-weight:600;text-align:start;line-height:125%;writing-mode:lr-tb;text-anchor:start;font-family:Raleway;-inkscape-font-specification:Raleway Semi-Bold;fill:#803300;fill-opacity:1"
           id="path4243" />
        <path
           d="m 605.93254,135.47382 c 1.94742,-0.0248 3.64121,-0.46499 5.08138,-1.32064 1.44015,-0.85564 2.48674,-1.97803 3.13979,-3.36718 l -3.28847,-0.94455 c -0.37682,0.85127 -1.00506,1.52762 -1.88474,2.02905 -0.87971,0.50143 -1.84905,0.75798 -2.90802,0.76964 -1.45475,-0.0233 -2.69958,-0.51892 -3.73451,-1.48681 -1.03494,-0.96787 -1.63258,-2.2681 -1.79291,-3.90068 l 14.65816,0 c 0.0197,-0.16106 0.0415,-0.36367 0.0656,-0.60784 0.024,-0.24415 0.0371,-0.50798 0.0394,-0.7915 -0.0306,-2.54724 -0.87024,-4.7206 -2.51883,-6.52009 -1.64862,-1.79945 -3.92256,-2.73964 -6.82181,-2.82056 -2.90657,0.0729 -5.20966,1.01163 -6.90928,2.81619 -1.69963,1.80459 -2.56839,4.03771 -2.60628,6.69937 0.0386,2.62816 0.90593,4.84087 2.60191,6.63816 1.69597,1.79728 3.98886,2.7331 6.87866,2.80744 z m -5.49243,-10.87993 c 0.1545,-1.58081 0.73756,-2.84459 1.74918,-3.79135 1.0116,-0.94673 2.25935,-1.43213 3.74325,-1.4562 1.49773,0.0241 2.75277,0.50947 3.76512,1.4562 1.01233,0.94676 1.61142,2.21054 1.79729,3.79135 z"
           style="font-weight:600;text-align:start;line-height:125%;writing-mode:lr-tb;text-anchor:start;font-family:Raleway;-inkscape-font-specification:Raleway Semi-Bold;fill:#803300;fill-opacity:1"
           id="path4245" />
        <path
           d="m 635.51861,131.41571 -2.65876,-6.78683 3.14853,-7.76638 -3.14853,0 -2.09902,5.73732 -2.09902,-5.73732 -3.14853,0 3.18351,7.76638 -2.65876,6.78683 -5.91224,-14.58819 -3.6383,0 7.69641,18.29646 3.18351,0 3.39342,-8.50103 3.4284,8.50103 3.14853,0 7.73139,-18.29646 -3.67328,0 z"
           style="font-weight:600;text-align:start;line-height:125%;writing-mode:lr-tb;text-anchor:start;font-family:Raleway;-inkscape-font-specification:Raleway Semi-Bold;fill:#803300;fill-opacity:1"
           id="path4247" />
        <path
           d="m 655.9489,135.47382 c 1.94741,-0.0248 3.6412,-0.46499 5.08138,-1.32064 1.44014,-0.85564 2.48674,-1.97803 3.13978,-3.36718 l -3.28846,-0.94455 c -0.37682,0.85127 -1.00507,1.52762 -1.88475,2.02905 -0.8797,0.50143 -1.84904,0.75798 -2.90801,0.76964 -1.45475,-0.0233 -2.69959,-0.51892 -3.73451,-1.48681 -1.03494,-0.96787 -1.63258,-2.2681 -1.79292,-3.90068 l 14.65816,0 c 0.0197,-0.16106 0.0415,-0.36367 0.0656,-0.60784 0.024,-0.24415 0.0371,-0.50798 0.0394,-0.7915 -0.0306,-2.54724 -0.87024,-4.7206 -2.51883,-6.52009 -1.64862,-1.79945 -3.92256,-2.73964 -6.82182,-2.82056 -2.90656,0.0729 -5.20965,1.01163 -6.90927,2.81619 -1.69963,1.80459 -2.56839,4.03771 -2.60629,6.69937 0.0386,2.62816 0.90593,4.84087 2.60191,6.63816 1.69598,1.79728 3.98886,2.7331 6.87867,2.80744 z m -5.49244,-10.87993 c 0.15451,-1.58081 0.73757,-2.84459 1.74919,-3.79135 1.0116,-0.94673 2.25935,-1.43213 3.74325,-1.4562 1.49773,0.0241 2.75277,0.50947 3.76512,1.4562 1.01232,0.94676 1.61142,2.21054 1.79729,3.79135 z"
           style="font-weight:600;text-align:start;line-height:125%;writing-mode:lr-tb;text-anchor:start;font-family:Raleway;-inkscape-font-specification:Raleway Semi-Bold;fill:#803300;fill-opacity:1"
           id="path4249" />
        <path
           d="m 675.70456,135.2989 c 1.28345,-0.008 2.48601,-0.31558 3.60769,-0.9227 1.12165,-0.60711 2.0181,-1.46566 2.68937,-2.57567 l 0,2.7987 c -0.0459,1.84684 -0.62754,3.20829 -1.74481,4.08434 -1.11731,0.87605 -2.49479,1.31043 -4.13245,1.30314 -1.26015,-0.003 -2.43939,-0.25947 -3.53773,-0.76964 -1.09834,-0.51018 -2.00646,-1.2565 -2.72435,-2.23895 l -2.16899,2.02905 c 0.90885,1.23463 2.03853,2.19376 3.38905,2.87741 1.35051,0.68363 3.03118,1.03055 5.04202,1.04076 2.82346,-0.0168 5.1353,-0.74414 6.93551,-2.18211 1.80019,-1.43798 2.73017,-3.48598 2.78995,-6.144 l 0,-17.77171 -3.39342,0 0,3.46338 c -0.71718,-1.13695 -1.62675,-2.04653 -2.72872,-2.72873 -1.102,-0.68216 -2.3964,-1.032 -3.88319,-1.04951 -2.54143,0.0693 -4.57777,0.99779 -6.10903,2.78558 -1.53126,1.78783 -2.31694,4.01949 -2.35702,6.695 0.0386,2.5458 0.80972,4.71333 2.3133,6.50259 1.50356,1.78927 3.50783,2.72363 6.01282,2.80307 z m 1.25941,-3.11355 c -1.6457,-0.0459 -2.9984,-0.64501 -4.05811,-1.79728 -1.05972,-1.15227 -1.6078,-2.58223 -1.64423,-4.28988 0.0182,-1.63985 0.50653,-3.08292 1.46494,-4.32923 0.9584,-1.24628 2.27757,-1.90222 3.95753,-1.96783 1.12894,0.0204 2.17699,0.39067 3.14416,1.11073 0.96713,0.7201 1.69159,1.66757 2.17336,2.84243 l 0,4.79276 c -0.3105,0.9934 -0.93146,1.84029 -1.86288,2.54069 -0.93146,0.7004 -1.98971,1.06627 -3.17477,1.09761 z"
           style="font-weight:600;text-align:start;line-height:125%;writing-mode:lr-tb;text-anchor:start;font-family:Raleway;-inkscape-font-specification:Raleway Semi-Bold;fill:#803300;fill-opacity:1"
           id="path4251" />
        <path
           d="m 699.77197,131.13584 c -0.24052,0.13775 -0.59911,0.29081 -1.07575,0.45916 -0.47666,0.16836 -0.99267,0.2602 -1.54803,0.2755 -0.53934,0.004 -0.99121,-0.14358 -1.35561,-0.44167 -0.36442,-0.29809 -0.55392,-0.76891 -0.56849,-1.41247 l 0,-10.21523 3.98814,0 0,-2.97361 -3.98814,0 0,-6.01719 -3.8482,0 0,6.01719 -2.44886,0 0,2.97361 2.44886,0 0,11.43966 c 0.035,1.45912 0.47227,2.52029 1.31189,3.18352 0.8396,0.66323 1.87162,0.98974 3.09605,0.97954 1.01015,-0.0226 1.93721,-0.16982 2.7812,-0.44167 0.84397,-0.27185 1.52615,-0.53277 2.04655,-0.78276 z"
           style="font-weight:600;text-align:start;line-height:125%;writing-mode:lr-tb;text-anchor:start;font-family:Raleway;-inkscape-font-specification:Raleway Semi-Bold;fill:#803300;fill-opacity:1"
           id="path4253" />
        <path
           d="m 718.46828,135.47382 c 2.28341,-0.0197 4.08361,-0.53132 5.40061,-1.53491 1.31697,-1.00359 1.98895,-2.38107 2.01593,-4.13245 0.0131,-1.51231 -0.56412,-2.65073 -1.73169,-3.41528 -1.16759,-0.76453 -3.00423,-1.42193 -5.50993,-1.9722 -1.46859,-0.33671 -2.51081,-0.6778 -3.12666,-1.02328 -0.61587,-0.34545 -0.91469,-0.87895 -0.89646,-1.6005 0.0233,-0.88697 0.36149,-1.53562 1.01453,-1.94597 0.65302,-0.41031 1.48096,-0.61293 2.48384,-0.60784 0.9635,-0.001 1.91388,0.1589 2.85117,0.48103 0.93725,0.32215 1.85266,0.81484 2.74622,1.47806 l 1.64423,-2.34391 c -0.97446,-0.72516 -2.0779,-1.29511 -3.31033,-1.70983 -1.23246,-0.41468 -2.51957,-0.62604 -3.86133,-0.63408 -2.05894,0.0117 -3.7571,0.52186 -5.09449,1.53054 -1.3374,1.00871 -2.02979,2.44596 -2.07716,4.31174 -0.0197,1.37312 0.47446,2.40514 1.48243,3.09605 1.00797,0.69094 2.64782,1.30315 4.91958,1.83665 1.63694,0.37389 2.84096,0.75434 3.61207,1.14134 0.77108,0.38701 1.15299,0.95112 1.14571,1.69233 -0.0131,0.82577 -0.35422,1.45693 -1.02327,1.8935 -0.66907,0.43657 -1.58739,0.65667 -2.75496,0.66031 -1.13552,-0.001 -2.25792,-0.19969 -3.36718,-0.59472 -1.10928,-0.39502 -2.21418,-0.97808 -3.31471,-1.74918 l -1.60924,2.58879 c 1.08303,0.81046 2.37159,1.43725 3.86569,1.88037 1.49409,0.44313 2.99256,0.66761 4.4954,0.67344 z"
           style="font-weight:600;text-align:start;line-height:125%;writing-mode:lr-tb;text-anchor:start;font-family:Raleway;-inkscape-font-specification:Raleway Semi-Bold;fill:#803300;fill-opacity:1"
           id="path4255" />
        <path
           d="m 732.95175,135.12398 0,-18.29646 -3.8482,0 0,18.29646 z m 0,-21.30506 0,-4.23302 -3.8482,0 0,4.23302 z"
           style="font-weight:600;text-align:start;line-height:125%;writing-mode:lr-tb;text-anchor:start;font-family:Raleway;-inkscape-font-specification:Raleway Semi-Bold;fill:#803300;fill-opacity:1"
           id="path4257" />
        <path
           d="m 736.32013,125.95826 c 0.0386,2.63107 0.90593,4.85544 2.60191,6.67313 1.69598,1.8177 3.98886,2.76517 6.87867,2.84243 1.94595,-0.0248 3.62517,-0.46499 5.03765,-1.32064 1.41245,-0.85564 2.42697,-1.97803 3.04358,-3.36718 l -3.77824,-1.11947 c -0.30758,0.71717 -0.8644,1.31189 -1.67047,1.78416 -0.8061,0.47229 -1.69526,0.71717 -2.66751,0.73466 -1.54512,-0.0386 -2.8366,-0.6348 -3.87444,-1.78854 -1.03785,-1.15373 -1.57718,-2.63324 -1.61799,-4.43855 0.035,-1.83299 0.55973,-3.30959 1.57426,-4.42981 1.01452,-1.12019 2.30892,-1.69597 3.88319,-1.72732 0.91904,0.006 1.74844,0.22158 2.48821,0.6472 0.73975,0.42565 1.33301,1.0262 1.7798,1.80166 l 3.74325,-1.18945 c -0.69167,-1.3833 -1.71349,-2.48236 -3.06544,-3.29721 -1.35199,-0.81481 -2.97727,-1.2317 -4.87585,-1.25067 -2.92042,0.0722 -5.22205,1.00362 -6.90491,2.79433 -1.68286,1.79074 -2.54142,4.00783 -2.57567,6.65127 z"
           style="font-weight:600;text-align:start;line-height:125%;writing-mode:lr-tb;text-anchor:start;font-family:Raleway;-inkscape-font-specification:Raleway Semi-Bold;fill:#803300;fill-opacity:1"
           id="path4259" />
        <path
           d="m 773.42387,123.96419 c 0.0415,-2.05528 -0.35642,-3.79572 -1.19382,-5.22132 -0.83744,-1.42556 -2.3636,-2.16897 -4.57849,-2.23021 -1.43434,0.011 -2.74623,0.36516 -3.93566,1.06263 -1.18946,0.69751 -2.15151,1.67268 -2.88616,2.92551 l 0,-10.9149 -3.8482,0 0,25.53808 3.8482,0 0,-10.87992 c 0.42636,-1.28127 1.13915,-2.31329 2.13838,-3.09606 0.99921,-0.78274 2.0356,-1.18506 3.10918,-1.20694 1.12529,-0.002 1.98822,0.40452 2.58879,1.22006 0.60054,0.81557 0.90373,2.05312 0.90957,3.71264 l 0,10.25022 3.84821,0 z"
           style="font-weight:600;text-align:start;line-height:125%;writing-mode:lr-tb;text-anchor:start;font-family:Raleway;-inkscape-font-specification:Raleway Semi-Bold;fill:#803300;fill-opacity:1"
           id="path4261" />
        <path
           d="m 782.2313,126.27311 0,-16.23243 -3.8482,0 0,16.23243 z m 0,8.85087 0,-4.79276 -3.8482,0 0,4.79276 z"
           style="font-weight:600;text-align:start;line-height:125%;writing-mode:lr-tb;text-anchor:start;font-family:Raleway;-inkscape-font-specification:Raleway Semi-Bold;fill:#803300;fill-opacity:1"
           id="path4263" />
        <path
           d="m 227.22628,212.08469 0,-1.95908 -8.35061,0 c 0.22142,-0.91934 0.77037,-1.70093 1.64686,-2.34478 0.87648,-0.64384 1.70705,-1.14382 2.49171,-1.49993 0.79638,-0.33977 1.6341,-0.86015 2.51314,-1.56115 0.87903,-0.70097 1.35554,-1.67439 1.42952,-2.92026 -0.0148,-1.11779 -0.4505,-2.04733 -1.30707,-2.78863 -0.8566,-0.74128 -2.04532,-1.12595 -3.56615,-1.15403 -1.52646,0.0617 -2.76517,0.37908 -3.71614,0.952 -0.95098,0.57294 -1.56523,1.03108 -1.84277,1.37442 l 1.39585,1.56727 c 0.301,-0.40406 0.75812,-0.82648 1.37136,-1.26729 0.61323,-0.44078 1.41319,-0.67954 2.39988,-0.71629 0.95811,0.0245 1.68664,0.26327 2.18561,0.71629 0.49894,0.45305 0.74995,0.97343 0.75302,1.56115 -0.0587,0.84537 -0.53519,1.53615 -1.42952,2.07234 -0.89435,0.53621 -1.85451,1.06169 -2.88047,1.57646 -1.61268,0.91679 -2.69119,1.88715 -3.23555,2.91107 -0.54436,1.02394 -0.79639,2.18408 -0.75609,3.48044 z"
           style="font-size:24.48888779px;text-align:start;line-height:125%;writing-mode:lr-tb;text-anchor:start;font-family:Raleway;-inkscape-font-specification:Raleway"
           id="path4265" />
        <path
           d="m 229.37953,204.10142 c 0.0403,1.67951 0.62089,3.06516 1.74175,4.15693 1.12086,1.09179 2.54018,1.65707 4.25795,1.69584 1.03158,-0.0107 1.94377,-0.26478 2.7366,-0.76221 0.79281,-0.49742 1.37441,-1.17392 1.74481,-2.02949 -0.0403,2.16928 -0.4556,3.84267 -1.24586,5.02016 -0.79027,1.17749 -1.86063,1.77338 -3.21106,1.78766 -0.86986,-0.009 -1.65247,-0.2357 -2.34784,-0.67955 -0.69538,-0.44386 -1.22698,-1.04995 -1.59482,-1.81828 l -1.32238,1.29789 c 0.53823,0.97495 1.26167,1.73104 2.1703,2.26826 0.90862,0.53721 1.93204,0.80965 3.07025,0.8173 1.98561,0.001 3.56104,-0.852 4.7263,-2.55905 1.16523,-1.70706 1.76112,-4.27428 1.78766,-7.70166 -0.0281,-2.35855 -0.60865,-4.19213 -1.74175,-5.50074 -1.13312,-1.3086 -2.65039,-1.97285 -4.55181,-1.99276 -1.79124,0.0419 -3.26566,0.62549 -4.42325,1.75093 -1.1576,1.12547 -1.75655,2.54172 -1.79685,4.24877 z m 6.19561,-4.13857 c 1.1581,0.0316 2.12948,0.43979 2.91414,1.22443 0.78464,0.78466 1.19279,1.75604 1.22443,2.91414 -0.0301,1.15709 -0.43519,2.12439 -1.21525,2.90189 -0.78007,0.77752 -1.75451,1.18158 -2.92332,1.21219 -1.15811,-0.0306 -2.12949,-0.43467 -2.91414,-1.21219 -0.78466,-0.7775 -1.1928,-1.7448 -1.22443,-2.90189 0.0316,-1.16881 0.43977,-2.14325 1.22443,-2.92333 0.78465,-0.78005 1.75603,-1.18513 2.91414,-1.21524 z"
           style="font-size:24.48888779px;text-align:start;line-height:125%;writing-mode:lr-tb;text-anchor:start;font-family:Raleway;-inkscape-font-specification:Raleway"
           id="path4267" />
        <path
           d="m 246.29749,212.08469 0,-2.74272 -1.81215,0 0,2.74272 z"
           style="font-size:24.48888779px;text-align:start;line-height:125%;writing-mode:lr-tb;text-anchor:start;font-family:Raleway;-inkscape-font-specification:Raleway"
           id="path4269" />
        <path
           d="m 268.9048,212.08469 1.86113,0 0,-17.36239 -2.20397,0 0,13.51769 -10.77497,-13.54218 -1.7142,0 0,17.38688 2.20397,0 0,-13.2728 z"
           style="font-size:24.48888779px;text-align:start;line-height:125%;writing-mode:lr-tb;text-anchor:start;font-family:Raleway;-inkscape-font-specification:Raleway"
           id="path4271" />
        <path
           d="m 280.15831,212.32958 c 1.95142,-0.0536 3.5095,-0.7117 4.67425,-1.97439 1.16473,-1.26269 1.76164,-2.80853 1.79073,-4.63753 -0.0306,-1.84071 -0.63059,-3.39369 -1.79991,-4.65895 -1.16934,-1.26523 -2.72436,-1.92438 -4.66507,-1.97745 -1.92899,0.0531 -3.47687,0.71222 -4.64365,1.97745 -1.16678,1.26526 -1.76573,2.81824 -1.79685,4.65895 0.0281,1.829 0.62089,3.37484 1.77849,4.63753 1.15759,1.26269 2.71159,1.92082 4.66201,1.97439 z m -4.23653,-6.58743 c 0.0311,-1.36778 0.44641,-2.50139 1.24586,-3.40085 0.79944,-0.89943 1.79633,-1.36573 2.99067,-1.39891 1.20605,0.0327 2.21008,0.49387 3.01209,1.38361 0.80199,0.88976 1.2183,2.01215 1.24892,3.36718 -0.0306,1.36677 -0.44693,2.4963 -1.24892,3.3886 -0.80201,0.89231 -1.80604,1.35453 -3.01209,1.38667 -1.20505,-0.0301 -2.205,-0.48416 -2.99985,-1.36218 -0.79487,-0.87801 -1.20709,-1.99938 -1.23668,-3.36412 z"
           style="font-size:24.48888779px;text-align:start;line-height:125%;writing-mode:lr-tb;text-anchor:start;font-family:Raleway;-inkscape-font-specification:Raleway"
           id="path4273" />
        <path
           d="m 295.16157,212.08469 5.04465,-12.78303 -2.05704,0 -4.06511,10.89741 -4.04061,-10.89741 -2.22846,0 5.04465,12.78303 z"
           style="font-size:24.48888779px;text-align:start;line-height:125%;writing-mode:lr-tb;text-anchor:start;font-family:Raleway;-inkscape-font-specification:Raleway"
           id="path4275" />
        <path
           d="m 307.92526,212.32958 c 1.30554,-0.0168 2.45344,-0.31988 3.4437,-0.90914 0.99025,-0.58926 1.70348,-1.36371 2.13969,-2.32335 l -1.86113,-0.51426 c -0.28979,0.64589 -0.76936,1.16015 -1.4387,1.54278 -0.66937,0.38263 -1.40606,0.57854 -2.2101,0.58772 -1.14229,-0.0209 -2.11469,-0.41987 -2.9172,-1.19688 -0.80251,-0.77699 -1.26677,-1.80653 -1.39279,-3.08862 l 10.60356,0 c 0.0127,-0.0775 0.024,-0.19182 0.0337,-0.34284 0.01,-0.151 0.0148,-0.31426 0.0153,-0.48977 -0.0245,-1.77133 -0.6061,-3.28554 -1.74481,-4.54263 -1.13873,-1.25707 -2.68763,-1.91418 -4.6467,-1.97133 -1.9545,0.0505 -3.52483,0.70253 -4.71099,1.95603 -1.18617,1.25351 -1.79532,2.80548 -1.82746,4.65589 0.0311,1.85144 0.63619,3.40748 1.81521,4.66813 1.17902,1.26065 2.74527,1.91674 4.69875,1.96827 z m -4.2855,-7.4935 c 0.11223,-1.2331 0.56731,-2.2259 1.36524,-2.97843 0.79791,-0.7525 1.77949,-1.13921 2.94475,-1.16014 1.16421,0.0194 2.14784,0.40305 2.95087,1.15096 0.80301,0.74793 1.27237,1.7438 1.40809,2.98761 z"
           style="font-size:24.48888779px;text-align:start;line-height:125%;writing-mode:lr-tb;text-anchor:start;font-family:Raleway;-inkscape-font-specification:Raleway"
           id="path4277" />
        <path
           d="m 335.98437,204.44426 c 0.0224,-1.56267 -0.25511,-2.83914 -0.83261,-3.8294 -0.57754,-0.99025 -1.58973,-1.50145 -3.03658,-1.5336 -1.04333,0.003 -1.97492,0.26684 -2.79476,0.79282 -0.81987,0.526 -1.51269,1.29841 -2.07847,2.31723 -0.15051,-0.92239 -0.54131,-1.66725 -1.17239,-2.23458 -0.6311,-0.56731 -1.48105,-0.85913 -2.54987,-0.87547 -1.04842,0.006 -1.98817,0.26378 -2.81925,0.77445 -0.83108,0.5107 -1.50758,1.24026 -2.02949,2.18867 l 0,-2.74272 -1.95908,0 0,12.78303 2.15499,0 0,-7.7139 c 0.31019,-1.01831 0.81016,-1.82847 1.49993,-2.43049 0.68975,-0.602 1.47134,-0.91015 2.34478,-0.92444 0.84535,-0.007 1.48104,0.30663 1.90704,0.93975 0.42599,0.63314 0.63925,1.62594 0.63977,2.97842 l 0,7.15066 2.15499,0 0,-7.68941 c 0.30865,-1.00861 0.80556,-1.8198 1.49075,-2.43355 0.68515,-0.61374 1.4698,-0.92902 2.35396,-0.94587 0.84637,-0.004 1.48613,0.31581 1.91929,0.95811 0.43312,0.64233 0.65046,1.62901 0.65201,2.96006 l 0,7.15066 2.15499,0 z"
           style="font-size:24.48888779px;text-align:start;line-height:125%;writing-mode:lr-tb;text-anchor:start;font-family:Raleway;-inkscape-font-specification:Raleway"
           id="path4279" />
        <path
           d="m 345.80267,212.32958 c 1.75194,-0.0495 3.1886,-0.69742 4.30999,-1.94378 1.12135,-1.24637 1.70092,-2.79425 1.73868,-4.64365 -0.0199,-1.77745 -0.53723,-3.31615 -1.55196,-4.61609 -1.01476,-1.29993 -2.40754,-1.98152 -4.17836,-2.0448 -1.04026,0.0112 -1.95348,0.26429 -2.73966,0.75915 -0.78619,0.49488 -1.4484,1.16424 -1.98664,2.00806 l 0,-7.64043 -2.15499,0 0,17.87665 1.91011,0 0,-2.39988 c 0.47701,0.79588 1.12086,1.43259 1.93153,1.91011 0.81067,0.47753 1.71777,0.72241 2.7213,0.73466 z m -0.53875,-1.86113 c -0.81629,-0.0173 -1.61421,-0.28876 -2.39376,-0.81425 -0.77956,-0.52548 -1.27137,-1.20096 -1.47544,-2.02643 l 0,-3.69777 c 0.38672,-0.83158 0.92954,-1.53155 1.62849,-2.0999 0.69894,-0.56833 1.51115,-0.86423 2.43662,-0.88771 1.25656,0.0439 2.26365,0.53162 3.02127,1.4632 0.75761,0.93159 1.14636,2.04378 1.16627,3.33656 -0.022,1.26831 -0.43111,2.36213 -1.22749,3.28147 -0.7964,0.91935 -1.84838,1.40095 -3.15596,1.44483 z"
           style="font-size:24.48888779px;text-align:start;line-height:125%;writing-mode:lr-tb;text-anchor:start;font-family:Raleway;-inkscape-font-specification:Raleway"
           id="path4281" />
        <path
           d="m 360.15547,212.32958 c 1.30553,-0.0168 2.45344,-0.31988 3.4437,-0.90914 0.99025,-0.58926 1.70348,-1.36371 2.13969,-2.32335 l -1.86113,-0.51426 c -0.28979,0.64589 -0.76936,1.16015 -1.4387,1.54278 -0.66937,0.38263 -1.40606,0.57854 -2.2101,0.58772 -1.14229,-0.0209 -2.11469,-0.41987 -2.9172,-1.19688 -0.80251,-0.77699 -1.26678,-1.80653 -1.39279,-3.08862 l 10.60356,0 c 0.0127,-0.0775 0.024,-0.19182 0.0337,-0.34284 0.01,-0.151 0.0148,-0.31426 0.0153,-0.48977 -0.0245,-1.77133 -0.6061,-3.28554 -1.74481,-4.54263 -1.13873,-1.25707 -2.68763,-1.91418 -4.6467,-1.97133 -1.9545,0.0505 -3.52483,0.70253 -4.71099,1.95603 -1.18617,1.25351 -1.79532,2.80548 -1.82746,4.65589 0.0311,1.85144 0.63619,3.40748 1.81521,4.66813 1.17902,1.26065 2.74527,1.91674 4.69875,1.96827 z m -4.2855,-7.4935 c 0.11223,-1.2331 0.56731,-2.2259 1.36524,-2.97843 0.79791,-0.7525 1.77949,-1.13921 2.94475,-1.16014 1.16421,0.0194 2.14784,0.40305 2.95087,1.15096 0.80301,0.74793 1.27237,1.7438 1.40809,2.98761 z"
           style="font-size:24.48888779px;text-align:start;line-height:125%;writing-mode:lr-tb;text-anchor:start;font-family:Raleway;-inkscape-font-specification:Raleway"
           id="path4283" />
        <path
           d="m 375.70092,199.22819 c -0.0847,-0.0117 -0.18469,-0.0189 -0.29998,-0.0214 -0.11531,-0.003 -0.25204,-0.004 -0.41019,-0.003 -0.82037,0.0174 -1.58564,0.30714 -2.2958,0.86935 -0.71017,0.56223 -1.29178,1.2928 -1.74481,2.19173 l 0,-2.96312 -2.00806,0 0,12.78303 2.15499,0 0,-7.88532 c 0.35712,-0.93668 0.94077,-1.66521 1.75093,-2.1856 0.81016,-0.52037 1.76113,-0.79587 2.85292,-0.82649 z"
           style="font-size:24.48888779px;text-align:start;line-height:125%;writing-mode:lr-tb;text-anchor:start;font-family:Raleway;-inkscape-font-specification:Raleway"
           id="path4285" />
        <path
           d="m 394.3438,212.08469 0,-1.95908 -8.3506,0 c 0.22141,-0.91934 0.77036,-1.70093 1.64685,-2.34478 0.87649,-0.64384 1.70706,-1.14382 2.49172,-1.49993 0.79638,-0.33977 1.63409,-0.86015 2.51314,-1.56115 0.87902,-0.70097 1.35553,-1.67439 1.42952,-2.92026 -0.0148,-1.11779 -0.4505,-2.04733 -1.30708,-2.78863 -0.8566,-0.74128 -2.04532,-1.12595 -3.56615,-1.15403 -1.52646,0.0617 -2.76517,0.37908 -3.71614,0.952 -0.95097,0.57294 -1.56523,1.03108 -1.84276,1.37442 l 1.39584,1.56727 c 0.30101,-0.40406 0.75813,-0.82648 1.37136,-1.26729 0.61323,-0.44078 1.41319,-0.67954 2.39988,-0.71629 0.95811,0.0245 1.68665,0.26327 2.18561,0.71629 0.49894,0.45305 0.74995,0.97343 0.75302,1.56115 -0.0587,0.84537 -0.53518,1.53615 -1.42952,2.07234 -0.89435,0.53621 -1.8545,1.06169 -2.88047,1.57646 -1.61267,0.91679 -2.69119,1.88715 -3.23555,2.91107 -0.54436,1.02394 -0.79639,2.18408 -0.75608,3.48044 z"
           style="font-size:24.48888779px;text-align:start;line-height:125%;writing-mode:lr-tb;text-anchor:start;font-family:Raleway;-inkscape-font-specification:Raleway"
           id="path4287" />
        <path
           d="m 409.35355,204.90954 c -0.0362,-2.1958 -0.62498,-3.9753 -1.76624,-5.33851 -1.14128,-1.36318 -2.61773,-2.06519 -4.42937,-2.10601 -1.82236,0.0408 -3.30188,0.74283 -4.43855,2.10601 -1.13668,1.36321 -1.72237,3.14271 -1.75706,5.33851 0.0347,2.19479 0.62038,3.97021 1.75706,5.32627 1.13667,1.35605 2.61619,2.05397 4.43855,2.09377 1.81164,-0.0398 3.28809,-0.73772 4.42937,-2.09377 1.14126,-1.35606 1.73001,-3.13148 1.76624,-5.32627 z m -2.17948,0 c -0.0204,1.63972 -0.39591,2.94578 -1.12647,3.91817 -0.73059,0.97241 -1.69381,1.47034 -2.88966,1.49381 -1.21831,-0.0235 -2.19173,-0.5214 -2.92026,-1.49381 -0.72854,-0.97239 -1.10199,-2.27845 -1.12035,-3.91817 0.0184,-1.64072 0.39181,-2.95086 1.12035,-3.93041 0.72853,-0.97954 1.70195,-1.48155 2.92026,-1.50605 1.19585,0.0245 2.15907,0.52651 2.88966,1.50605 0.73056,0.97955 1.10605,2.28969 1.12647,3.93041 z"
           style="font-size:24.48888779px;text-align:start;line-height:125%;writing-mode:lr-tb;text-anchor:start;font-family:Raleway;-inkscape-font-specification:Raleway"
           id="path4289" />
        <path
           d="m 417.97946,210.12561 0,-12.02389 -2.20397,0 c -0.16326,0.25765 -0.67548,0.6913 -1.53666,1.30095 -0.86118,0.60968 -1.67951,0.9515 -2.45497,1.02546 l 0,2.05704 c 0.68822,-0.0321 1.44227,-0.25559 2.26213,-0.67037 0.81985,-0.41477 1.39635,-0.82801 1.7295,-1.23974 l 0,9.55055 -3.47737,0 0,1.95908 8.79139,0 0,-1.95908 z"
           style="font-size:24.48888779px;text-align:start;line-height:125%;writing-mode:lr-tb;text-anchor:start;font-family:Raleway;-inkscape-font-specification:Raleway"
           id="path4291" />
        <path
           d="m 432.165,215.19474 0,-4.13857 2.155,0 0,-1.95908 -2.155,0 0,-10.99537 -1.46931,0 -8.54651,11.04434 0,1.91011 7.86083,0 0,4.13857 z m -1.93459,-13.76258 0,7.66493 -5.85277,0 z"
           style="font-size:24.48888779px;text-align:start;line-height:125%;writing-mode:lr-tb;text-anchor:start;font-family:Raleway;-inkscape-font-specification:Raleway"
           id="path4293" />
        <path
           d="m 447.93053,203.58716 c -0.0163,-0.64231 -0.24081,-1.18208 -0.67344,-1.61931 -0.43264,-0.43721 -0.97546,-0.66475 -1.62849,-0.68262 -0.64232,0.0179 -1.18208,0.24541 -1.6193,0.68262 -0.43723,0.43723 -0.66477,0.977 -0.68262,1.61931 0.0179,0.65303 0.24539,1.19586 0.68262,1.62849 0.43722,0.43264 0.97698,0.65711 1.6193,0.67343 0.65303,-0.0163 1.19586,-0.24079 1.62849,-0.67343 0.43263,-0.43263 0.65711,-0.97546 0.67344,-1.62849 z"
           style="font-size:24.48888779px;text-align:start;line-height:125%;writing-mode:lr-tb;text-anchor:start;font-family:Raleway;-inkscape-font-specification:Raleway"
           id="path4295" />
        <path
           d="m 470.15105,212.08469 0,-1.95908 -9.69747,0 0,-15.4278 -2.20398,0 0,17.38688 z"
           style="font-size:24.48888779px;text-align:start;line-height:125%;writing-mode:lr-tb;text-anchor:start;font-family:Raleway;-inkscape-font-specification:Raleway"
           id="path4297" />
        <path
           d="m 474.45739,212.08469 0,-12.78303 -2.15499,0 0,12.78303 z m 0,-15.18291 0,-2.69374 -2.15499,0 0,2.69374 z"
           style="font-size:24.48888779px;text-align:start;line-height:125%;writing-mode:lr-tb;text-anchor:start;font-family:Raleway;-inkscape-font-specification:Raleway"
           id="path4299" />
        <path
           d="m 483.9728,209.73379 c -0.13214,0.0867 -0.36988,0.19489 -0.71323,0.32447 -0.34335,0.12959 -0.73415,0.20102 -1.17239,0.21428 -0.38927,0.002 -0.71884,-0.10612 -0.98872,-0.32448 -0.26989,-0.21835 -0.42192,-0.55915 -0.4561,-1.02239 l 0,-7.9343 2.86516,0 0,-1.68971 -2.86516,0 0,-4.26101 -2.155,0 0,4.26101 -1.73868,0 0,1.68971 1.73868,0 0,8.59549 c 0.0224,0.91475 0.30815,1.58921 0.8571,2.02337 0.54895,0.43416 1.22647,0.64945 2.03256,0.64588 0.69587,-0.0184 1.31829,-0.12244 1.86725,-0.31223 0.54894,-0.18978 0.96321,-0.35508 1.24279,-0.49589 z"
           style="font-size:24.48888779px;text-align:start;line-height:125%;writing-mode:lr-tb;text-anchor:start;font-family:Raleway;-inkscape-font-specification:Raleway"
           id="path4301" />
        <path
           d="m 492.0702,212.32958 c 1.30554,-0.0168 2.45344,-0.31988 3.44371,-0.90914 0.99024,-0.58926 1.70347,-1.36371 2.13969,-2.32335 l -1.86114,-0.51426 c -0.28979,0.64589 -0.76936,1.16015 -1.4387,1.54278 -0.66936,0.38263 -1.40606,0.57854 -2.21009,0.58772 -1.1423,-0.0209 -2.1147,-0.41987 -2.9172,-1.19688 -0.80252,-0.77699 -1.26678,-1.80653 -1.39279,-3.08862 l 10.60355,0 c 0.0127,-0.0775 0.024,-0.19182 0.0337,-0.34284 0.01,-0.151 0.0148,-0.31426 0.0153,-0.48977 -0.0245,-1.77133 -0.60611,-3.28554 -1.74481,-4.54263 -1.13873,-1.25707 -2.68763,-1.91418 -4.64671,-1.97133 -1.9545,0.0505 -3.52483,0.70253 -4.71099,1.95603 -1.18617,1.25351 -1.79532,2.80548 -1.82746,4.65589 0.0311,1.85144 0.63619,3.40748 1.81522,4.66813 1.17902,1.26065 2.74526,1.91674 4.69874,1.96827 z m -4.2855,-7.4935 c 0.11224,-1.2331 0.56732,-2.2259 1.36524,-2.97843 0.79791,-0.7525 1.7795,-1.13921 2.94475,-1.16014 1.16422,0.0194 2.14784,0.40305 2.95087,1.15096 0.80301,0.74793 1.27238,1.7438 1.4081,2.98761 z"
           style="font-size:24.48888779px;text-align:start;line-height:125%;writing-mode:lr-tb;text-anchor:start;font-family:Raleway;-inkscape-font-specification:Raleway"
           id="path4303" />
        <path
           d="m 507.61567,199.22819 c -0.0847,-0.0117 -0.18469,-0.0189 -0.29998,-0.0214 -0.11531,-0.003 -0.25204,-0.004 -0.41019,-0.003 -0.82037,0.0174 -1.58564,0.30714 -2.2958,0.86935 -0.71017,0.56223 -1.29178,1.2928 -1.74481,2.19173 l 0,-2.96312 -2.00806,0 0,12.78303 2.15499,0 0,-7.88532 c 0.35712,-0.93668 0.94076,-1.66521 1.75093,-2.1856 0.81016,-0.52037 1.76113,-0.79587 2.85292,-0.82649 z"
           style="font-size:24.48888779px;text-align:start;line-height:125%;writing-mode:lr-tb;text-anchor:start;font-family:Raleway;-inkscape-font-specification:Raleway"
           id="path4305" />
        <path
           d="m 513.15823,212.32958 c 0.89076,-0.002 1.77235,-0.2005 2.64476,-0.59691 0.8724,-0.39641 1.60705,-0.98107 2.20397,-1.75399 l 0.049,0.90607 c 0.0444,0.46121 0.2311,0.79384 0.56018,0.99791 0.32905,0.20407 0.68107,0.30407 1.05607,0.29999 0.12396,-0.001 0.26171,-0.0112 0.41324,-0.0306 0.15151,-0.0194 0.30763,-0.0418 0.46834,-0.0674 l 0,-1.86113 c -0.24285,-0.01 -0.41835,-0.076 -0.5265,-0.19897 -0.10817,-0.12295 -0.16123,-0.31784 -0.15918,-0.58466 l 0,-5.21607 c -0.0168,-1.62848 -0.49131,-2.88964 -1.42339,-3.78348 -0.93211,-0.89382 -2.22082,-1.34686 -3.86614,-1.35912 -0.87802,5.2e-4 -1.73002,0.14031 -2.55599,0.41937 -0.82598,0.27908 -1.64737,0.69436 -2.46416,1.24585 l 0.71016,1.39585 c 0.69741,-0.49078 1.38411,-0.86219 2.0601,-1.11423 0.67599,-0.25201 1.34432,-0.37854 2.00501,-0.37957 1.07289,0.01 1.90244,0.30867 2.48865,0.89689 0.58618,0.58825 0.88311,1.4076 0.89077,2.45804 l 0,1.02852 c -0.49947,-0.19794 -1.06169,-0.35303 -1.68665,-0.46528 -0.62498,-0.11223 -1.25454,-0.16937 -1.88868,-0.17142 -1.60656,0.0158 -2.89935,0.38213 -3.87838,1.09893 -0.97903,0.7168 -1.48207,1.6892 -1.50911,2.9172 0.023,1.11678 0.4362,2.04224 1.23974,2.77639 0.80353,0.73415 1.85959,1.11474 3.16821,1.14178 z m 0.53874,-1.61625 c -0.91322,-0.0214 -1.62135,-0.27243 -2.12438,-0.75302 -0.50304,-0.48059 -0.75813,-1.06219 -0.76527,-1.74481 0.0153,-0.78006 0.35202,-1.39329 1.01016,-1.83971 0.65812,-0.4464 1.54583,-0.67394 2.66313,-0.68261 0.53262,0.001 1.07749,0.0541 1.63461,0.15917 0.55711,0.1051 1.08973,0.25612 1.59788,0.45304 l 0,1.88562 c 5e-4,0.13673 -0.0373,0.29183 -0.11326,0.46528 -0.076,0.17347 -0.19337,0.35305 -0.35202,0.53875 -0.38367,0.43825 -0.89589,0.79843 -1.53666,1.08056 -0.64079,0.28213 -1.31219,0.42804 -2.01419,0.43773 z"
           style="font-size:24.48888779px;text-align:start;line-height:125%;writing-mode:lr-tb;text-anchor:start;font-family:Raleway;-inkscape-font-specification:Raleway"
           id="path4307" />
        <path
           d="m 529.45901,209.73379 c -0.13214,0.0867 -0.36989,0.19489 -0.71323,0.32447 -0.34336,0.12959 -0.73415,0.20102 -1.17239,0.21428 -0.38927,0.002 -0.71885,-0.10612 -0.98873,-0.32448 -0.26989,-0.21835 -0.42192,-0.55915 -0.4561,-1.02239 l 0,-7.9343 2.86517,0 0,-1.68971 -2.86517,0 0,-4.26101 -2.15499,0 0,4.26101 -1.73869,0 0,1.68971 1.73869,0 0,8.59549 c 0.0225,0.91475 0.30815,1.58921 0.8571,2.02337 0.54895,0.43416 1.22646,0.64945 2.03255,0.64588 0.69588,-0.0184 1.3183,-0.12244 1.86726,-0.31223 0.54894,-0.18978 0.9632,-0.35508 1.24279,-0.49589 z"
           style="font-size:24.48888779px;text-align:start;line-height:125%;writing-mode:lr-tb;text-anchor:start;font-family:Raleway;-inkscape-font-specification:Raleway"
           id="path4309" />
        <path
           d="m 535.79323,212.32958 c 1.11524,-0.005 2.1356,-0.26427 3.06107,-0.77751 0.92546,-0.51324 1.67644,-1.24994 2.25295,-2.2101 l 0.0735,1.54278 c 0.0275,0.39692 0.18059,0.71119 0.45916,0.94281 0.27854,0.23162 0.66424,0.34999 1.15708,0.35509 0.10917,-0.001 0.23365,-0.0112 0.37345,-0.0306 0.13978,-0.0194 0.30099,-0.0418 0.48365,-0.0674 l 0,-1.86113 c -0.24286,-0.01 -0.41836,-0.076 -0.5265,-0.19897 -0.10817,-0.12295 -0.16123,-0.31784 -0.15918,-0.58466 l 0,-10.13827 -2.15499,0 0,8.00776 c -0.39744,0.98873 -0.97394,1.76012 -1.72951,2.31417 -0.75558,0.55406 -1.58309,0.83568 -2.48253,0.84486 -1.81216,0.004 -2.71823,-1.30198 -2.71823,-3.91817 l 0,-7.24862 -2.15499,0 0,7.66492 c 0.003,1.76624 0.34641,3.10087 1.03158,4.00388 0.68516,0.90302 1.69634,1.35606 3.03352,1.35912 z"
           style="font-size:24.48888779px;text-align:start;line-height:125%;writing-mode:lr-tb;text-anchor:start;font-family:Raleway;-inkscape-font-specification:Raleway"
           id="path4311" />
        <path
           d="m 553.38883,199.22819 c -0.0847,-0.0117 -0.18469,-0.0189 -0.29998,-0.0214 -0.11531,-0.003 -0.25204,-0.004 -0.41018,-0.003 -0.82038,0.0174 -1.58565,0.30714 -2.29581,0.86935 -0.71017,0.56223 -1.29177,1.2928 -1.74481,2.19173 l 0,-2.96312 -2.00806,0 0,12.78303 2.15499,0 0,-7.88532 c 0.35712,-0.93668 0.94077,-1.66521 1.75094,-2.1856 0.81015,-0.52037 1.76112,-0.79587 2.85291,-0.82649 z"
           style="font-size:24.48888779px;text-align:start;line-height:125%;writing-mode:lr-tb;text-anchor:start;font-family:Raleway;-inkscape-font-specification:Raleway"
           id="path4313" />
        <path
           d="m 566.57185,204.44426 c 0.0214,-1.55196 -0.27244,-2.82536 -0.88159,-3.82022 -0.60916,-0.99483 -1.66217,-1.50909 -3.15902,-1.54278 -1.03057,0.009 -1.97542,0.27296 -2.83455,0.79282 -0.85915,0.51988 -1.54687,1.24331 -2.06317,2.1703 l 0,-7.83634 -2.15499,0 0,17.87665 2.15499,0 0,-7.7139 c 0.31121,-0.98616 0.852,-1.78714 1.62237,-2.40294 0.77037,-0.61577 1.59277,-0.9331 2.46723,-0.95199 0.8729,-5e-4 1.53919,0.32499 1.99888,0.97648 0.45966,0.65151 0.69128,1.63207 0.69486,2.94169 l 0,7.15066 2.15499,0 z"
           style="font-size:24.48888779px;text-align:start;line-height:125%;writing-mode:lr-tb;text-anchor:start;font-family:Raleway;-inkscape-font-specification:Raleway"
           id="path4315" />
        <path
           d="m 573.28036,212.32958 c 0.89076,-0.002 1.77235,-0.2005 2.64476,-0.59691 0.8724,-0.39641 1.60706,-0.98107 2.20397,-1.75399 l 0.049,0.90607 c 0.0444,0.46121 0.2311,0.79384 0.56018,0.99791 0.32905,0.20407 0.68107,0.30407 1.05607,0.29999 0.12396,-0.001 0.26171,-0.0112 0.41324,-0.0306 0.15151,-0.0194 0.30763,-0.0418 0.46835,-0.0674 l 0,-1.86113 c -0.24286,-0.01 -0.41836,-0.076 -0.52651,-0.19897 -0.10817,-0.12295 -0.16123,-0.31784 -0.15917,-0.58466 l 0,-5.21607 c -0.0168,-1.62848 -0.49132,-2.88964 -1.4234,-3.78348 -0.93211,-0.89382 -2.22082,-1.34686 -3.86614,-1.35912 -0.87802,5.2e-4 -1.73002,0.14031 -2.55599,0.41937 -0.82598,0.27908 -1.64737,0.69436 -2.46416,1.24585 l 0.71017,1.39585 c 0.69741,-0.49078 1.38411,-0.86219 2.0601,-1.11423 0.67598,-0.25201 1.34431,-0.37854 2.005,-0.37957 1.0729,0.01 1.90245,0.30867 2.48865,0.89689 0.58618,0.58825 0.88311,1.4076 0.89077,2.45804 l 0,1.02852 c -0.49947,-0.19794 -1.06169,-0.35303 -1.68665,-0.46528 -0.62498,-0.11223 -1.25454,-0.16937 -1.88868,-0.17142 -1.60656,0.0158 -2.89935,0.38213 -3.87838,1.09893 -0.97903,0.7168 -1.48207,1.6892 -1.50911,2.9172 0.023,1.11678 0.43621,2.04224 1.23974,2.77639 0.80353,0.73415 1.8596,1.11474 3.16821,1.14178 z m 0.53875,-1.61625 c -0.91323,-0.0214 -1.62136,-0.27243 -2.12439,-0.75302 -0.50304,-0.48059 -0.75813,-1.06219 -0.76527,-1.74481 0.0153,-0.78006 0.35202,-1.39329 1.01016,-1.83971 0.65812,-0.4464 1.54583,-0.67394 2.66313,-0.68261 0.53262,0.001 1.07749,0.0541 1.63461,0.15917 0.55711,0.1051 1.08973,0.25612 1.59788,0.45304 l 0,1.88562 c 5e-4,0.13673 -0.0372,0.29183 -0.11326,0.46528 -0.076,0.17347 -0.19337,0.35305 -0.35202,0.53875 -0.38366,0.43825 -0.89588,0.79843 -1.53666,1.08056 -0.64079,0.28213 -1.31219,0.42804 -2.01418,0.43773 z"
           style="font-size:24.48888779px;text-align:start;line-height:125%;writing-mode:lr-tb;text-anchor:start;font-family:Raleway;-inkscape-font-specification:Raleway"
           id="path4317" />
        <path
           d="m 587.40166,212.32958 c 1.11524,-0.005 2.1356,-0.26427 3.06107,-0.77751 0.92546,-0.51324 1.67644,-1.24994 2.25295,-2.2101 l 0.0735,1.54278 c 0.0275,0.39692 0.1806,0.71119 0.45917,0.94281 0.27854,0.23162 0.66424,0.34999 1.15708,0.35509 0.10917,-0.001 0.23365,-0.0112 0.37345,-0.0306 0.13978,-0.0194 0.30099,-0.0418 0.48365,-0.0674 l 0,-1.86113 c -0.24286,-0.01 -0.41836,-0.076 -0.5265,-0.19897 -0.10817,-0.12295 -0.16123,-0.31784 -0.15918,-0.58466 l 0,-10.13827 -2.15499,0 0,8.00776 c -0.39744,0.98873 -0.97395,1.76012 -1.72951,2.31417 -0.75558,0.55406 -1.58309,0.83568 -2.48253,0.84486 -1.81216,0.004 -2.71823,-1.30198 -2.71823,-3.91817 l 0,-7.24862 -2.15499,0 0,7.66492 c 0.003,1.76624 0.34641,3.10087 1.03158,4.00388 0.68516,0.90302 1.69634,1.35606 3.03352,1.35912 z"
           style="font-size:24.48888779px;text-align:start;line-height:125%;writing-mode:lr-tb;text-anchor:start;font-family:Raleway;-inkscape-font-specification:Raleway"
           id="path4319" />
        <path
           d="m 602.7688,212.32958 c 1.56114,-0.0138 2.79169,-0.3658 3.69166,-1.05607 0.89994,-0.69027 1.3591,-1.63614 1.37748,-2.83761 0.004,-1.05607 -0.40765,-1.8397 -1.23361,-2.35091 -0.82599,-0.51119 -2.08817,-0.95198 -3.78655,-1.32238 -1.07903,-0.24437 -1.85348,-0.4964 -2.32335,-0.75608 -0.46988,-0.25968 -0.69946,-0.677 -0.68874,-1.25198 0.0194,-0.73057 0.29283,-1.26524 0.82036,-1.604 0.52752,-0.33875 1.1928,-0.50609 1.99582,-0.50202 0.70455,-5e-4 1.38921,0.11684 2.05398,0.35202 0.66475,0.23521 1.26983,0.59131 1.81522,1.06832 l 0.97954,-1.2979 c -0.58417,-0.50965 -1.28923,-0.91678 -2.1152,-1.22137 -0.82599,-0.30456 -1.72084,-0.46067 -2.68456,-0.46834 -1.3933,0.005 -2.54937,0.34438 -3.4682,1.01934 -0.91883,0.67498 -1.39533,1.65758 -1.42952,2.94781 -0.0102,0.97088 0.33468,1.68615 1.03465,2.14581 0.69996,0.45968 1.81623,0.86272 3.34881,1.20912 1.22136,0.2704 2.12744,0.5561 2.71823,0.8571 0.59078,0.30101 0.88464,0.75813 0.88159,1.37136 -0.0117,0.6663 -0.28826,1.1826 -0.82955,1.54891 -0.54131,0.36631 -1.27698,0.55201 -2.20703,0.55711 -0.81732,-0.001 -1.60707,-0.14591 -2.36927,-0.43467 -0.76221,-0.28876 -1.51524,-0.71527 -2.25907,-1.27953 l -0.93057,1.44483 c 0.72802,0.60252 1.58614,1.0627 2.57436,1.38054 0.98821,0.31784 1.99939,0.47804 3.03352,0.48059 z"
           style="font-size:24.48888779px;text-align:start;line-height:125%;writing-mode:lr-tb;text-anchor:start;font-family:Raleway;-inkscape-font-specification:Raleway"
           id="path4321" />
        <path
           d="m 628.14264,196.55894 c -0.73518,-0.60761 -1.57901,-1.0882 -2.5315,-1.44177 -0.95252,-0.35353 -2.01063,-0.53414 -3.17434,-0.54181 -1.83511,0.006 -3.32585,0.44694 -4.47222,1.32239 -1.14638,0.87548 -1.73716,2.14888 -1.77236,3.82021 0.003,1.34791 0.4561,2.3499 1.35911,3.00598 0.90302,0.65609 2.23764,1.18056 4.00389,1.57339 1.62338,0.35917 2.86413,0.76731 3.72226,1.22443 0.85811,0.45712 1.29074,1.15913 1.29789,2.10601 -0.009,0.87088 -0.35254,1.52901 -1.03158,1.97439 -0.67906,0.44539 -1.64125,0.66885 -2.88659,0.67038 -1.34433,-0.0281 -2.55549,-0.27805 -3.63349,-0.74996 -1.07801,-0.47192 -1.89124,-0.9974 -2.43967,-1.57646 l -1.05301,1.86114 c 0.98515,0.79843 2.07591,1.40554 3.27228,1.82133 1.19637,0.4158 2.46467,0.62497 3.80491,0.62752 1.82745,0.008 3.32738,-0.3811 4.49978,-1.16627 1.17238,-0.78516 1.77847,-2.01265 1.81828,-3.68246 -0.0184,-1.52798 -0.54489,-2.64731 -1.57952,-3.358 -1.03465,-0.71067 -2.46723,-1.2484 -4.29774,-1.61318 -1.56217,-0.32192 -2.71722,-0.68823 -3.46513,-1.09893 -0.74793,-0.41068 -1.11934,-1.06473 -1.11423,-1.96215 -0.005,-0.88973 0.3112,-1.58358 0.94893,-2.08152 0.63772,-0.49792 1.62746,-0.75097 2.96924,-0.75915 1.05708,0.0189 2.00397,0.20766 2.84067,0.5663 0.83668,0.35867 1.46522,0.77395 1.88562,1.24585 z"
           style="font-size:24.48888779px;text-align:start;line-height:125%;writing-mode:lr-tb;text-anchor:start;font-family:Raleway;-inkscape-font-specification:Raleway"
           id="path4323" />
        <path
           d="m 637.60232,209.73379 c -0.13214,0.0867 -0.36989,0.19489 -0.71323,0.32447 -0.34336,0.12959 -0.73415,0.20102 -1.17239,0.21428 -0.38927,0.002 -0.71885,-0.10612 -0.98873,-0.32448 -0.26988,-0.21835 -0.42192,-0.55915 -0.45609,-1.02239 l 0,-7.9343 2.86516,0 0,-1.68971 -2.86516,0 0,-4.26101 -2.155,0 0,4.26101 -1.73869,0 0,1.68971 1.73869,0 0,8.59549 c 0.0224,0.91475 0.30815,1.58921 0.8571,2.02337 0.54895,0.43416 1.22647,0.64945 2.03255,0.64588 0.69588,-0.0184 1.3183,-0.12244 1.86726,-0.31223 0.54894,-0.18978 0.96321,-0.35508 1.24279,-0.49589 z"
           style="font-size:24.48888779px;text-align:start;line-height:125%;writing-mode:lr-tb;text-anchor:start;font-family:Raleway;-inkscape-font-specification:Raleway"
           id="path4325" />
        <path
           d="m 643.93654,212.32958 c 1.11524,-0.005 2.1356,-0.26427 3.06107,-0.77751 0.92546,-0.51324 1.67644,-1.24994 2.25295,-2.2101 l 0.0735,1.54278 c 0.0275,0.39692 0.18059,0.71119 0.45916,0.94281 0.27854,0.23162 0.66424,0.34999 1.15708,0.35509 0.10917,-0.001 0.23365,-0.0112 0.37345,-0.0306 0.13978,-0.0194 0.30099,-0.0418 0.48365,-0.0674 l 0,-1.86113 c -0.24286,-0.01 -0.41836,-0.076 -0.5265,-0.19897 -0.10817,-0.12295 -0.16123,-0.31784 -0.15918,-0.58466 l 0,-10.13827 -2.15499,0 0,8.00776 c -0.39744,0.98873 -0.97394,1.76012 -1.72951,2.31417 -0.75558,0.55406 -1.58309,0.83568 -2.48253,0.84486 -1.81216,0.004 -2.71823,-1.30198 -2.71823,-3.91817 l 0,-7.24862 -2.15499,0 0,7.66492 c 0.003,1.76624 0.34641,3.10087 1.03158,4.00388 0.68517,0.90302 1.69634,1.35606 3.03352,1.35912 z"
           style="font-size:24.48888779px;text-align:start;line-height:125%;writing-mode:lr-tb;text-anchor:start;font-family:Raleway;-inkscape-font-specification:Raleway"
           id="path4327" />
        <path
           d="m 660.89544,209.73379 c -0.13214,0.0867 -0.36989,0.19489 -0.71323,0.32447 -0.34335,0.12959 -0.73415,0.20102 -1.17239,0.21428 -0.38927,0.002 -0.71885,-0.10612 -0.98872,-0.32448 -0.26989,-0.21835 -0.42193,-0.55915 -0.4561,-1.02239 l 0,-7.9343 2.86516,0 0,-1.68971 -2.86516,0 0,-4.26101 -2.155,0 0,4.26101 -1.73869,0 0,1.68971 1.73869,0 0,8.59549 c 0.0225,0.91475 0.30815,1.58921 0.8571,2.02337 0.54895,0.43416 1.22647,0.64945 2.03255,0.64588 0.69588,-0.0184 1.3183,-0.12244 1.86726,-0.31223 0.54894,-0.18978 0.96321,-0.35508 1.24279,-0.49589 z"
           style="font-size:24.48888779px;text-align:start;line-height:125%;writing-mode:lr-tb;text-anchor:start;font-family:Raleway;-inkscape-font-specification:Raleway"
           id="path4329" />
        <path
           d="m 669.40918,209.73379 c -0.13215,0.0867 -0.36989,0.19489 -0.71324,0.32447 -0.34335,0.12959 -0.73415,0.20102 -1.17238,0.21428 -0.38928,0.002 -0.71885,-0.10612 -0.98873,-0.32448 -0.26989,-0.21835 -0.42192,-0.55915 -0.4561,-1.02239 l 0,-7.9343 2.86516,0 0,-1.68971 -2.86516,0 0,-4.26101 -2.155,0 0,4.26101 -1.73868,0 0,1.68971 1.73868,0 0,8.59549 c 0.0225,0.91475 0.30815,1.58921 0.8571,2.02337 0.54895,0.43416 1.22647,0.64945 2.03256,0.64588 0.69587,-0.0184 1.31829,-0.12244 1.86725,-0.31223 0.54894,-0.18978 0.96321,-0.35508 1.2428,-0.49589 z"
           style="font-size:24.48888779px;text-align:start;line-height:125%;writing-mode:lr-tb;text-anchor:start;font-family:Raleway;-inkscape-font-specification:Raleway"
           id="path4331" />
        <path
           d="m 676.91885,212.23162 c 0.9229,-0.008 1.78918,-0.23672 2.59885,-0.68568 0.80964,-0.44895 1.46165,-1.06933 1.95602,-1.86113 l 0,2.25295 c -0.0347,1.33208 -0.46733,2.32284 -1.29789,2.9723 -0.83058,0.64946 -1.85094,0.97291 -3.06108,0.97036 -0.93057,-5.1e-4 -1.79379,-0.18928 -2.58966,-0.5663 -0.79588,-0.37702 -1.45095,-0.93924 -1.96521,-1.68665 l -1.24892,1.10199 c 0.5862,0.87801 1.34228,1.56471 2.26826,2.0601 0.92597,0.49538 2.10448,0.74741 3.53553,0.75608 1.85705,-0.007 3.39574,-0.48875 4.6161,-1.44482 1.22033,-0.95608 1.85296,-2.34376 1.89786,-4.16306 l 0,-12.6361 -1.9101,0 0,2.54681 c -0.53723,-0.81168 -1.20148,-1.47185 -1.99276,-1.98051 -0.7913,-0.50864 -1.7188,-0.77087 -2.78252,-0.7867 -1.77899,0.0515 -3.20443,0.70763 -4.27631,1.96827 -1.07189,1.26066 -1.62186,2.8167 -1.64992,4.66813 0.0286,1.76064 0.57752,3.27178 1.64686,4.53345 1.06933,1.26167 2.48762,1.92184 4.25489,1.98051 z m 0.66119,-1.76317 c -1.25403,-0.0367 -2.29071,-0.50202 -3.11005,-1.39585 -0.81935,-0.89383 -1.24382,-1.99582 -1.27341,-3.30596 0.0122,-1.24023 0.38569,-2.3412 1.12036,-3.30289 0.73465,-0.96168 1.75704,-1.4688 3.06719,-1.52136 0.86678,0.0158 1.67389,0.29643 2.42131,0.8418 0.7474,0.54539 1.30349,1.26066 1.66828,2.14581 l 0,3.67328 c -0.19898,0.7515 -0.66426,1.40963 -1.39585,1.97439 -0.7316,0.56477 -1.56421,0.8617 -2.49783,0.89078 z"
           style="font-size:24.48888779px;text-align:start;line-height:125%;writing-mode:lr-tb;text-anchor:start;font-family:Raleway;-inkscape-font-specification:Raleway"
           id="path4333" />
        <path
           d="m 690.46352,212.32958 c 0.89077,-0.002 1.77236,-0.2005 2.64477,-0.59691 0.8724,-0.39641 1.60705,-0.98107 2.20397,-1.75399 l 0.049,0.90607 c 0.0444,0.46121 0.2311,0.79384 0.56017,0.99791 0.32906,0.20407 0.68108,0.30407 1.05607,0.29999 0.12397,-0.001 0.26171,-0.0112 0.41325,-0.0306 0.15151,-0.0194 0.30762,-0.0418 0.46834,-0.0674 l 0,-1.86113 c -0.24286,-0.01 -0.41836,-0.076 -0.5265,-0.19897 -0.10817,-0.12295 -0.16123,-0.31784 -0.15918,-0.58466 l 0,-5.21607 c -0.0169,-1.62848 -0.49131,-2.88964 -1.4234,-3.78348 -0.9321,-0.89382 -2.22081,-1.34686 -3.86613,-1.35912 -0.87802,5.2e-4 -1.73002,0.14031 -2.55599,0.41937 -0.82599,0.27908 -1.64737,0.69436 -2.46417,1.24585 l 0.71017,1.39585 c 0.69741,-0.49078 1.38411,-0.86219 2.0601,-1.11423 0.67598,-0.25201 1.34432,-0.37854 2.005,-0.37957 1.0729,0.01 1.90245,0.30867 2.48866,0.89689 0.58618,0.58825 0.8831,1.4076 0.89077,2.45804 l 0,1.02852 c -0.49948,-0.19794 -1.06169,-0.35303 -1.68665,-0.46528 -0.62498,-0.11223 -1.25454,-0.16937 -1.88868,-0.17142 -1.60656,0.0158 -2.89935,0.38213 -3.87838,1.09893 -0.97904,0.7168 -1.48207,1.6892 -1.50911,2.9172 0.023,1.11678 0.4362,2.04224 1.23973,2.77639 0.80353,0.73415 1.8596,1.11474 3.16821,1.14178 z m 0.53875,-1.61625 c -0.91322,-0.0214 -1.62135,-0.27243 -2.12438,-0.75302 -0.50304,-0.48059 -0.75813,-1.06219 -0.76527,-1.74481 0.0153,-0.78006 0.35202,-1.39329 1.01015,-1.83971 0.65813,-0.4464 1.54584,-0.67394 2.66314,-0.68261 0.53262,0.001 1.07749,0.0541 1.63461,0.15917 0.5571,0.1051 1.08973,0.25612 1.59788,0.45304 l 0,1.88562 c 5e-4,0.13673 -0.0373,0.29183 -0.11326,0.46528 -0.076,0.17347 -0.19337,0.35305 -0.35203,0.53875 -0.38366,0.43825 -0.89588,0.79843 -1.53665,1.08056 -0.6408,0.28213 -1.31219,0.42804 -2.01419,0.43773 z"
           style="font-size:24.48888779px;text-align:start;line-height:125%;writing-mode:lr-tb;text-anchor:start;font-family:Raleway;-inkscape-font-specification:Raleway"
           id="path4335" />
        <path
           d="m 707.40098,199.22819 c -0.0847,-0.0117 -0.18469,-0.0189 -0.29999,-0.0214 -0.1153,-0.003 -0.25203,-0.004 -0.41018,-0.003 -0.82037,0.0174 -1.58564,0.30714 -2.2958,0.86935 -0.71018,0.56223 -1.29178,1.2928 -1.74481,2.19173 l 0,-2.96312 -2.00807,0 0,12.78303 2.155,0 0,-7.88532 c 0.35712,-0.93668 0.94076,-1.66521 1.75093,-2.1856 0.81016,-0.52037 1.76113,-0.79587 2.85292,-0.82649 z"
           style="font-size:24.48888779px;text-align:start;line-height:125%;writing-mode:lr-tb;text-anchor:start;font-family:Raleway;-inkscape-font-specification:Raleway"
           id="path4337" />
        <path
           d="m 715.61282,209.73379 c -0.13215,0.0867 -0.36989,0.19489 -0.71323,0.32447 -0.34336,0.12959 -0.73415,0.20102 -1.17239,0.21428 -0.38927,0.002 -0.71885,-0.10612 -0.98873,-0.32448 -0.26989,-0.21835 -0.42192,-0.55915 -0.4561,-1.02239 l 0,-7.9343 2.86517,0 0,-1.68971 -2.86517,0 0,-4.26101 -2.15499,0 0,4.26101 -1.73869,0 0,1.68971 1.73869,0 0,8.59549 c 0.0224,0.91475 0.30814,1.58921 0.8571,2.02337 0.54895,0.43416 1.22646,0.64945 2.03255,0.64588 0.69588,-0.0184 1.3183,-0.12244 1.86725,-0.31223 0.54895,-0.18978 0.96321,-0.35508 1.2428,-0.49589 z"
           style="font-size:24.48888779px;text-align:start;line-height:125%;writing-mode:lr-tb;text-anchor:start;font-family:Raleway;-inkscape-font-specification:Raleway"
           id="path4339" />
      </g>
    </g>
  </g>
</svg>
