<?xml version="1.0" encoding="UTF-8" standalone="no"?>
<!-- Created with Inkscape (http://www.inkscape.org/) -->

<svg
   xmlns:dc="http://purl.org/dc/elements/1.1/"
   xmlns:cc="http://creativecommons.org/ns#"
   xmlns:rdf="http://www.w3.org/1999/02/22-rdf-syntax-ns#"
   xmlns:svg="http://www.w3.org/2000/svg"
   xmlns="http://www.w3.org/2000/svg"
   xmlns:sodipodi="http://sodipodi.sourceforge.net/DTD/sodipodi-0.dtd"
   xmlns:inkscape="http://www.inkscape.org/namespaces/inkscape"
   width="1200"
   height="414"
   id="svg2"
   version="1.1"
   inkscape:version="0.48.4 r9939"
   sodipodi:docname="Neues Dokument 1">
  <defs
     id="defs4" />
  <sodipodi:namedview
     id="base"
     pagecolor="#ffffff"
     bordercolor="#666666"
     borderopacity="1.0"
     inkscape:pageopacity="0.0"
     inkscape:pageshadow="2"
     inkscape:zoom="0.82665746"
     inkscape:cx="539.50472"
     inkscape:cy="199.57048"
     inkscape:document-units="px"
     inkscape:current-layer="layer1"
     showgrid="false"
     inkscape:window-width="1024"
     inkscape:window-height="553"
     inkscape:window-x="0"
     inkscape:window-y="22"
     inkscape:window-maximized="1" />
  <metadata
     id="metadata7">
    <rdf:RDF>
      <cc:Work
         rdf:about="">
        <dc:format>image/svg+xml</dc:format>
        <dc:type
           rdf:resource="http://purl.org/dc/dcmitype/StillImage" />
        <dc:title></dc:title>
      </cc:Work>
    </rdf:RDF>
  </metadata>
  <g
     inkscape:label="Ebene 1"
     inkscape:groupmode="layer"
     id="layer1"
     transform="translate(0,-638.36218)">
    <rect
       style="fill:#ffffd4;fill-opacity:1;stroke:none;stroke-width:0.70866119999999999;stroke-miterlimit:10;stroke-opacity:1;stroke-dasharray:none;stroke-dashoffset:0"
       id="rect2985"
       width="1214.2858"
       height="428.57144"
       x="-2.8571429"
       y="-11.714286"
       transform="translate(0,638.36218)" />
    <g
       transform="matrix(1.1433757,0,0,1.1433757,143.51931,680.52302)"
       id="g1361">
      <path
         inkscape:connector-curvature="0"
         style="fill:#4d4d4d"
         d="m 365.28125,289.84375 -11.875,3.1875 c 0,0 -12.7012,-5.54222 -31.71875,6.34375 -1.11546,5.73251 0,7.90625 0,7.90625 0,0 7.6771,-3.8142 9.25,1.125 -0.32728,0.10594 -3.47591,1.125 -7,1.125 -1.31365,0 -4.59137,-0.11596 -6.15625,-1.59375 -2.86235,-2.70268 -3.84375,-7.5625 -3.84375,-7.5625 0,0 -2.74505,11.59375 9.71875,11.59375 5.58073,0 7.10733,-0.67551 7.53125,-1.125 -0.21881,7.31426 -6.3125,2 -6.3125,2 l 0,7.90625 c 0,0 9.85172,-1.31548 11.59375,-2.75 -0.52444,1.74354 -1.5625,6.59375 -1.5625,6.59375 l -16.375,-0.65625 c 0,0 -18.23409,-15.8613 -23.78125,3.15625 l 12.6875,0.78125 29.3125,19.03125 -13.46875,10.3125 c 0,0 -20.6036,-6.84871 -19.8125,9 l 26.65625,0.46875 41.5,-9.46875 0,-4.75 c 0,0 11.09044,-0.8125 13.46875,-0.8125 2.37496,0 38.84375,-17.4375 38.84375,-17.4375 l 3.15625,0.8125 -3.15625,22.1875 -11.90625,-0.8125 c -3.26153,1.52246 -4.28215,5.01653 -4.75,7.9375 l 28.53125,0 c 0,0 0.77794,-8.72477 3.15625,-12.6875 2.37608,-3.96273 9.53125,-12.6875 9.53125,-12.6875 0,0 7.90133,11.10909 26.125,16.65625 -13.10081,0.51028 -10.28125,8.71875 -10.28125,8.71875 l 22.1875,0.78125 c 0,0 1.57291,-17.4375 0.78125,-17.4375 -0.79165,0 -2.5162,-5.35794 -11.09375,-2.375 0.0938,-5.40702 -2.41531,-23.91042 -9.5,-24.5625 4.10343,-4.00963 9.35333,-6.79839 7.90625,-18.21875 -3.9605,-15.05482 -22.1875,-11.875 -22.1875,-11.875 l -45.15625,12.65625 c 0,0 -17.43308,4.75439 -19.8125,0 -2.37496,-4.75383 3.96875,-13.46875 3.96875,-13.46875 0,0 -17.4501,4.78012 -14.28125,15.875 3.17108,11.09264 25.375,6.3125 25.375,6.3125 L 448.5,298.5625 c 0,0 20.58331,-3.16666 19,8.71875 -1.5833,11.88653 -6.34375,7.9375 -6.34375,7.9375 0,0 -3.94953,-3.98027 -11.875,-3.1875 -7.92547,0.79389 -72.10909,13.49451 -77.65625,7.15625 1.16627,-9.97495 -11.09375,-23 -11.09375,-23 l 4.75,-6.34375 z m -26.375,5.96875 c 1.84905,-0.0403 1.6875,0.4375 1.6875,0.4375 l -4.9375,3.8125 c 0,0 -4.03226,-3.3161 0.65625,-4 1.14338,-0.16679 1.9774,-0.23657 2.59375,-0.25 z"
         transform="matrix(0.87460313,0,0,0.87460313,-237.26831,-184.03818)"
         id="path1363" />
      <flowRoot
         xml:space="preserve"
         id="flowRoot3764"
         style="fill:black;stroke:none;stroke-opacity:1;stroke-width:1px;stroke-linejoin:miter;stroke-linecap:butt;fill-opacity:1;font-family:Droid Sans Mono;font-style:normal;font-weight:normal;font-size:40px;line-height:125%;letter-spacing:0px;word-spacing:0px;-inkscape-font-specification:Droid Sans Mono;font-stretch:normal;font-variant:normal"><flowRegion
           id="flowRegion3766"><rect
             id="rect3768"
             width="517.74768"
             height="117.34002"
             x="388.31079"
             y="109.1579" /></flowRegion><flowPara
           id="flowPara3770"></flowPara></flowRoot>      <text
         xml:space="preserve"
         style="font-size:34.98412704px;font-style:normal;font-variant:normal;font-weight:normal;font-stretch:normal;line-height:125%;letter-spacing:0px;word-spacing:0px;fill:#666666;fill-opacity:1;stroke:none;font-family:Colaborate-Regular;-inkscape-font-specification:Colaborate-Regular"
         x="215.15341"
         y="91.393822"
         id="text3772"
         sodipodi:linespacing="125%"><tspan
           sodipodi:role="line"
           id="tspan3774"
           x="215.15341"
           y="91.393822"
           style="font-style:normal;font-variant:normal;font-weight:normal;font-stretch:normal;fill:#666666;font-family:Colaborate-Regular;-inkscape-font-specification:Colaborate-Regular"><tspan
             style="-inkscape-font-specification:Colaborate-Bold;font-family:Colaborate-Bold;font-weight:normal;font-style:normal;font-stretch:normal;font-variant:normal"
             id="tspan3784">OpenCityCamp</tspan><tspan
             style="-inkscape-font-specification:Colaborate-Thin;font-family:Colaborate-Thin;font-weight:normal;font-style:normal;font-stretch:normal;font-variant:normal"
             id="tspan3786"> Stuttgart 2014</tspan></tspan><tspan
           sodipodi:role="line"
           x="215.15341"
           y="135.12398"
           style="font-style:normal;font-variant:normal;font-weight:normal;font-stretch:normal;fill:#803300;font-family:Colaborate-Regular;-inkscape-font-specification:Colaborate-Regular"
           id="tspan3778">Baden-Württemberg bewegt sich!</tspan><tspan
           sodipodi:role="line"
           x="215.15341"
           y="178.85414"
           style="font-style:normal;font-variant:normal;font-weight:normal;font-stretch:normal;fill:#666666;font-family:Colaborate-Regular;-inkscape-font-specification:Colaborate-Regular"
           id="tspan3780" /><tspan
           sodipodi:role="line"
           x="215.15341"
           y="212.26941"
           style="font-size:24.48888778999999971px;font-style:normal;font-variant:normal;font-weight:normal;font-stretch:normal;fill:#000000;font-family:Colaborate-Regular;-inkscape-font-specification:Colaborate-Regular"
           id="tspan3782">29. November 2014 | Literaturhaus Stuttgart</tspan></text>
    </g>
  </g>
</svg>
