<?xml version="1.0" encoding="UTF-8" standalone="no"?>
<!-- Created with Inkscape (http://www.inkscape.org/) -->

<svg
   xmlns:dc="http://purl.org/dc/elements/1.1/"
   xmlns:cc="http://creativecommons.org/ns#"
   xmlns:rdf="http://www.w3.org/1999/02/22-rdf-syntax-ns#"
   xmlns:svg="http://www.w3.org/2000/svg"
   xmlns="http://www.w3.org/2000/svg"
   xmlns:sodipodi="http://sodipodi.sourceforge.net/DTD/sodipodi-0.dtd"
   xmlns:inkscape="http://www.inkscape.org/namespaces/inkscape"
   width="1200"
   height="414"
   id="svg2"
   version="1.1"
   inkscape:version="0.48.4 r9939"
   sodipodi:docname="occ-front.svg">
  <defs
     id="defs4" />
  <sodipodi:namedview
     id="base"
     pagecolor="#ffffff"
     bordercolor="#666666"
     borderopacity="1.0"
     inkscape:pageopacity="0.0"
     inkscape:pageshadow="2"
     inkscape:zoom="0.82665746"
     inkscape:cx="539.50472"
     inkscape:cy="199.57048"
     inkscape:document-units="px"
     inkscape:current-layer="g1361"
     showgrid="false"
     inkscape:window-width="1024"
     inkscape:window-height="553"
     inkscape:window-x="0"
     inkscape:window-y="22"
     inkscape:window-maximized="1" />
  <metadata
     id="metadata7">
    <rdf:RDF>
      <cc:Work
         rdf:about="">
        <dc:format>image/svg+xml</dc:format>
        <dc:type
           rdf:resource="http://purl.org/dc/dcmitype/StillImage" />
        <dc:title />
      </cc:Work>
    </rdf:RDF>
  </metadata>
  <g
     inkscape:label="Ebene 1"
     inkscape:groupmode="layer"
     id="layer1"
     transform="translate(0,-638.36218)">
    <rect
       style="fill:#ffffd4;fill-opacity:1;stroke:none;stroke-width:0.70866119999999999;stroke-miterlimit:10;stroke-opacity:1;stroke-dasharray:none;stroke-dashoffset:0"
       id="rect2985"
       width="1214.2858"
       height="428.57144"
       x="-2.8571429"
       y="-11.714286"
       transform="translate(0,638.36218)" />
    <g
       transform="matrix(1.1433757,0,0,1.1433757,143.51931,680.52302)"
       id="g1361">
      <path
         inkscape:connector-curvature="0"
         style="fill:#4d4d4d"
         d="m 127.4447,69.460071 10.38591,2.787797 c 0,0 11.10851,-4.847243 27.74132,5.548264 0.97558,5.013671 0,6.914831 0,6.914831 0,0 -6.71442,-3.335911 -8.09008,0.983929 0.28624,0.09266 3.04004,0.983928 6.12222,0.983928 1.14892,0 4.01563,-0.101419 5.38427,-1.393899 2.50342,-2.363772 3.36176,-6.614186 3.36176,-6.614186 0,0 2.40083,10.13993 -8.50005,10.13993 -4.88092,0 -6.21609,-0.590803 -6.58685,-0.983928 0.19137,6.397074 5.52093,1.749206 5.52093,1.749206 l 0,6.914831 c 0,0 -8.61635,-1.150523 -10.13993,-2.405159 0.45868,1.524906 1.36657,5.766915 1.36657,5.766915 l 14.32162,-0.573959 c 0,0 15.94759,-13.872342 20.79916,2.760469 l -11.09653,0.68328 -25.6368,16.64479 11.77981,9.01935 c 0,0 18.01997,-5.98991 17.32807,7.87143 l -23.31364,0.40997 -36.29603,-8.2814 0,-4.15437 c 0,0 -9.69973,-0.71061 -11.77981,-0.71061 -2.07715,0 -33.972864,-15.2509 -33.972864,-15.2509 l -2.760466,0.71062 2.760466,19.40526 10.413244,-0.71062 c 2.852544,1.33155 3.745181,4.38747 4.154365,6.94216 l -24.953521,0 c 0,0 -0.680389,-7.63071 -2.760466,-11.09652 -2.078127,-3.46582 -8.336061,-11.09653 -8.336061,-11.09653 0,0 -6.910528,9.71604 -22.849007,14.56761 11.458009,0.44629 8.992013,7.62544 8.992013,7.62544 l -19.405257,0.68329 c 0,0 -1.375672,-15.25089 -0.683283,-15.25089 0.692379,0 2.200676,-4.68608 9.702628,-2.07719 -0.08204,-4.72899 2.112438,-20.912125 8.30873,-21.482436 C 35.138268,92.983939 30.546689,90.544881 31.81231,80.556598 35.276176,67.389605 51.217567,70.170686 51.217567,70.170686 l 39.493798,11.069196 c 0,0 15.247025,4.158204 17.328075,0 2.07715,-4.157715 -3.47108,-11.779811 -3.47108,-11.779811 0,0 15.26191,4.180708 12.49042,13.884325 -2.77343,9.701657 -22.193051,5.520932 -22.193051,5.520932 L 54.661317,77.085517 c 0,0 -18.002228,-2.769571 -16.61746,7.625446 1.384759,10.395996 5.548264,6.942162 5.548264,6.942162 0,0 3.454271,-3.481156 10.385912,-2.787797 6.931641,0.694339 63.066837,11.802342 67.918397,6.258879 -1.02002,-8.724123 9.70263,-20.115872 9.70263,-20.115872 l -4.15436,-5.548264 z m 23.06765,5.220287 c -1.61718,-0.03525 -1.47589,0.382639 -1.47589,0.382639 l 4.31835,3.334425 c 0,0 3.52663,-2.900272 -0.57395,-3.498413 -1.00001,-0.145875 -1.72944,-0.206905 -2.26851,-0.218651 z"
         id="path1363" />
      <flowRoot
         xml:space="preserve"
         id="flowRoot3764"
         style="fill:black;stroke:none;stroke-opacity:1;stroke-width:1px;stroke-linejoin:miter;stroke-linecap:butt;fill-opacity:1;font-family:Droid Sans Mono;font-style:normal;font-weight:normal;font-size:40px;line-height:125%;letter-spacing:0px;word-spacing:0px;-inkscape-font-specification:Droid Sans Mono;font-stretch:normal;font-variant:normal"><flowRegion
           id="flowRegion3766"><rect
             id="rect3768"
             width="517.74768"
             height="117.34002"
             x="388.31079"
             y="109.1579" /></flowRegion><flowPara
           id="flowPara3770" /></flowRoot>      <text
         xml:space="preserve"
         style="font-size:34.98412704px;font-style:normal;font-variant:normal;font-weight:normal;font-stretch:normal;line-height:125%;letter-spacing:0px;word-spacing:0px;fill:#666666;fill-opacity:1;stroke:none;font-family:Colaborate-Regular;-inkscape-font-specification:Colaborate-Regular"
         x="215.15341"
         y="91.393822"
         id="text3772"
         sodipodi:linespacing="125%"><tspan
           sodipodi:role="line"
           id="tspan3774"
           x="215.15341"
           y="91.393822"
           style="font-style:normal;font-variant:normal;font-weight:normal;font-stretch:normal;fill:#666666;font-family:Colaborate-Regular;-inkscape-font-specification:Colaborate-Regular"><tspan
             style="-inkscape-font-specification:Colaborate-Bold;font-family:Colaborate-Bold;font-weight:normal;font-style:normal;font-stretch:normal;font-variant:normal"
             id="tspan3784">OpenCityCamp</tspan><tspan
             style="-inkscape-font-specification:Colaborate-Thin;font-family:Colaborate-Thin;font-weight:normal;font-style:normal;font-stretch:normal;font-variant:normal"
             id="tspan3786"> Stuttgart 2014</tspan></tspan><tspan
           sodipodi:role="line"
           x="215.15341"
           y="135.12398"
           style="font-style:normal;font-variant:normal;font-weight:normal;font-stretch:normal;fill:#803300;font-family:Colaborate-Regular;-inkscape-font-specification:Colaborate-Regular"
           id="tspan3778">Baden-Württemberg bewegt sich!</tspan><tspan
           sodipodi:role="line"
           x="215.15341"
           y="178.85414"
           style="font-style:normal;font-variant:normal;font-weight:normal;font-stretch:normal;fill:#666666;font-family:Colaborate-Regular;-inkscape-font-specification:Colaborate-Regular"
           id="tspan3780" /><tspan
           sodipodi:role="line"
           x="215.15341"
           y="212.26941"
           style="font-size:24.48888778999999971px;font-style:normal;font-variant:normal;font-weight:normal;font-stretch:normal;fill:#000000;font-family:Colaborate-Regular;-inkscape-font-specification:Colaborate-Regular"
           id="tspan3782">29. November 2014 | Literaturhaus Stuttgart</tspan></text>
    </g>
  </g>
</svg>
