<?xml version="1.0" encoding="UTF-8" standalone="no"?>
<!-- Created with Inkscape (http://www.inkscape.org/) -->

<svg
   xmlns:dc="http://purl.org/dc/elements/1.1/"
   xmlns:cc="http://creativecommons.org/ns#"
   xmlns:rdf="http://www.w3.org/1999/02/22-rdf-syntax-ns#"
   xmlns:svg="http://www.w3.org/2000/svg"
   xmlns="http://www.w3.org/2000/svg"
   xmlns:sodipodi="http://sodipodi.sourceforge.net/DTD/sodipodi-0.dtd"
   xmlns:inkscape="http://www.inkscape.org/namespaces/inkscape"
   width="1214.2858"
   height="169.12683"
   id="svg2"
   version="1.1"
   inkscape:version="0.48.4 r9939"
   sodipodi:docname="occ-front.svg">
  <defs
     id="defs4" />
  <sodipodi:namedview
     id="base"
     pagecolor="#ffffff"
     bordercolor="#666666"
     borderopacity="1.0"
     inkscape:pageopacity="0.0"
     inkscape:pageshadow="2"
     inkscape:zoom="0.77087745"
     inkscape:cx="469.36104"
     inkscape:cy="65.036551"
     inkscape:document-units="px"
     inkscape:current-layer="layer1"
     showgrid="false"
     inkscape:window-width="1024"
     inkscape:window-height="553"
     inkscape:window-x="0"
     inkscape:window-y="22"
     inkscape:window-maximized="1"
     fit-margin-top="0"
     fit-margin-left="0"
     fit-margin-right="0"
     fit-margin-bottom="0" />
  <metadata
     id="metadata7">
    <rdf:RDF>
      <cc:Work
         rdf:about="">
        <dc:format>image/svg+xml</dc:format>
        <dc:type
           rdf:resource="http://purl.org/dc/dcmitype/StillImage" />
        <dc:title />
      </cc:Work>
    </rdf:RDF>
  </metadata>
  <g
     inkscape:label="Ebene 1"
     inkscape:groupmode="layer"
     id="layer1"
     transform="translate(1.5599207,-710.96741)">
    <rect
       style="fill:#ffffd4;fill-opacity:1;stroke:none"
       id="rect2985"
       width="1214.2858"
       height="169.12683"
       x="-1.5599207"
       y="710.96741" />
    <g
       transform="matrix(1.1433757,0,0,1.1433757,143.51931,680.52302)"
       id="g1361">
      <path
         inkscape:connector-curvature="0"
         style="fill:#4d4d4d"
         d="m 127.4447,69.460071 10.38591,2.787797 c 0,0 11.10851,-4.847243 27.74132,5.548264 0.97558,5.013671 0,6.914831 0,6.914831 0,0 -6.71442,-3.335911 -8.09008,0.983929 0.28624,0.09266 3.04004,0.983928 6.12222,0.983928 1.14892,0 4.01563,-0.101419 5.38427,-1.393899 2.50342,-2.363772 3.36176,-6.614186 3.36176,-6.614186 0,0 2.40083,10.13993 -8.50005,10.13993 -4.88092,0 -6.21609,-0.590803 -6.58685,-0.983928 0.19137,6.397074 5.52093,1.749206 5.52093,1.749206 l 0,6.914831 c 0,0 -8.61635,-1.150523 -10.13993,-2.405159 0.45868,1.524906 1.36657,5.766915 1.36657,5.766915 l 14.32162,-0.573959 c 0,0 15.94759,-13.872342 20.79916,2.760469 l -11.09653,0.68328 -25.6368,16.64479 11.77981,9.01935 c 0,0 18.01997,-5.98991 17.32807,7.87143 l -23.31364,0.40997 -36.29603,-8.2814 0,-4.15437 c 0,0 -9.69973,-0.71061 -11.77981,-0.71061 -2.07715,0 -33.972864,-15.2509 -33.972864,-15.2509 l -2.760466,0.71062 2.760466,19.40526 10.413244,-0.71062 c 2.852544,1.33155 3.745181,4.38747 4.154365,6.94216 l -24.953521,0 c 0,0 -0.680389,-7.63071 -2.760466,-11.09652 -2.078127,-3.46582 -8.336061,-11.09653 -8.336061,-11.09653 0,0 -6.910528,9.71604 -22.849007,14.56761 11.458009,0.44629 8.992013,7.62544 8.992013,7.62544 l -19.405257,0.68329 c 0,0 -1.375672,-15.25089 -0.683283,-15.25089 0.692379,0 2.200676,-4.68608 9.702628,-2.07719 -0.08204,-4.72899 2.112438,-20.912125 8.30873,-21.482436 C 35.138268,92.983939 30.546689,90.544881 31.81231,80.556598 35.276176,67.389605 51.217567,70.170686 51.217567,70.170686 l 39.493798,11.069196 c 0,0 15.247025,4.158204 17.328075,0 2.07715,-4.157715 -3.47108,-11.779811 -3.47108,-11.779811 0,0 15.26191,4.180708 12.49042,13.884325 -2.77343,9.701657 -22.193051,5.520932 -22.193051,5.520932 L 54.661317,77.085517 c 0,0 -18.002228,-2.769571 -16.61746,7.625446 1.384759,10.395996 5.548264,6.942162 5.548264,6.942162 0,0 3.454271,-3.481156 10.385912,-2.787797 6.931641,0.694339 63.066837,11.802342 67.918397,6.258879 -1.02002,-8.724123 9.70263,-20.115872 9.70263,-20.115872 l -4.15436,-5.548264 z m 23.06765,5.220287 c -1.61718,-0.03525 -1.47589,0.382639 -1.47589,0.382639 l 4.31835,3.334425 c 0,0 3.52663,-2.900272 -0.57395,-3.498413 -1.00001,-0.145875 -1.72944,-0.206905 -2.26851,-0.218651 z"
         id="path1363" />
      <flowRoot
         xml:space="preserve"
         id="flowRoot3764"
         style="font-size:40px;font-style:normal;font-variant:normal;font-weight:normal;font-stretch:normal;line-height:125%;letter-spacing:0px;word-spacing:0px;fill:#000000;fill-opacity:1;stroke:none;font-family:Droid Sans Mono;-inkscape-font-specification:Droid Sans Mono"><flowRegion
           id="flowRegion3766"><rect
             id="rect3768"
             width="517.74768"
             height="117.34002"
             x="388.31079"
             y="109.1579" /></flowRegion><flowPara
           id="flowPara3770" /></flowRoot>      <g
         style="font-size:34.98412704px;font-style:normal;font-variant:normal;font-weight:normal;font-stretch:normal;line-height:125%;letter-spacing:0px;word-spacing:0px;fill:#666666;fill-opacity:1;stroke:none;font-family:Colaborate-Regular;-inkscape-font-specification:Colaborate-Regular"
         id="text3772">
        <path
           d="m 227.95744,91.603724 c 2.31646,-0.0339 4.36538,-0.634672 6.14676,-1.802308 1.78134,-1.167631 3.17982,-2.698706 4.19545,-4.593227 1.01558,-1.894509 1.53299,-3.949042 1.55224,-6.163605 -0.0141,-2.138308 -0.50686,-4.162609 -1.47839,-6.072907 -0.97157,-1.910261 -2.33766,-3.470705 -4.09827,-4.681335 -1.76065,-1.210584 -3.83159,-1.835538 -6.21284,-1.874865 -3.51223,0.110806 -6.36194,1.376047 -8.54914,3.795728 -2.18721,2.419723 -3.31397,5.329196 -3.3803,8.728428 0.0151,2.171805 0.51353,4.214677 1.49523,6.128621 0.9817,1.913957 2.356,3.472241 4.12289,4.674856 1.76689,1.202619 3.83567,1.822823 6.20637,1.860614 z M 221.97523,79.0096 c 10e-4,-1.949597 0.5058,-3.665253 1.51304,-5.146973 1.00723,-1.481686 2.50861,-2.26153 4.50415,-2.339534 1.93429,0.06853 3.41818,0.823594 4.45167,2.265194 1.03346,1.441635 1.5553,3.158749 1.56552,5.151346 -2e-5,1.937231 -0.49853,3.660176 -1.49555,5.168838 -0.99705,1.508677 -2.4926,2.304555 -4.48666,2.387636 -1.96638,-0.07361 -3.46485,-0.844705 -4.4954,-2.313296 -1.03057,-1.468578 -1.54949,-3.192979 -1.55677,-5.173211 z"
           style="font-size:34.98412704px;font-weight:800;text-align:start;line-height:125%;writing-mode:lr-tb;text-anchor:start;font-family:Raleway;-inkscape-font-specification:Raleway Ultra-Bold"
           id="path4157"
           inkscape:connector-curvature="0" />
        <path
           d="m 254.38356,91.743658 c 2.33588,-0.05831 4.23228,-0.973711 5.68922,-2.746219 1.45691,-1.772502 2.2076,-4.052269 2.25208,-6.839308 -0.0489,-2.721426 -0.86077,-4.96621 -2.43574,-6.734358 -1.57501,-1.768116 -3.6201,-2.683521 -6.13526,-2.746218 -1.38114,0.0095 -2.58079,0.305396 -3.59895,0.88771 -1.01818,0.58235 -1.85924,1.394262 -2.5232,2.435739 l 0,-2.973613 -4.89771,0 0,25.817954 5.59739,0 0,-10.425136 c 0.58451,1.041495 1.39205,1.853407 2.42262,2.435738 1.03055,0.582332 2.2404,0.878236 3.62955,0.887711 z m -1.9241,-4.722796 c -0.87606,-0.02113 -1.68651,-0.337443 -2.43136,-0.948933 -0.74487,-0.611479 -1.31044,-1.391323 -1.69671,-2.339532 l 0,-3.778238 c 0.40084,-0.778374 0.94601,-1.390588 1.63548,-1.836643 0.68947,-0.446028 1.42704,-0.673422 2.21272,-0.682181 1.31625,0.02698 2.37451,0.471564 3.17477,1.333753 0.80024,0.862213 1.21129,1.980232 1.23318,3.354059 -0.0212,1.351981 -0.40743,2.496238 -1.15884,3.432773 -0.75143,0.936548 -1.74118,1.424861 -2.96924,1.464942 z"
           style="font-size:34.98412704px;font-weight:800;text-align:start;line-height:125%;writing-mode:lr-tb;text-anchor:start;font-family:Raleway;-inkscape-font-specification:Raleway Ultra-Bold"
           id="path4159"
           inkscape:connector-curvature="0" />
        <path
           d="m 273.89326,91.743658 c 2.12962,-0.02478 3.94877,-0.482483 5.45746,-1.373109 1.50865,-0.890625 2.62813,-2.065492 3.35843,-3.524605 l -4.75778,-1.32938 c -0.28863,0.673441 -0.79589,1.206942 -1.52179,1.600503 -0.72592,0.39357 -1.51305,0.594726 -2.3614,0.603469 -1.04733,-0.0044 -1.96128,-0.327968 -2.74184,-0.970797 -0.78058,-0.64282 -1.231,-1.578633 -1.35125,-2.80744 l 13.57367,0 c 0.0364,-0.23176 0.0685,-0.502883 0.0962,-0.813371 0.0277,-0.310472 0.0423,-0.634071 0.0437,-0.970797 -0.0168,-2.583678 -0.86659,-4.789106 -2.54943,-6.616288 -1.68288,-1.827151 -4.09821,-2.781913 -7.246,-2.864288 -3.15072,0.07509 -5.57771,1.03568 -7.28097,2.88178 -1.70327,1.846131 -2.56475,4.127356 -2.58442,6.843682 0.024,2.562561 0.89427,4.740292 2.61066,6.533201 1.71638,1.792914 4.13462,2.728727 7.25473,2.80744 z m -4.02312,-11.264743 c 0.12098,-1.152264 0.53495,-2.066212 1.24192,-2.741847 0.70695,-0.675608 1.6107,-1.021071 2.71124,-1.03639 1.08521,0.01313 1.98458,0.354224 2.69811,1.023272 0.71351,0.669076 1.13186,1.587397 1.25504,2.754965 z"
           style="font-size:34.98412704px;font-weight:800;text-align:start;line-height:125%;writing-mode:lr-tb;text-anchor:start;font-family:Raleway;-inkscape-font-specification:Raleway Ultra-Bold"
           id="path4161"
           inkscape:connector-curvature="0" />
        <path
           d="m 303.92757,79.639306 c 0.0678,-1.636931 -0.26021,-3.182042 -0.98392,-4.635337 -0.72374,-1.453263 -2.2499,-2.228734 -4.57848,-2.326414 -1.60489,0.0073 -3.02173,0.307583 -4.25052,0.90083 -1.22881,0.593282 -2.19086,1.435805 -2.88615,2.52757 l 0,-3.078564 -5.03765,0 0,18.366431 5.59738,0 0,-10.530087 c 0.36368,-0.96204 0.93071,-1.740426 1.70109,-2.335161 0.77036,-0.594709 1.55603,-0.900816 2.35702,-0.918321 0.74631,-0.0065 1.34394,0.268952 1.79291,0.82649 0.44895,0.557565 0.67926,1.436529 0.69093,2.636894 l 0,10.320185 5.59739,0 z"
           style="font-size:34.98412704px;font-weight:800;text-align:start;line-height:125%;writing-mode:lr-tb;text-anchor:start;font-family:Raleway;-inkscape-font-specification:Raleway Ultra-Bold"
           id="path4163"
           inkscape:connector-curvature="0" />
        <path
           d="m 306.63307,78.764714 c 0.0175,2.162952 0.52281,4.215758 1.51596,6.158423 0.99314,1.942678 2.36916,3.531626 4.12807,4.76685 1.75889,1.235226 3.79572,1.873138 6.11048,1.913737 2.03633,-0.01093 3.99833,-0.513823 5.88601,-1.508672 1.88764,-0.994846 3.23742,-2.416056 4.04936,-4.263635 l -4.7228,-2.76371 c -0.49125,1.229537 -1.21424,2.111416 -2.16899,2.645639 -0.95478,0.534236 -1.92266,0.795156 -2.90364,0.782761 -1.85925,-0.06632 -3.32711,-0.825756 -4.40357,-2.278313 -1.07649,-1.452542 -1.62602,-3.200267 -1.64861,-5.243177 -0.004,-1.886919 0.48539,-3.579252 1.46931,-5.077007 0.98391,-1.497719 2.48821,-2.289224 4.5129,-2.374517 0.94673,-0.02257 1.90441,0.215023 2.87303,0.712793 0.9686,0.497807 1.72512,1.391348 2.26957,2.680624 l 4.40794,-3.078564 c -0.80537,-1.634007 -2.0196,-2.940063 -3.64267,-3.918171 -1.62312,-0.978061 -3.54576,-1.479493 -5.76794,-1.504298 -2.52661,0.04106 -4.68004,0.662555 -6.46032,1.8645 -1.78028,1.201991 -3.14076,2.738248 -4.08143,4.608775 -0.94067,1.870563 -1.41489,3.829216 -1.42266,5.875962 z"
           style="font-size:34.98412704px;font-weight:800;text-align:start;line-height:125%;writing-mode:lr-tb;text-anchor:start;font-family:Raleway;-inkscape-font-specification:Raleway Ultra-Bold"
           id="path4165"
           inkscape:connector-curvature="0" />
        <path
           d="m 336.33834,91.393822 0,-18.366431 -5.59739,0 0,18.366431 z m 0,-20.465451 0,-5.072633 -5.59739,0 0,5.072633 z"
           style="font-size:34.98412704px;font-weight:800;text-align:start;line-height:125%;writing-mode:lr-tb;text-anchor:start;font-family:Raleway;-inkscape-font-specification:Raleway Ultra-Bold"
           id="path4167"
           inkscape:connector-curvature="0" />
        <path
           d="m 350.94687,85.971352 c -0.35786,0.165448 -0.75289,0.315586 -1.18507,0.450414 -0.4322,0.134838 -0.85347,0.206263 -1.26378,0.214276 -0.48177,0.0051 -0.87388,-0.12754 -1.17633,-0.39794 -0.30247,-0.270389 -0.45844,-0.709142 -0.46791,-1.31626 l 0,-7.661426 3.74326,0 0,-4.233025 -3.74326,0 0,-5.842274 -5.59739,0 0,5.842274 -2.3439,0 0,4.233025 2.3439,0 0,9.585528 c 0.0401,1.76522 0.54589,3.027547 1.51742,3.786982 0.97152,0.759437 2.16825,1.129681 3.5902,1.110732 1.02618,-0.01385 2.02613,-0.152324 2.99985,-0.41543 0.9737,-0.263107 1.85121,-0.567756 2.63252,-0.913949 z"
           style="font-size:34.98412704px;font-weight:800;text-align:start;line-height:125%;writing-mode:lr-tb;text-anchor:start;font-family:Raleway;-inkscape-font-specification:Raleway Ultra-Bold"
           id="path4169"
           inkscape:connector-curvature="0" />
        <path
           d="m 354.03927,98.950296 c 0.50872,0.190215 1.02182,0.325777 1.53929,0.406684 0.51746,0.08089 1.03055,0.120249 1.53928,0.118071 1.63038,-0.03572 3.04867,-0.506543 4.25489,-1.412467 1.2062,-0.905937 2.0735,-2.137653 2.60191,-3.69515 l 7.03172,-21.340043 -5.21257,0 -3.67329,13.573667 -4.30299,-13.573667 -5.73732,0 6.96175,18.366431 c -0.25728,1.159562 -0.58234,1.988965 -0.97517,2.488213 -0.39284,0.499243 -0.88407,0.742671 -1.47369,0.730285 -0.3185,7.25e-4 -0.69603,-0.03572 -1.13259,-0.109325 -0.43657,-0.07361 -0.91031,-0.188769 -1.42122,-0.345463 z"
           style="font-size:34.98412704px;font-weight:800;text-align:start;line-height:125%;writing-mode:lr-tb;text-anchor:start;font-family:Raleway;-inkscape-font-specification:Raleway Ultra-Bold"
           id="path4171"
           inkscape:connector-curvature="0" />
        <path
           d="m 372.22831,78.764714 c 0.0175,2.162952 0.52281,4.215758 1.51596,6.158423 0.99314,1.942678 2.36917,3.531626 4.12807,4.76685 1.7589,1.235226 3.79572,1.873138 6.11049,1.913737 2.03632,-0.01093 3.99832,-0.513823 5.886,-1.508672 1.88764,-0.994846 3.23743,-2.416056 4.04936,-4.263635 l -4.7228,-2.76371 c -0.49124,1.229537 -1.21424,2.111416 -2.16898,2.645639 -0.95478,0.534236 -1.92266,0.795156 -2.90365,0.782761 -1.85925,-0.06632 -3.3271,-0.825756 -4.40357,-2.278313 -1.07648,-1.452542 -1.62602,-3.200267 -1.6486,-5.243177 -0.004,-1.886919 0.48539,-3.579252 1.46931,-5.077007 0.98391,-1.497719 2.4882,-2.289224 4.51289,-2.374517 0.94674,-0.02257 1.90441,0.215023 2.87304,0.712793 0.96859,0.497807 1.72511,1.391348 2.26956,2.680624 l 4.40795,-3.078564 c -0.80538,-1.634007 -2.0196,-2.940063 -3.64268,-3.918171 -1.62311,-0.978061 -3.54575,-1.479493 -5.76793,-1.504298 -2.52661,0.04106 -4.68005,0.662555 -6.46032,1.8645 -1.78029,1.201991 -3.14076,2.738248 -4.08143,4.608775 -0.94067,1.870563 -1.4149,3.829216 -1.42267,5.875962 z"
           style="font-size:34.98412704px;font-weight:800;text-align:start;line-height:125%;writing-mode:lr-tb;text-anchor:start;font-family:Raleway;-inkscape-font-specification:Raleway Ultra-Bold"
           id="path4173"
           inkscape:connector-curvature="0" />
        <path
           d="m 401.58374,91.743658 c 1.27033,-0.0044 2.46415,-0.284242 3.58145,-0.839608 1.11728,-0.555365 2.09245,-1.359989 2.92551,-2.413873 l 0.10495,0.839608 c 0.13555,0.753607 0.47664,1.327922 1.02327,1.722946 0.54661,0.395024 1.325,0.602011 2.33517,0.62096 0.35273,0.0015 0.75796,-0.01895 1.21568,-0.06122 0.45768,-0.04227 0.95037,-0.115155 1.47806,-0.218648 l 0,-4.722797 c -0.53425,-0.02623 -0.90887,-0.157422 -1.12385,-0.393567 -0.21502,-0.236135 -0.31852,-0.6297 -0.31048,-1.180698 l 0,-4.722796 c -0.0175,-2.509337 -0.77841,-4.417403 -2.28269,-5.724205 -1.50431,-1.306769 -3.64706,-1.964169 -6.42825,-1.972204 -1.46568,7.48e-4 -2.85482,0.200446 -4.16743,0.599095 -1.31262,0.398686 -2.57057,0.99195 -3.77386,1.779795 l 1.64423,3.498367 c 0.98683,-0.666134 1.94305,-1.170482 2.86866,-1.513045 0.9256,-0.342534 1.88182,-0.514536 2.86866,-0.516008 1.23973,0.0037 2.16242,0.27624 2.76809,0.817743 0.60564,0.541532 0.90737,1.330121 0.9052,2.365772 l 0,0.839608 c -0.55028,-0.246333 -1.18144,-0.435828 -1.89349,-0.568486 -0.71208,-0.132635 -1.45694,-0.199686 -2.23458,-0.201155 -2.34829,0.02989 -4.23741,0.599835 -5.66736,1.709828 -1.42996,1.110011 -2.16462,2.580782 -2.20397,4.412315 0.0379,1.697441 0.64428,3.086583 1.81915,4.167431 1.17486,1.08085 2.69082,1.63913 4.54788,1.674843 z m 1.64423,-4.023122 c -0.80245,-0.01311 -1.45402,-0.231763 -1.95471,-0.655944 -0.50071,-0.424173 -0.75872,-0.975165 -0.77402,-1.652979 0.0204,-0.747769 0.35566,-1.351237 1.00578,-1.810406 0.65011,-0.459153 1.49263,-0.695292 2.52757,-0.708419 0.49997,0.0029 1.03055,0.05832 1.59176,0.166173 0.56119,0.107875 1.09177,0.250724 1.59176,0.42855 l 0,1.749184 c -0.003,0.230315 -0.0758,0.460624 -0.21865,0.690927 -0.14286,0.230315 -0.33819,0.443132 -0.58598,0.638452 -0.37973,0.354215 -0.85346,0.634084 -1.42121,0.839609 -0.56776,0.205532 -1.1552,0.310483 -1.7623,0.314853 z"
           style="font-size:34.98412704px;font-weight:800;text-align:start;line-height:125%;writing-mode:lr-tb;text-anchor:start;font-family:Raleway;-inkscape-font-specification:Raleway Ultra-Bold"
           id="path4175"
           inkscape:connector-curvature="0" />
        <path
           d="m 446.0078,79.639306 c 0.0634,-1.636931 -0.2646,-3.182042 -0.98392,-4.635337 -0.71938,-1.453263 -2.21056,-2.228734 -4.47353,-2.326414 -1.46205,0.0066 -2.76228,0.317059 -3.90068,0.931441 -1.13845,0.614418 -2.05386,1.493381 -2.74622,2.636894 -0.23762,-0.99046 -0.7682,-1.825695 -1.59176,-2.505707 -0.82359,-0.679977 -1.98388,-1.034186 -3.48088,-1.062628 -1.54585,0.0051 -2.89709,0.301023 -4.05373,0.88771 -1.15665,0.586723 -2.07935,1.433618 -2.76808,2.54069 l 0,-3.078564 -5.03765,0 0,18.366431 5.59739,0 0,-10.530087 c 0.35493,-0.977345 0.87822,-1.760104 1.56989,-2.34828 0.69165,-0.588149 1.4161,-0.889883 2.17336,-0.905202 0.72663,-0.0065 1.3024,0.268952 1.72732,0.82649 0.42489,0.557565 0.64208,1.436529 0.65157,2.636894 l 0,10.320185 5.59739,0 0,-10.530087 c 0.33961,-0.96204 0.85853,-1.740426 1.55677,-2.335161 0.6982,-0.594709 1.42702,-0.900816 2.18648,-0.918321 0.72662,-0.0065 1.30239,0.268952 1.72732,0.82649 0.42488,0.557565 0.64207,1.436529 0.65157,2.636894 l 0,10.320185 5.59739,0 z"
           style="font-size:34.98412704px;font-weight:800;text-align:start;line-height:125%;writing-mode:lr-tb;text-anchor:start;font-family:Raleway;-inkscape-font-specification:Raleway Ultra-Bold"
           id="path4177"
           inkscape:connector-curvature="0" />
        <path
           d="m 461.28188,91.743658 c 2.33587,-0.05831 4.23227,-0.973711 5.68922,-2.746219 1.4569,-1.772502 2.20759,-4.052269 2.25207,-6.839308 -0.0488,-2.721426 -0.86076,-4.96621 -2.43574,-6.734358 -1.57501,-1.768116 -3.62009,-2.683521 -6.13526,-2.746218 -1.38114,0.0095 -2.58078,0.305396 -3.59894,0.88771 -1.01818,0.58235 -1.85925,1.394262 -2.5232,2.435739 l 0,-2.973613 -4.89772,0 0,25.817954 5.59739,0 0,-10.425136 c 0.58451,1.041495 1.39205,1.853407 2.42262,2.435738 1.03055,0.582332 2.2404,0.878236 3.62956,0.887711 z m -1.9241,-4.722796 c -0.87606,-0.02113 -1.68652,-0.337443 -2.43137,-0.948933 -0.74487,-0.611479 -1.31044,-1.391323 -1.69671,-2.339532 l 0,-3.778238 c 0.40085,-0.778374 0.94601,-1.390588 1.63549,-1.836643 0.68946,-0.446028 1.42703,-0.673422 2.21272,-0.682181 1.31624,0.02698 2.3745,0.471564 3.17476,1.333753 0.80024,0.862213 1.2113,1.980232 1.23318,3.354059 -0.0212,1.351981 -0.40743,2.496238 -1.15884,3.432773 -0.75143,0.936548 -1.74118,1.424861 -2.96923,1.464942 z"
           style="font-size:34.98412704px;font-weight:800;text-align:start;line-height:125%;writing-mode:lr-tb;text-anchor:start;font-family:Raleway;-inkscape-font-specification:Raleway Ultra-Bold"
           id="path4179"
           inkscape:connector-curvature="0" />
        <path
           d="m 237.473,128.72197 c -0.0153,-1.58884 -0.43076,-2.93279 -1.2463,-4.03187 -0.81557,-1.09906 -1.93942,-1.86579 -3.37155,-2.30018 1.14351,-0.53349 2.02248,-1.32062 2.6369,-2.3614 0.61438,-1.04074 0.92486,-2.17771 0.93144,-3.4109 -0.0175,-1.626 -0.52478,-3.07053 -1.52179,-4.33361 -0.99706,-1.26303 -2.37891,-1.92918 -4.14557,-1.99844 l -12.80402,0 0,24.83841 11.85946,0 c 2.15585,-0.0175 3.95751,-0.58598 5.40498,-1.70545 1.44743,-1.11948 2.19958,-2.685 2.25645,-4.69656 z m -4.02313,-0.73466 c -0.0226,1.04369 -0.37099,1.92119 -1.04513,2.63252 -0.67418,0.71134 -1.53857,1.08158 -2.59317,1.11073 l -7.94129,0 0,-7.59145 8.18618,0 c 0.99847,0.0335 1.80893,0.42127 2.43136,1.1632 0.6224,0.74196 0.94309,1.63696 0.96205,2.685 z m -4.16305,-14.30832 c 0.94527,0.0197 1.71345,0.36516 2.30455,1.03639 0.59106,0.67127 0.89571,1.55023 0.91395,2.63689 -0.0226,1.06994 -0.3535,1.9387 -0.99267,2.60629 -0.63919,0.66762 -1.4511,1.01162 -2.43573,1.03202 l -7.20664,0 0,-7.31159 z"
           style="font-weight:600;text-align:start;line-height:125%;writing-mode:lr-tb;text-anchor:start;fill:#803300;fill-opacity:1;font-family:Raleway;-inkscape-font-specification:Raleway Semi-Bold"
           id="path4209"
           inkscape:connector-curvature="0" />
        <path
           d="m 245.96668,135.47382 c 1.3782,-0.005 2.6624,-0.29226 3.85258,-0.86148 1.19016,-0.56921 2.20323,-1.38987 3.03921,-2.46197 l 0.10495,1.15446 c 0.0853,0.5816 0.32577,1.04514 0.72154,1.3906 0.39573,0.34546 0.95985,0.54662 1.69233,0.60347 0.24706,0.001 0.5313,-0.0102 0.85273,-0.035 0.32139,-0.0248 0.66686,-0.0714 1.03639,-0.13994 l 0,-3.28847 c -0.39723,-0.0131 -0.67856,-0.11806 -0.84398,-0.31485 -0.16546,-0.19678 -0.24563,-0.51163 -0.24051,-0.94456 l 0,-6.61191 c -0.0197,-2.392 -0.72375,-4.22864 -2.11214,-5.50993 -1.38843,-1.28126 -3.34314,-1.92846 -5.86414,-1.9416 -1.29222,7.5e-4 -2.54726,0.20045 -3.76512,0.5991 -1.21787,0.39869 -2.41169,0.99195 -3.58145,1.77979 l 1.18944,2.44886 c 0.99412,-0.68435 1.97074,-1.20473 2.92988,-1.56115 0.95913,-0.35638 1.91827,-0.53567 2.87741,-0.53787 1.44161,0.011 2.54651,0.3914 3.3147,1.14134 0.76817,0.74998 1.15591,1.80386 1.16321,3.16165 l 0,1.25942 c -0.67563,-0.26456 -1.43216,-0.47009 -2.26956,-0.61659 -0.83744,-0.14649 -1.69016,-0.22083 -2.55819,-0.22302 -2.31184,0.0263 -4.16889,0.55975 -5.57115,1.6005 -1.40226,1.04077 -2.12234,2.43137 -2.16024,4.1718 0.0372,1.66246 0.62752,3.02537 1.77105,4.08872 1.14353,1.06336 2.61721,1.61289 4.42106,1.64861 z m 1.04951,-2.83368 c -1.05316,-0.0204 -1.91172,-0.32943 -2.57567,-0.92707 -0.66397,-0.59763 -1.00651,-1.36144 -1.02765,-2.29143 0.0248,-0.97735 0.46499,-1.76011 1.32064,-2.34828 0.85563,-0.58815 1.97803,-0.88989 3.36718,-0.9052 0.70768,0.003 1.4263,0.0758 2.15587,0.21865 0.72954,0.14286 1.42192,0.33818 2.07715,0.58597 l 0,2.41388 c -0.002,0.21501 -0.0678,0.44094 -0.19678,0.67781 -0.12902,0.23687 -0.30831,0.45406 -0.53788,0.65157 -0.47302,0.60055 -1.11876,1.06992 -1.93722,1.40809 -0.81848,0.33818 -1.70036,0.51018 -2.64564,0.51601 z"
           style="font-weight:600;text-align:start;line-height:125%;writing-mode:lr-tb;text-anchor:start;fill:#803300;fill-opacity:1;font-family:Raleway;-inkscape-font-specification:Raleway Semi-Bold"
           id="path4211"
           inkscape:connector-curvature="0" />
        <path
           d="m 268.44067,135.47382 c 1.31771,-0.007 2.55671,-0.32579 3.71701,-0.95768 1.16028,-0.63189 2.10192,-1.53709 2.82494,-2.71561 l 0.07,1.5043 c 0.0889,0.57942 0.33962,1.03858 0.75215,1.37748 0.4125,0.33891 0.97807,0.54443 1.69671,0.61659 0.24268,0.001 0.51818,-0.0102 0.82649,-0.035 0.30828,-0.0248 0.66248,-0.0714 1.06263,-0.13994 l 0,-3.28847 c -0.39869,-0.0131 -0.68585,-0.11806 -0.86147,-0.31485 -0.17567,-0.19678 -0.26167,-0.51163 -0.25801,-0.94456 l 0,-20.9902 -3.8482,0 0,10.705 c -0.64211,-1.10634 -1.51816,-2.00717 -2.62815,-2.70249 -1.11002,-0.69528 -2.37963,-1.05386 -3.80885,-1.07575 -2.43939,0.0693 -4.40868,0.99779 -5.90787,2.78558 -1.4992,1.78783 -2.27029,4.01949 -2.31329,6.695 0.0445,2.66022 0.85637,4.88752 2.43574,6.68188 1.57936,1.79437 3.65943,2.72727 6.24021,2.7987 z m 0.97954,-3.28847 c -1.661,-0.0452 -3.01808,-0.64574 -4.07122,-1.80166 -1.05316,-1.15591 -1.59687,-2.59607 -1.63112,-4.32048 0.0226,-1.669 0.51965,-3.11499 1.49118,-4.33798 0.97152,-1.22295 2.28195,-1.86432 3.93129,-1.9241 1.08813,0.0248 2.13035,0.40378 3.12667,1.13697 0.99629,0.73321 1.71491,1.67194 2.15587,2.81619 l 0,4.79276 c -0.31341,1.05462 -0.96353,1.919 -1.95034,2.59316 -0.98685,0.67417 -2.00429,1.02255 -3.05233,1.04514 z"
           style="font-weight:600;text-align:start;line-height:125%;writing-mode:lr-tb;text-anchor:start;fill:#803300;fill-opacity:1;font-family:Raleway;-inkscape-font-specification:Raleway Semi-Bold"
           id="path4213"
           inkscape:connector-curvature="0" />
        <path
           d="m 291.62202,135.47382 c 1.94741,-0.0248 3.6412,-0.46499 5.08138,-1.32064 1.44014,-0.85564 2.48674,-1.97803 3.13978,-3.36718 l -3.28846,-0.94455 c -0.37682,0.85127 -1.00507,1.52762 -1.88475,2.02905 -0.8797,0.50143 -1.84904,0.75798 -2.90802,0.76964 -1.45474,-0.0233 -2.69958,-0.51892 -3.7345,-1.48681 -1.03494,-0.96787 -1.63258,-2.2681 -1.79292,-3.90068 l 14.65816,0 c 0.0197,-0.16106 0.0415,-0.36367 0.0656,-0.60784 0.024,-0.24415 0.0371,-0.50798 0.0394,-0.7915 -0.0306,-2.54724 -0.87023,-4.7206 -2.51882,-6.52009 -1.64862,-1.79945 -3.92256,-2.73964 -6.82182,-2.82056 -2.90657,0.0729 -5.20966,1.01163 -6.90927,2.81619 -1.69963,1.80459 -2.56839,4.03771 -2.60629,6.69937 0.0386,2.62816 0.90593,4.84087 2.60191,6.63816 1.69598,1.79728 3.98886,2.7331 6.87867,2.80744 z m -5.49244,-10.87993 c 0.15451,-1.58081 0.73757,-2.84459 1.74919,-3.79135 1.0116,-0.94673 2.25935,-1.43213 3.74325,-1.4562 1.49773,0.0241 2.75276,0.50947 3.76512,1.4562 1.01232,0.94676 1.61142,2.21054 1.79728,3.79135 z"
           style="font-weight:600;text-align:start;line-height:125%;writing-mode:lr-tb;text-anchor:start;fill:#803300;fill-opacity:1;font-family:Raleway;-inkscape-font-specification:Raleway Semi-Bold"
           id="path4215"
           inkscape:connector-curvature="0" />
        <path
           d="m 320.5434,123.96419 c 0.0466,-2.07059 -0.31778,-3.8154 -1.09324,-5.23444 -0.77548,-1.419 -2.24188,-2.15803 -4.39919,-2.21709 -1.63113,0.0131 -3.10044,0.37173 -4.40795,1.07575 -1.30752,0.70407 -2.32204,1.67486 -3.04358,2.91239 l 0,-3.67328 -3.49836,0 0,18.29646 3.8482,0 0,-10.87992 c 0.44093,-1.26596 1.17705,-2.29361 2.20835,-3.08294 1.03128,-0.7893 2.12597,-1.19599 3.28409,-1.22006 1.05387,-0.009 1.85849,0.38484 2.41387,1.1807 0.55535,0.7959 0.83522,2.04656 0.83961,3.752 l 0,10.25022 3.8482,0 z"
           style="font-weight:600;text-align:start;line-height:125%;writing-mode:lr-tb;text-anchor:start;fill:#803300;fill-opacity:1;font-family:Raleway;-inkscape-font-specification:Raleway Semi-Bold"
           id="path4217"
           inkscape:connector-curvature="0" />
        <path
           d="m 335.19308,127.28764 0,-3.46339 -10.46012,0 0,3.46339 z"
           style="font-weight:600;text-align:start;line-height:125%;writing-mode:lr-tb;text-anchor:start;fill:#803300;fill-opacity:1;font-family:Raleway;-inkscape-font-specification:Raleway Semi-Bold"
           id="path4219"
           inkscape:connector-curvature="0" />
        <path
           d="m 353.17215,121.44536 -3.67328,9.13074 -7.80136,-20.29053 -4.23303,0 10.21524,24.83841 3.35843,0 4.65283,-11.12481 4.61784,11.12481 3.39342,0 10.21523,-24.83841 -4.26801,0 -7.73139,20.29053 -3.74325,-9.13074 4.26801,-11.05484 -3.70827,0 -3.07857,8.43107 -3.04358,-8.43107 -3.67328,0 z"
           style="font-weight:600;text-align:start;line-height:125%;writing-mode:lr-tb;text-anchor:start;fill:#803300;fill-opacity:1;font-family:Raleway;-inkscape-font-specification:Raleway Semi-Bold"
           id="path4221"
           inkscape:connector-curvature="0" />
        <path
           d="m 382.93608,113.60902 0,-3.84821 -3.2185,0 0,3.84821 z m 6.19211,0 0,-3.84821 -3.2185,0 0,3.84821 z m -7.17166,21.8648 c 1.58811,-0.003 3.02972,-0.34692 4.32486,-1.03202 1.29511,-0.6851 2.36065,-1.69379 3.19663,-3.02609 l 0.07,1.88912 c 0.0889,0.59691 0.33962,1.06482 0.75215,1.40372 0.4125,0.3389 0.97807,0.53569 1.69671,0.59035 0.22519,0.001 0.49194,-0.0102 0.80025,-0.035 0.30827,-0.0248 0.67123,-0.0714 1.08887,-0.13994 l 0,-3.28847 c -0.414,-0.0131 -0.70553,-0.11806 -0.8746,-0.31485 -0.1691,-0.19678 -0.25073,-0.51163 -0.24488,-0.94456 l 0,-13.74858 -3.84821,0 0,11.40468 c -0.56266,1.28201 -1.32647,2.26009 -2.29143,2.93425 -0.96498,0.67417 -2.00865,1.0138 -3.13104,1.0189 -1.15447,-0.002 -2.02031,-0.41761 -2.59753,-1.24629 -0.57724,-0.82867 -0.86586,-2.05747 -0.86585,-3.68641 l 0,-10.42513 -3.8482,0 0,11.19477 c 0.004,2.45324 0.49414,4.30737 1.46931,5.56241 0.97517,1.25504 2.40949,1.88474 4.30299,1.88912 z"
           style="font-weight:600;text-align:start;line-height:125%;writing-mode:lr-tb;text-anchor:start;fill:#803300;fill-opacity:1;font-family:Raleway;-inkscape-font-specification:Raleway Semi-Bold"
           id="path4223"
           inkscape:connector-curvature="0" />
        <path
           d="m 407.99614,116.68758 c -0.11954,-0.0167 -0.25656,-0.0269 -0.41106,-0.0306 -0.15452,-0.004 -0.34402,-0.005 -0.56848,-0.004 -1.15302,0.0204 -2.23168,0.41691 -3.23599,1.18944 -1.00433,0.77258 -1.83811,1.79876 -2.50133,3.07857 l 0,-4.09309 -3.56834,0 0,18.29646 3.8482,0 0,-11.19478 c 0.52621,-1.1785 1.35416,-2.09245 2.48385,-2.74184 1.12967,-0.64937 2.44738,-0.99484 3.95315,-1.03639 z"
           style="font-weight:600;text-align:start;line-height:125%;writing-mode:lr-tb;text-anchor:start;fill:#803300;fill-opacity:1;font-family:Raleway;-inkscape-font-specification:Raleway Semi-Bold"
           id="path4225"
           inkscape:connector-curvature="0" />
        <path
           d="m 420.17227,131.13584 c -0.24053,0.13775 -0.59911,0.29081 -1.07575,0.45916 -0.47666,0.16836 -0.99267,0.2602 -1.54803,0.2755 -0.53934,0.004 -0.99121,-0.14358 -1.35561,-0.44167 -0.36442,-0.29809 -0.55392,-0.76891 -0.56849,-1.41247 l 0,-10.21523 3.98814,0 0,-2.97361 -3.98814,0 0,-6.01719 -3.8482,0 0,6.01719 -2.44886,0 0,2.97361 2.44886,0 0,11.43966 c 0.035,1.45912 0.47227,2.52029 1.31188,3.18352 0.83961,0.66323 1.87162,0.98974 3.09606,0.97954 1.01014,-0.0226 1.93721,-0.16982 2.7812,-0.44167 0.84397,-0.27185 1.52615,-0.53277 2.04655,-0.78276 z"
           style="font-weight:600;text-align:start;line-height:125%;writing-mode:lr-tb;text-anchor:start;fill:#803300;fill-opacity:1;font-family:Raleway;-inkscape-font-specification:Raleway Semi-Bold"
           id="path4227"
           inkscape:connector-curvature="0" />
        <path
           d="m 432.88135,131.13584 c -0.24053,0.13775 -0.59911,0.29081 -1.07575,0.45916 -0.47667,0.16836 -0.99267,0.2602 -1.54803,0.2755 -0.53934,0.004 -0.99121,-0.14358 -1.35562,-0.44167 -0.36442,-0.29809 -0.55391,-0.76891 -0.56848,-1.41247 l 0,-10.21523 3.98814,0 0,-2.97361 -3.98814,0 0,-6.01719 -3.84821,0 0,6.01719 -2.44885,0 0,2.97361 2.44885,0 0,11.43966 c 0.035,1.45912 0.47228,2.52029 1.31189,3.18352 0.8396,0.66323 1.87162,0.98974 3.09606,0.97954 1.01014,-0.0226 1.93721,-0.16982 2.7812,-0.44167 0.84397,-0.27185 1.52615,-0.53277 2.04654,-0.78276 z"
           style="font-weight:600;text-align:start;line-height:125%;writing-mode:lr-tb;text-anchor:start;fill:#803300;fill-opacity:1;font-family:Raleway;-inkscape-font-specification:Raleway Semi-Bold"
           id="path4229"
           inkscape:connector-curvature="0" />
        <path
           d="m 444.54093,135.47382 c 1.94741,-0.0248 3.6412,-0.46499 5.08137,-1.32064 1.44015,-0.85564 2.48674,-1.97803 3.13979,-3.36718 l -3.28847,-0.94455 c -0.37681,0.85127 -1.00506,1.52762 -1.88474,2.02905 -0.87971,0.50143 -1.84905,0.75798 -2.90802,0.76964 -1.45475,-0.0233 -2.69958,-0.51892 -3.73451,-1.48681 -1.03494,-0.96787 -1.63257,-2.2681 -1.79291,-3.90068 l 14.65816,0 c 0.0197,-0.16106 0.0415,-0.36367 0.0656,-0.60784 0.024,-0.24415 0.0371,-0.50798 0.0394,-0.7915 -0.0306,-2.54724 -0.87024,-4.7206 -2.51882,-6.52009 -1.64863,-1.79945 -3.92256,-2.73964 -6.82182,-2.82056 -2.90657,0.0729 -5.20966,1.01163 -6.90928,2.81619 -1.69962,1.80459 -2.56838,4.03771 -2.60628,6.69937 0.0386,2.62816 0.90593,4.84087 2.60191,6.63816 1.69597,1.79728 3.98886,2.7331 6.87867,2.80744 z m -5.49244,-10.87993 c 0.1545,-1.58081 0.73757,-2.84459 1.74918,-3.79135 1.01161,-0.94673 2.25936,-1.43213 3.74326,-1.4562 1.49772,0.0241 2.75276,0.50947 3.76511,1.4562 1.01233,0.94676 1.61142,2.21054 1.79729,3.79135 z"
           style="font-weight:600;text-align:start;line-height:125%;writing-mode:lr-tb;text-anchor:start;fill:#803300;fill-opacity:1;font-family:Raleway;-inkscape-font-specification:Raleway Semi-Bold"
           id="path4231"
           inkscape:connector-curvature="0" />
        <path
           d="m 485.0419,123.96419 c 0.0408,-2.05528 -0.3382,-3.79572 -1.13697,-5.22132 -0.79882,-1.42556 -2.2623,-2.16897 -4.39045,-2.23021 -1.47517,0.005 -2.79288,0.36225 -3.95315,1.07138 -1.16032,0.70917 -2.1282,1.73972 -2.90365,3.09168 -0.22741,-1.21421 -0.7784,-2.20541 -1.65298,-2.97361 -0.87461,-0.76817 -2.0728,-1.16465 -3.59457,-1.18945 -1.51379,0.007 -2.8592,0.35205 -4.03624,1.0364 -1.17707,0.68438 -2.12891,1.6683 -2.85555,2.95174 l 0,-3.67328 -3.49836,0 0,18.29646 3.8482,0 0,-10.87992 c 0.42563,-1.29657 1.0874,-2.33296 1.98533,-3.10918 0.8979,-0.77618 1.89202,-1.17412 2.98235,-1.19382 1.06918,-0.009 1.87818,0.38484 2.42699,1.1807 0.5488,0.7959 0.82429,2.04656 0.82649,3.752 l 0,10.25022 3.84821,0 0,-10.84494 c 0.40812,-1.29803 1.06115,-2.34025 1.95909,-3.12667 0.89789,-0.78639 1.90075,-1.19015 3.00859,-1.21131 1.05532,-0.007 1.86577,0.3914 2.43137,1.19382 0.56554,0.80245 0.85124,2.04875 0.8571,3.73888 l 0,10.25022 3.8482,0 z"
           style="font-weight:600;text-align:start;line-height:125%;writing-mode:lr-tb;text-anchor:start;fill:#803300;fill-opacity:1;font-family:Raleway;-inkscape-font-specification:Raleway Semi-Bold"
           id="path4233"
           inkscape:connector-curvature="0" />
        <path
           d="m 499.23968,135.47382 c 2.50132,-0.0663 4.54786,-0.98319 6.13963,-2.75059 1.59174,-1.76741 2.41386,-3.98741 2.46635,-6.66002 -0.0321,-2.6019 -0.77257,-4.82336 -2.22146,-6.66439 -1.44893,-1.841 -3.41384,-2.80305 -5.89475,-2.88616 -1.45329,0.0131 -2.72728,0.35423 -3.82197,1.02328 -1.0947,0.66908 -2.00136,1.5874 -2.71998,2.75496 l 0,-10.705 -3.8482,0 0,25.53808 3.39341,0 0,-3.32345 c 0.66031,1.1326 1.5524,2.02468 2.67625,2.67625 1.12385,0.65157 2.40075,0.98392 3.83072,0.99704 z m -1.01453,-3.28847 c -1.04733,-0.0189 -2.06623,-0.35712 -3.0567,-1.01452 -0.99048,-0.6574 -1.6508,-1.52033 -1.98095,-2.5888 l 0,-4.82774 c 0.51673,-1.11364 1.23244,-2.04362 2.14712,-2.78995 0.91467,-0.74631 1.97147,-1.13404 3.1704,-1.16321 1.61871,0.0554 2.92039,0.68803 3.90505,1.89786 0.98463,1.20987 1.49044,2.66461 1.51742,4.36422 -0.0277,1.66319 -0.5583,3.08586 -1.59176,4.26801 -1.03349,1.18216 -2.40368,1.8002 -4.11058,1.85413 z"
           style="font-weight:600;text-align:start;line-height:125%;writing-mode:lr-tb;text-anchor:start;fill:#803300;fill-opacity:1;font-family:Raleway;-inkscape-font-specification:Raleway Semi-Bold"
           id="path4235"
           inkscape:connector-curvature="0" />
        <path
           d="m 519.63381,135.47382 c 1.94741,-0.0248 3.6412,-0.46499 5.08137,-1.32064 1.44015,-0.85564 2.48674,-1.97803 3.13979,-3.36718 l -3.28847,-0.94455 c -0.37681,0.85127 -1.00506,1.52762 -1.88474,2.02905 -0.87971,0.50143 -1.84905,0.75798 -2.90802,0.76964 -1.45475,-0.0233 -2.69958,-0.51892 -3.73451,-1.48681 -1.03494,-0.96787 -1.63257,-2.2681 -1.79291,-3.90068 l 14.65816,0 c 0.0197,-0.16106 0.0415,-0.36367 0.0656,-0.60784 0.024,-0.24415 0.0372,-0.50798 0.0394,-0.7915 -0.0306,-2.54724 -0.87024,-4.7206 -2.51882,-6.52009 -1.64862,-1.79945 -3.92256,-2.73964 -6.82182,-2.82056 -2.90657,0.0729 -5.20966,1.01163 -6.90928,2.81619 -1.69962,1.80459 -2.56838,4.03771 -2.60628,6.69937 0.0386,2.62816 0.90593,4.84087 2.60191,6.63816 1.69597,1.79728 3.98886,2.7331 6.87867,2.80744 z m -5.49244,-10.87993 c 0.15451,-1.58081 0.73757,-2.84459 1.74918,-3.79135 1.01161,-0.94673 2.25936,-1.43213 3.74326,-1.4562 1.49772,0.0241 2.75276,0.50947 3.76511,1.4562 1.01233,0.94676 1.61142,2.21054 1.79729,3.79135 z"
           style="font-weight:600;text-align:start;line-height:125%;writing-mode:lr-tb;text-anchor:start;fill:#803300;fill-opacity:1;font-family:Raleway;-inkscape-font-specification:Raleway Semi-Bold"
           id="path4237"
           inkscape:connector-curvature="0" />
        <path
           d="m 542.39806,116.68758 c -0.11954,-0.0167 -0.25656,-0.0269 -0.41106,-0.0306 -0.15452,-0.004 -0.34402,-0.005 -0.56849,-0.004 -1.15301,0.0204 -2.23167,0.41691 -3.23599,1.18944 -1.00433,0.77258 -1.8381,1.79876 -2.50133,3.07857 l 0,-4.09309 -3.56833,0 0,18.29646 3.8482,0 0,-11.19478 c 0.52621,-1.1785 1.35415,-2.09245 2.48384,-2.74184 1.12967,-0.64937 2.44739,-0.99484 3.95316,-1.03639 z"
           style="font-weight:600;text-align:start;line-height:125%;writing-mode:lr-tb;text-anchor:start;fill:#803300;fill-opacity:1;font-family:Raleway;-inkscape-font-specification:Raleway Semi-Bold"
           id="path4239"
           inkscape:connector-curvature="0" />
        <path
           d="m 552.44018,135.2989 c 1.28345,-0.008 2.48602,-0.31558 3.60769,-0.9227 1.12165,-0.60711 2.01811,-1.46566 2.68937,-2.57567 l 0,2.7987 c -0.0459,1.84684 -0.62753,3.20829 -1.74481,4.08434 -1.1173,0.87605 -2.49478,1.31043 -4.13244,1.30314 -1.26015,-0.003 -2.43939,-0.25947 -3.53773,-0.76964 -1.09835,-0.51018 -2.00646,-1.2565 -2.72435,-2.23895 l -2.16899,2.02905 c 0.90884,1.23463 2.03852,2.19376 3.38904,2.87741 1.35051,0.68363 3.03119,1.03055 5.04203,1.04076 2.82346,-0.0168 5.13529,-0.74414 6.93551,-2.18211 1.80018,-1.43798 2.73016,-3.48598 2.78995,-6.144 l 0,-17.77171 -3.39342,0 0,3.46338 c -0.71718,-1.13695 -1.62675,-2.04653 -2.72873,-2.72873 -1.10199,-0.68216 -2.39639,-1.032 -3.88318,-1.04951 -2.54143,0.0693 -4.57777,0.99779 -6.10903,2.78558 -1.53127,1.78783 -2.31694,4.01949 -2.35702,6.695 0.0386,2.5458 0.80972,4.71333 2.31329,6.50259 1.50357,1.78927 3.50784,2.72363 6.01282,2.80307 z m 1.25941,-3.11355 c -1.6457,-0.0459 -2.9984,-0.64501 -4.0581,-1.79728 -1.05972,-1.15227 -1.6078,-2.58223 -1.64424,-4.28988 0.0182,-1.63985 0.50653,-3.08292 1.46495,-4.32923 0.9584,-1.24628 2.27757,-1.90222 3.95752,-1.96783 1.12895,0.0204 2.177,0.39067 3.14416,1.11073 0.96714,0.7201 1.69159,1.66757 2.17336,2.84243 l 0,4.79276 c -0.31049,0.9934 -0.93145,1.84029 -1.86288,2.54069 -0.93145,0.7004 -1.98971,1.06627 -3.17477,1.09761 z"
           style="font-weight:600;text-align:start;line-height:125%;writing-mode:lr-tb;text-anchor:start;fill:#803300;fill-opacity:1;font-family:Raleway;-inkscape-font-specification:Raleway Semi-Bold"
           id="path4241"
           inkscape:connector-curvature="0" />
        <path
           d="m 585.53841,135.47382 c 2.50132,-0.0663 4.54786,-0.98319 6.13964,-2.75059 1.59174,-1.76741 2.41385,-3.98741 2.46635,-6.66002 -0.0321,-2.6019 -0.77258,-4.82336 -2.22147,-6.66439 -1.44892,-1.841 -3.41383,-2.80305 -5.89474,-2.88616 -1.4533,0.0131 -2.72728,0.35423 -3.82197,1.02328 -1.09471,0.66908 -2.00137,1.5874 -2.71998,2.75496 l 0,-10.705 -3.84821,0 0,25.53808 3.39342,0 0,-3.32345 c 0.66031,1.1326 1.55239,2.02468 2.67625,2.67625 1.12384,0.65157 2.40075,0.98392 3.83071,0.99704 z m -1.01452,-3.28847 c -1.04734,-0.0189 -2.06624,-0.35712 -3.0567,-1.01452 -0.99048,-0.6574 -1.6508,-1.52033 -1.98095,-2.5888 l 0,-4.82774 c 0.51673,-1.11364 1.23244,-2.04362 2.14712,-2.78995 0.91467,-0.74631 1.97147,-1.13404 3.1704,-1.16321 1.61871,0.0554 2.92039,0.68803 3.90505,1.89786 0.98463,1.20987 1.49043,2.66461 1.51742,4.36422 -0.0277,1.66319 -0.5583,3.08586 -1.59176,4.26801 -1.03349,1.18216 -2.40368,1.8002 -4.11058,1.85413 z"
           style="font-weight:600;text-align:start;line-height:125%;writing-mode:lr-tb;text-anchor:start;fill:#803300;fill-opacity:1;font-family:Raleway;-inkscape-font-specification:Raleway Semi-Bold"
           id="path4243"
           inkscape:connector-curvature="0" />
        <path
           d="m 605.93254,135.47382 c 1.94742,-0.0248 3.64121,-0.46499 5.08138,-1.32064 1.44015,-0.85564 2.48674,-1.97803 3.13979,-3.36718 l -3.28847,-0.94455 c -0.37682,0.85127 -1.00506,1.52762 -1.88474,2.02905 -0.87971,0.50143 -1.84905,0.75798 -2.90802,0.76964 -1.45475,-0.0233 -2.69958,-0.51892 -3.73451,-1.48681 -1.03494,-0.96787 -1.63258,-2.2681 -1.79291,-3.90068 l 14.65816,0 c 0.0197,-0.16106 0.0415,-0.36367 0.0656,-0.60784 0.024,-0.24415 0.0371,-0.50798 0.0394,-0.7915 -0.0306,-2.54724 -0.87024,-4.7206 -2.51883,-6.52009 -1.64862,-1.79945 -3.92256,-2.73964 -6.82181,-2.82056 -2.90657,0.0729 -5.20966,1.01163 -6.90928,2.81619 -1.69963,1.80459 -2.56839,4.03771 -2.60628,6.69937 0.0386,2.62816 0.90593,4.84087 2.60191,6.63816 1.69597,1.79728 3.98886,2.7331 6.87866,2.80744 z m -5.49243,-10.87993 c 0.1545,-1.58081 0.73756,-2.84459 1.74918,-3.79135 1.0116,-0.94673 2.25935,-1.43213 3.74325,-1.4562 1.49773,0.0241 2.75277,0.50947 3.76512,1.4562 1.01233,0.94676 1.61142,2.21054 1.79729,3.79135 z"
           style="font-weight:600;text-align:start;line-height:125%;writing-mode:lr-tb;text-anchor:start;fill:#803300;fill-opacity:1;font-family:Raleway;-inkscape-font-specification:Raleway Semi-Bold"
           id="path4245"
           inkscape:connector-curvature="0" />
        <path
           d="m 635.51861,131.41571 -2.65876,-6.78683 3.14853,-7.76638 -3.14853,0 -2.09902,5.73732 -2.09902,-5.73732 -3.14853,0 3.18351,7.76638 -2.65876,6.78683 -5.91224,-14.58819 -3.6383,0 7.69641,18.29646 3.18351,0 3.39342,-8.50103 3.4284,8.50103 3.14853,0 7.73139,-18.29646 -3.67328,0 z"
           style="font-weight:600;text-align:start;line-height:125%;writing-mode:lr-tb;text-anchor:start;fill:#803300;fill-opacity:1;font-family:Raleway;-inkscape-font-specification:Raleway Semi-Bold"
           id="path4247"
           inkscape:connector-curvature="0" />
        <path
           d="m 655.9489,135.47382 c 1.94741,-0.0248 3.6412,-0.46499 5.08138,-1.32064 1.44014,-0.85564 2.48674,-1.97803 3.13978,-3.36718 l -3.28846,-0.94455 c -0.37682,0.85127 -1.00507,1.52762 -1.88475,2.02905 -0.8797,0.50143 -1.84904,0.75798 -2.90801,0.76964 -1.45475,-0.0233 -2.69959,-0.51892 -3.73451,-1.48681 -1.03494,-0.96787 -1.63258,-2.2681 -1.79292,-3.90068 l 14.65816,0 c 0.0197,-0.16106 0.0415,-0.36367 0.0656,-0.60784 0.024,-0.24415 0.0371,-0.50798 0.0394,-0.7915 -0.0306,-2.54724 -0.87024,-4.7206 -2.51883,-6.52009 -1.64862,-1.79945 -3.92256,-2.73964 -6.82182,-2.82056 -2.90656,0.0729 -5.20965,1.01163 -6.90927,2.81619 -1.69963,1.80459 -2.56839,4.03771 -2.60629,6.69937 0.0386,2.62816 0.90593,4.84087 2.60191,6.63816 1.69598,1.79728 3.98886,2.7331 6.87867,2.80744 z m -5.49244,-10.87993 c 0.15451,-1.58081 0.73757,-2.84459 1.74919,-3.79135 1.0116,-0.94673 2.25935,-1.43213 3.74325,-1.4562 1.49773,0.0241 2.75277,0.50947 3.76512,1.4562 1.01232,0.94676 1.61142,2.21054 1.79729,3.79135 z"
           style="font-weight:600;text-align:start;line-height:125%;writing-mode:lr-tb;text-anchor:start;fill:#803300;fill-opacity:1;font-family:Raleway;-inkscape-font-specification:Raleway Semi-Bold"
           id="path4249"
           inkscape:connector-curvature="0" />
        <path
           d="m 675.70456,135.2989 c 1.28345,-0.008 2.48601,-0.31558 3.60769,-0.9227 1.12165,-0.60711 2.0181,-1.46566 2.68937,-2.57567 l 0,2.7987 c -0.0459,1.84684 -0.62754,3.20829 -1.74481,4.08434 -1.11731,0.87605 -2.49479,1.31043 -4.13245,1.30314 -1.26015,-0.003 -2.43939,-0.25947 -3.53773,-0.76964 -1.09834,-0.51018 -2.00646,-1.2565 -2.72435,-2.23895 l -2.16899,2.02905 c 0.90885,1.23463 2.03853,2.19376 3.38905,2.87741 1.35051,0.68363 3.03118,1.03055 5.04202,1.04076 2.82346,-0.0168 5.1353,-0.74414 6.93551,-2.18211 1.80019,-1.43798 2.73017,-3.48598 2.78995,-6.144 l 0,-17.77171 -3.39342,0 0,3.46338 c -0.71718,-1.13695 -1.62675,-2.04653 -2.72872,-2.72873 -1.102,-0.68216 -2.3964,-1.032 -3.88319,-1.04951 -2.54143,0.0693 -4.57777,0.99779 -6.10903,2.78558 -1.53126,1.78783 -2.31694,4.01949 -2.35702,6.695 0.0386,2.5458 0.80972,4.71333 2.3133,6.50259 1.50356,1.78927 3.50783,2.72363 6.01282,2.80307 z m 1.25941,-3.11355 c -1.6457,-0.0459 -2.9984,-0.64501 -4.05811,-1.79728 -1.05972,-1.15227 -1.6078,-2.58223 -1.64423,-4.28988 0.0182,-1.63985 0.50653,-3.08292 1.46494,-4.32923 0.9584,-1.24628 2.27757,-1.90222 3.95753,-1.96783 1.12894,0.0204 2.17699,0.39067 3.14416,1.11073 0.96713,0.7201 1.69159,1.66757 2.17336,2.84243 l 0,4.79276 c -0.3105,0.9934 -0.93146,1.84029 -1.86288,2.54069 -0.93146,0.7004 -1.98971,1.06627 -3.17477,1.09761 z"
           style="font-weight:600;text-align:start;line-height:125%;writing-mode:lr-tb;text-anchor:start;fill:#803300;fill-opacity:1;font-family:Raleway;-inkscape-font-specification:Raleway Semi-Bold"
           id="path4251"
           inkscape:connector-curvature="0" />
        <path
           d="m 699.77197,131.13584 c -0.24052,0.13775 -0.59911,0.29081 -1.07575,0.45916 -0.47666,0.16836 -0.99267,0.2602 -1.54803,0.2755 -0.53934,0.004 -0.99121,-0.14358 -1.35561,-0.44167 -0.36442,-0.29809 -0.55392,-0.76891 -0.56849,-1.41247 l 0,-10.21523 3.98814,0 0,-2.97361 -3.98814,0 0,-6.01719 -3.8482,0 0,6.01719 -2.44886,0 0,2.97361 2.44886,0 0,11.43966 c 0.035,1.45912 0.47227,2.52029 1.31189,3.18352 0.8396,0.66323 1.87162,0.98974 3.09605,0.97954 1.01015,-0.0226 1.93721,-0.16982 2.7812,-0.44167 0.84397,-0.27185 1.52615,-0.53277 2.04655,-0.78276 z"
           style="font-weight:600;text-align:start;line-height:125%;writing-mode:lr-tb;text-anchor:start;fill:#803300;fill-opacity:1;font-family:Raleway;-inkscape-font-specification:Raleway Semi-Bold"
           id="path4253"
           inkscape:connector-curvature="0" />
        <path
           d="m 718.46828,135.47382 c 2.28341,-0.0197 4.08361,-0.53132 5.40061,-1.53491 1.31697,-1.00359 1.98895,-2.38107 2.01593,-4.13245 0.0131,-1.51231 -0.56412,-2.65073 -1.73169,-3.41528 -1.16759,-0.76453 -3.00423,-1.42193 -5.50993,-1.9722 -1.46859,-0.33671 -2.51081,-0.6778 -3.12666,-1.02328 -0.61587,-0.34545 -0.91469,-0.87895 -0.89646,-1.6005 0.0233,-0.88697 0.36149,-1.53562 1.01453,-1.94597 0.65302,-0.41031 1.48096,-0.61293 2.48384,-0.60784 0.9635,-10e-4 1.91388,0.1589 2.85117,0.48103 0.93725,0.32215 1.85266,0.81484 2.74622,1.47806 l 1.64423,-2.34391 c -0.97446,-0.72516 -2.0779,-1.29511 -3.31033,-1.70983 -1.23246,-0.41468 -2.51957,-0.62604 -3.86133,-0.63408 -2.05894,0.0117 -3.7571,0.52186 -5.09449,1.53054 -1.3374,1.00871 -2.02979,2.44596 -2.07716,4.31174 -0.0197,1.37312 0.47446,2.40514 1.48243,3.09605 1.00797,0.69094 2.64782,1.30315 4.91958,1.83665 1.63694,0.37389 2.84096,0.75434 3.61207,1.14134 0.77108,0.38701 1.15299,0.95112 1.14571,1.69233 -0.0131,0.82577 -0.35422,1.45693 -1.02327,1.8935 -0.66907,0.43657 -1.58739,0.65667 -2.75496,0.66031 -1.13552,-0.001 -2.25792,-0.19969 -3.36718,-0.59472 -1.10928,-0.39502 -2.21418,-0.97808 -3.31471,-1.74918 l -1.60924,2.58879 c 1.08303,0.81046 2.37159,1.43725 3.86569,1.88037 1.49409,0.44313 2.99256,0.66761 4.4954,0.67344 z"
           style="font-weight:600;text-align:start;line-height:125%;writing-mode:lr-tb;text-anchor:start;fill:#803300;fill-opacity:1;font-family:Raleway;-inkscape-font-specification:Raleway Semi-Bold"
           id="path4255"
           inkscape:connector-curvature="0" />
        <path
           d="m 732.95175,135.12398 0,-18.29646 -3.8482,0 0,18.29646 z m 0,-21.30506 0,-4.23302 -3.8482,0 0,4.23302 z"
           style="font-weight:600;text-align:start;line-height:125%;writing-mode:lr-tb;text-anchor:start;fill:#803300;fill-opacity:1;font-family:Raleway;-inkscape-font-specification:Raleway Semi-Bold"
           id="path4257"
           inkscape:connector-curvature="0" />
        <path
           d="m 736.32013,125.95826 c 0.0386,2.63107 0.90593,4.85544 2.60191,6.67313 1.69598,1.8177 3.98886,2.76517 6.87867,2.84243 1.94595,-0.0248 3.62517,-0.46499 5.03765,-1.32064 1.41245,-0.85564 2.42697,-1.97803 3.04358,-3.36718 l -3.77824,-1.11947 c -0.30758,0.71717 -0.8644,1.31189 -1.67047,1.78416 -0.8061,0.47229 -1.69526,0.71717 -2.66751,0.73466 -1.54512,-0.0386 -2.8366,-0.6348 -3.87444,-1.78854 -1.03785,-1.15373 -1.57718,-2.63324 -1.61799,-4.43855 0.035,-1.83299 0.55973,-3.30959 1.57426,-4.42981 1.01452,-1.12019 2.30892,-1.69597 3.88319,-1.72732 0.91904,0.006 1.74844,0.22158 2.48821,0.6472 0.73975,0.42565 1.33301,1.0262 1.7798,1.80166 l 3.74325,-1.18945 c -0.69167,-1.3833 -1.71349,-2.48236 -3.06544,-3.29721 -1.35199,-0.81481 -2.97727,-1.2317 -4.87585,-1.25067 -2.92042,0.0722 -5.22205,1.00362 -6.90491,2.79433 -1.68286,1.79074 -2.54142,4.00783 -2.57567,6.65127 z"
           style="font-weight:600;text-align:start;line-height:125%;writing-mode:lr-tb;text-anchor:start;fill:#803300;fill-opacity:1;font-family:Raleway;-inkscape-font-specification:Raleway Semi-Bold"
           id="path4259"
           inkscape:connector-curvature="0" />
        <path
           d="m 773.42387,123.96419 c 0.0415,-2.05528 -0.35642,-3.79572 -1.19382,-5.22132 -0.83744,-1.42556 -2.3636,-2.16897 -4.57849,-2.23021 -1.43434,0.011 -2.74623,0.36516 -3.93566,1.06263 -1.18946,0.69751 -2.15151,1.67268 -2.88616,2.92551 l 0,-10.9149 -3.8482,0 0,25.53808 3.8482,0 0,-10.87992 c 0.42636,-1.28127 1.13915,-2.31329 2.13838,-3.09606 0.99921,-0.78274 2.0356,-1.18506 3.10918,-1.20694 1.12529,-0.002 1.98822,0.40452 2.58879,1.22006 0.60054,0.81557 0.90373,2.05312 0.90957,3.71264 l 0,10.25022 3.84821,0 z"
           style="font-weight:600;text-align:start;line-height:125%;writing-mode:lr-tb;text-anchor:start;fill:#803300;fill-opacity:1;font-family:Raleway;-inkscape-font-specification:Raleway Semi-Bold"
           id="path4261"
           inkscape:connector-curvature="0" />
        <path
           d="m 782.2313,126.27311 0,-16.23243 -3.8482,0 0,16.23243 z m 0,8.85087 0,-4.79276 -3.8482,0 0,4.79276 z"
           style="font-weight:600;text-align:start;line-height:125%;writing-mode:lr-tb;text-anchor:start;fill:#803300;fill-opacity:1;font-family:Raleway;-inkscape-font-specification:Raleway Semi-Bold"
           id="path4263"
           inkscape:connector-curvature="0" />
      </g>
    </g>
  </g>
</svg>
