<?xml version="1.0" encoding="UTF-8" standalone="no"?>
<!-- Generator: Adobe Illustrator 15.0.0, SVG Export Plug-In . SVG Version: 6.00 Build 0)  -->

<svg
   xmlns:dc="http://purl.org/dc/elements/1.1/"
   xmlns:cc="http://creativecommons.org/ns#"
   xmlns:rdf="http://www.w3.org/1999/02/22-rdf-syntax-ns#"
   xmlns:svg="http://www.w3.org/2000/svg"
   xmlns="http://www.w3.org/2000/svg"
   xmlns:sodipodi="http://sodipodi.sourceforge.net/DTD/sodipodi-0.dtd"
   xmlns:inkscape="http://www.inkscape.org/namespaces/inkscape"
   version="1.0"
   id="Layer_1"
   x="0px"
   y="0px"
   width="1197.8125"
   height="308.59375"
   viewBox="0 0 1197.8124 308.59374"
   enable-background="new 0 0 595.28 841.89"
   xml:space="preserve"
   inkscape:version="0.48.4 r9939"
   sodipodi:docname="occ12-front.svg"><metadata
     id="metadata87"><rdf:RDF><cc:Work
         rdf:about=""><dc:format>image/svg+xml</dc:format><dc:type
           rdf:resource="http://purl.org/dc/dcmitype/StillImage" /><dc:title></dc:title></cc:Work></rdf:RDF></metadata><defs
     id="defs85"><clipPath
       clipPathUnits="userSpaceOnUse"
       id="clipPath28"><path
         inkscape:connector-curvature="0"
         d="m 0,841.89 1190.55,0 L 1190.55,0 0,0 0,841.89 z"
         id="path30" /></clipPath></defs><sodipodi:namedview
     pagecolor="#ffffff"
     bordercolor="#666666"
     borderopacity="1"
     objecttolerance="10"
     gridtolerance="10"
     guidetolerance="10"
     inkscape:pageopacity="0"
     inkscape:pageshadow="2"
     inkscape:window-width="1024"
     inkscape:window-height="553"
     id="namedview83"
     showgrid="false"
     inkscape:zoom="0.5676649"
     inkscape:cx="629.68355"
     inkscape:cy="167.87477"
     inkscape:window-x="0"
     inkscape:window-y="22"
     inkscape:window-maximized="1"
     inkscape:current-layer="Layer_1"
     fit-margin-top="0"
     fit-margin-left="0"
     fit-margin-right="0"
     fit-margin-bottom="0" /><g
     transform="matrix(0.49425999,0,0,0.49425999,247.76329,-11.873682)"
     id="g69"><path
       d="m 33.105,210.007 c 2.311,-3.353 3.533,-7.276 3.533,-11.348 0,-3.983 -1.17,-7.835 -3.385,-11.137 -0.461,-0.688 -1.393,-0.871 -2.08,-0.411 -0.689,0.462 -0.873,1.395 -0.412,2.082 1.883,2.806 2.877,6.079 2.877,9.466 0,3.46 -1.039,6.795 -3.002,9.645 -0.471,0.683 -0.299,1.616 0.383,2.087 0.682,0.47 1.617,0.298 2.086,-0.384 z"
       id="path71"
       inkscape:connector-curvature="0"
       style="fill:#f1f2f2" /></g><g
     transform="matrix(0.49425999,0,0,0.49425999,250.62555,-13.805352)"
     id="g73"><path
       d="m 33.105,217.9 c 3.119,-4.524 4.768,-9.826 4.768,-15.332 0,-5.384 -1.58,-10.587 -4.568,-15.045 -0.461,-0.688 -1.393,-0.871 -2.082,-0.41 -0.688,0.461 -0.871,1.394 -0.41,2.081 2.656,3.963 4.061,8.587 4.061,13.374 0,4.896 -1.465,9.608 -4.236,13.629 -0.471,0.683 -0.299,1.616 0.385,2.087 0.678,0.469 1.613,0.297 2.082,-0.384 z"
       id="path75"
       inkscape:connector-curvature="0"
       style="fill:#f1f2f2" /></g><g
     transform="matrix(0.49425999,0,0,0.49425999,253.35604,-15.649182)"
     id="g77"><path
       d="m 30.862,189.195 c 3.396,5.067 5.193,10.981 5.193,17.104 0,6.259 -1.875,12.286 -5.418,17.43 -0.471,0.683 -0.299,1.616 0.383,2.087 0.682,0.47 1.617,0.298 2.086,-0.384 3.893,-5.647 5.949,-12.263 5.949,-19.133 0,-6.72 -1.971,-13.212 -5.703,-18.774 -0.461,-0.688 -1.393,-0.872 -2.08,-0.411 -0.688,0.461 -0.871,1.392 -0.41,2.081 z"
       id="path79"
       inkscape:connector-curvature="0"
       style="fill:#f1f2f2" /></g><path
     inkscape:connector-curvature="0"
     d="m -0.5893296,284.82367 1199.2846296,0 0,-257.354754 -1199.2846296,0 0,257.354754 z"
     style="fill:#e7eb9d;fill-opacity:1;fill-rule:nonzero;stroke:none"
     id="path12" /><path
     inkscape:connector-curvature="0"
     d="m 0.02493734,308.44474 1198.70936266,0 0,-39.42655 -1198.70936266,0 0,39.42655 z"
     style="fill:#871549;fill-opacity:1;fill-rule:nonzero;stroke:none"
     id="path14" /><path
     inkscape:connector-curvature="0"
     d="m -0.25767906,32.993396 1198.41257906,0 0.4404,-32.77994097 -1198.85297906,0 z"
     style="fill:#871549;fill-opacity:1;fill-rule:nonzero;stroke:none"
     id="path16"
     sodipodi:nodetypes="ccccc" /><path
     inkscape:connector-curvature="0"
     d="m 683.97113,32.994013 -134.62839,0 0,-32.77994097 134.62839,0 0,32.77994097 z"
     style="fill:#32252c;fill-opacity:1;fill-rule:nonzero;stroke:none"
     id="path18" /><path
     inkscape:connector-curvature="0"
     d="m 839.39672,32.994013 -156.69399,0 0,-32.77994097 156.69399,0 0,32.77994097 z"
     style="fill:#9a772c;fill-opacity:1;fill-rule:nonzero;stroke:none"
     id="path20" /><path
     inkscape:connector-curvature="0"
     d="m 549.34274,32.994013 -176.41374,0 0,-32.77994097 176.41374,0 0,32.77994097 z"
     style="fill:#ed0c73;fill-opacity:1;fill-rule:nonzero;stroke:none"
     id="path22" /><g
     transform="matrix(0.61782499,0,0,-0.61782499,245.37991,458.34565)"
     id="g24"><g
       id="g26"
       clip-path="url(#clipPath28)"><g
         id="g32"
         transform="translate(304.5415,585.9399)"><path
           inkscape:connector-curvature="0"
           d="m 0,0 c -14.462,0 -18.244,-10.674 -18.244,-25.136 0,-14.128 3.787,-25.228 18.244,-25.228 14.463,0 17.994,11.1 17.994,25.228 C 17.994,-10.679 14.463,0 0,0 m 0,-53.475 c -17.238,0 -22.281,12.193 -22.281,28.339 0,16.142 5.802,28.249 22.364,28.249 17.07,0 21.948,-12.107 21.948,-28.249 0,-16.146 -5.635,-28.339 -22.031,-28.339"
           style="fill:#92213b;fill-opacity:1;fill-rule:nonzero;stroke:none"
           id="path34" /></g><g
         id="g36"
         transform="translate(352.1333,570.3042)"><path
           inkscape:connector-curvature="0"
           d="m 0,0 c -5.297,0 -9.502,-4.791 -10.675,-8.659 l 0,-19.674 c 1.851,-2.101 4.288,-6.221 11.097,-6.221 6.644,0 11.268,5.465 11.268,17.235 C 11.688,-7.567 8.914,0 0,0 m 0.929,-37.33 c -5.635,0 -9.502,2.776 -11.521,5.549 l 0,-19.845 -3.448,0 0,42.211 c 0,3.951 -0.168,7.396 -0.671,11.348 l 2.773,0 1.263,-6.139 c 1.932,3.194 5.717,6.982 11.346,6.982 11.185,0 14.718,-9.414 14.718,-20.261 0,-10.767 -4.795,-19.845 -14.46,-19.845"
           style="fill:#92213b;fill-opacity:1;fill-rule:nonzero;stroke:none"
           id="path38" /></g><g
         id="g40"
         transform="translate(390.896,570.3042)"><path
           inkscape:connector-curvature="0"
           d="m 0,0 c -7.398,0 -10.933,-6.053 -11.434,-15.302 l 23.206,0 C 11.772,-5.213 8.409,0 0,0 m -11.346,-18.075 c 0,-9.166 2.773,-16.479 12.189,-16.479 4.457,0 7.905,1.344 11.858,3.448 l 1.007,-3.114 c -4.37,-2.1 -8.998,-3.11 -13.533,-3.11 -11.182,0 -15.306,8.997 -15.306,19.674 0,8.912 3.449,20.429 15.136,20.429 12.443,0 15.135,-9.416 15.135,-20.855 l -26.486,0 0,0.007 z"
           style="fill:#92213b;fill-opacity:1;fill-rule:nonzero;stroke:none"
           id="path42" /></g><g
         id="g44"
         transform="translate(440.3374,533.8101)"><path
           inkscape:connector-curvature="0"
           d="m 0,0 0,23.543 c 0,6.98 -1.344,12.951 -9.751,12.951 -5.551,0 -9.502,-5.132 -10.677,-8.578 l 0,-27.916 -3.448,0 0,30.271 c 0,3.195 -0.505,4.96 -0.671,8.156 l 2.773,0 1.093,-6.053 c 1.429,1.848 4.539,6.894 11.435,6.894 9.583,0 12.695,-6.224 12.695,-15.05 L 3.449,0 0,0 z"
           style="fill:#92213b;fill-opacity:1;fill-rule:nonzero;stroke:none"
           id="path46" /></g><g
         id="g48"
         transform="translate(476.8306,532.4653)"><path
           inkscape:connector-curvature="0"
           d="m 0,0 c -15.807,0 -21.521,12.278 -21.521,28.505 0,15.137 5.127,28.083 22.026,28.083 4.709,0 8.577,-0.588 12.698,-1.933 l -1.515,-3.532 c -3.53,1.514 -7.145,2.355 -11.179,2.355 -14.464,0 -17.998,-12.278 -17.998,-24.888 0,-13.368 3.871,-25.475 17.492,-25.475 4.036,0 7.901,1.011 12.274,2.777 L 13.791,2.359 C 8.994,0.675 4.793,0 0,0"
           style="fill:#92213b;fill-opacity:1;fill-rule:nonzero;stroke:none"
           id="path50" /></g><path
         inkscape:connector-curvature="0"
         d="m 500.376,572.237 3.448,0 0,-38.427 -3.448,0 0,38.427 z m -0.337,15.975 4.036,0 0,-5.716 -4.036,0 0,5.716 z"
         style="fill:#92213b;fill-opacity:1;fill-rule:nonzero;stroke:none"
         id="path52" /><g
         id="g54"
         transform="translate(529.8857,530.1958)"><path
           inkscape:connector-curvature="0"
           d="m 0,0 c -8.578,1.597 -12.865,5.636 -12.865,12.867 l 0,26.398 -5.802,0 0,2.776 5.802,0 0,9.582 3.449,0 0,-9.582 8.745,0 0,-2.776 -8.745,0 0,-26.398 c 0,-5.465 2.943,-8.409 10.34,-9.67 L 0,0 z"
           style="fill:#92213b;fill-opacity:1;fill-rule:nonzero;stroke:none"
           id="path56" /></g><g
         id="g58"
         transform="translate(551.4956,527.6724)"><path
           inkscape:connector-curvature="0"
           d="m 0,0 c -2.102,-5.718 -4.119,-7.568 -10.26,-9.838 l -1.007,3.198 c 4.622,1.26 6.558,3.197 7.397,5.465 l 3.365,8.912 -15.389,36.827 3.7,0.085 13.455,-32.962 11.434,32.877 3.364,0 L 0,0 z"
           style="fill:#92213b;fill-opacity:1;fill-rule:nonzero;stroke:none"
           id="path60" /></g><g
         id="g62"
         transform="translate(598.0811,532.4653)"><path
           inkscape:connector-curvature="0"
           d="m 0,0 c -15.81,0 -21.523,12.278 -21.523,28.505 0,15.137 5.125,28.083 22.027,28.083 4.705,0 8.578,-0.588 12.695,-1.933 L 11.684,51.123 C 8.15,52.637 4.539,53.478 0.504,53.478 -13.958,53.478 -17.491,41.2 -17.491,28.59 -17.491,15.222 -13.622,3.115 0,3.115 c 4.035,0 7.9,1.011 12.271,2.777 L 13.787,2.359 C 8.992,0.675 4.787,0 0,0"
           style="fill:#92213b;fill-opacity:1;fill-rule:nonzero;stroke:none"
           id="path64" /></g><g
         id="g66"
         transform="translate(643.8994,553.9106)"><path
           inkscape:connector-curvature="0"
           d="m 0,0 -2.857,0 c -13.622,0 -17.827,-2.862 -17.827,-9.926 0,-4.877 3.366,-8.238 9.754,-8.238 4.963,0 9.082,2.436 10.93,6.138 L 0,0 z m 1.602,-20.101 c -0.086,0.925 -1.18,3.536 -1.348,4.88 -1.936,-3.195 -5.885,-5.716 -11.184,-5.716 -6.726,0 -13.453,3.196 -13.453,10.93 0,7.819 4.035,12.864 20.348,12.864 l 3.951,0 0,3.53 c 0,6.308 -2.436,10.007 -8.826,10.007 -5.299,0 -8.916,-1.515 -12.529,-3.277 l -1.262,3.025 c 4.119,1.599 7.988,3.028 13.705,3.028 7.568,0 12.357,-3.954 12.357,-12.361 l 0,-15.136 c 0,-3.027 0.504,-6.894 1.012,-11.769 l -2.771,0 0,-0.005 z"
           style="fill:#92213b;fill-opacity:1;fill-rule:nonzero;stroke:none"
           id="path68" /></g><g
         id="g70"
         transform="translate(707.3838,533.8101)"><path
           inkscape:connector-curvature="0"
           d="m 0,0 0,24.384 c 0,5.716 -1.178,12.11 -9.922,12.11 -5.043,0 -9.164,-5.046 -10.592,-9 l 0,-27.494 -3.447,0 0,24.384 c 0,7.315 -3.195,12.11 -9.586,12.11 -5.047,0 -9.164,-4.71 -10.506,-8.578 l 0,-27.916 -3.451,0 0,29.596 c 0,3.195 -0.422,5.973 -0.67,8.831 l 2.772,0 1.175,-6.053 c 1.77,2.605 5.045,6.894 11.184,6.894 6.893,0 10.174,-4.121 11.52,-8.494 2.187,3.533 5.632,8.494 11.939,8.494 8.488,0 13.033,-4.458 13.033,-14.714 L 3.449,0 0,0 z"
           style="fill:#92213b;fill-opacity:1;fill-rule:nonzero;stroke:none"
           id="path72" /></g><g
         id="g74"
         transform="translate(736.9814,570.3042)"><path
           inkscape:connector-curvature="0"
           d="m 0,0 c -5.295,0 -9.502,-4.791 -10.674,-8.659 l 0,-19.674 c 1.85,-2.101 4.287,-6.221 11.1,-6.221 6.64,0 11.262,5.465 11.262,17.235 C 11.688,-7.567 8.914,0 0,0 m 0.93,-37.33 c -5.637,0 -9.5,2.776 -11.52,5.549 l 0,-19.845 -3.445,0 0,42.211 c 0,3.951 -0.166,7.396 -0.676,11.348 l 2.773,0 1.264,-6.139 c 1.928,3.194 5.717,6.982 11.348,6.982 11.185,0 14.717,-9.414 14.717,-20.261 0,-10.767 -4.795,-19.845 -14.461,-19.845"
           style="fill:#92213b;fill-opacity:1;fill-rule:nonzero;stroke:none"
           id="path76" /></g><path
         inkscape:connector-curvature="0"
         d="m 785.833,592.836 4.965,0 0,-72.98 -4.965,0 0,72.98 z"
         style="fill:#92213b;fill-opacity:1;fill-rule:nonzero;stroke:none"
         id="path78" /><g
         id="g80"
         transform="translate(848.2217,532.3804)"><path
           inkscape:connector-curvature="0"
           d="m 0,0 c -14.799,0 -20.852,6.979 -20.852,21.527 l 0,34.302 6.139,0 0,-33.463 C -14.713,8.494 -10.004,4.792 0,4.792 c 9.332,0 13.537,4.624 13.537,17.574 l 0,33.463 6.137,0 0,-34.474 C 19.68,6.899 13.369,0 0,0"
           style="fill:#92213b;fill-opacity:1;fill-rule:nonzero;stroke:none"
           id="path82" /></g><path
         inkscape:connector-curvature="0"
         d="m 882.028,589.05 5.459,0 0,-55.24 -5.459,0 0,55.24 z"
         style="fill:#92213b;fill-opacity:1;fill-rule:nonzero;stroke:none"
         id="path84" /><g
         id="g86"
         transform="translate(946.7666,533.8101)"><path
           inkscape:connector-curvature="0"
           d="m 0,0 0,24.384 c 0,5.716 -1.344,10.681 -8.408,10.681 -4.875,0 -8.66,-4.628 -10.088,-8.578 l 0,-26.487 -5.465,0 0,24.384 c 0,6.978 -2.691,10.681 -8.326,10.681 -4.705,0 -8.486,-4.71 -9.754,-8.074 l 0,-26.991 -5.465,0 0,29.596 c 0,3.195 -0.502,5.973 -0.754,8.831 l 4.791,0 1.262,-5.721 c 1.592,2.359 5.631,6.647 10.764,6.647 6.894,0 9.752,-3.196 11.765,-7.654 2.188,3.532 6.305,7.654 11.86,7.654 8.826,0 13.283,-4.543 13.283,-14.799 L 5.465,0 0,0 z"
           style="fill:#92213b;fill-opacity:1;fill-rule:nonzero;stroke:none"
           id="path88" /></g><g
         id="g90"
         transform="translate(983.8506,533.8101)"><path
           inkscape:connector-curvature="0"
           d="m 0,0 -2.014,5.132 c 7.735,7.231 26.145,21.269 26.145,31.529 0,7.823 -3.779,10.763 -10.51,10.763 -4.373,0 -7.568,-1.51 -12.359,-3.866 l -2.104,5.298 c 6.221,2.522 10.008,3.282 14.629,3.282 9.248,0 16.563,-4.122 16.563,-15.137 C 30.35,24.977 13.957,12.2 5.887,4.885 l 25.642,0 0,-4.877 L 0,0.008 0,0 z"
           style="fill:#92213b;fill-opacity:1;fill-rule:nonzero;stroke:none"
           id="path92" /></g><g
         id="g94"
         transform="translate(1040.1045,581.1479)"><path
           inkscape:connector-curvature="0"
           d="m 0,0 c -9.924,0 -11.016,-11.521 -11.016,-21.436 0,-11.854 0.756,-22.452 10.928,-22.452 10.846,0 11.184,11.183 11.184,22.452 C 11.096,-9.752 10.426,0 0,0 m -0.088,-48.596 c -15.385,0 -17.236,13.621 -17.236,27.156 0,13.033 3.025,26.15 17.324,26.15 15.381,0 17.404,-12.532 17.404,-26.15 0,-13.702 -1.937,-27.156 -17.492,-27.156"
           style="fill:#92213b;fill-opacity:1;fill-rule:nonzero;stroke:none"
           id="path96" /></g><g
         id="g98"
         transform="translate(1081.8877,533.728)"><path
           inkscape:connector-curvature="0"
           d="m 0,0 0,44.396 -9.67,-8.328 -2.1,4.961 12.104,10.089 5.801,0 0,-51.121 L 0,-0.003 0,0 z"
           style="fill:#92213b;fill-opacity:1;fill-rule:nonzero;stroke:none"
           id="path100" /></g><g
         id="g102"
         transform="translate(1106.9463,533.8101)"><path
           inkscape:connector-curvature="0"
           d="m 0,0 -2.02,5.132 c 7.735,7.231 26.151,21.269 26.151,31.529 0,7.823 -3.785,10.763 -10.51,10.763 -4.369,0 -7.564,-1.51 -12.359,-3.866 l -2.104,5.298 c 6.221,2.522 10.008,3.282 14.629,3.282 9.252,0 16.565,-4.122 16.565,-15.137 C 30.352,24.977 13.957,12.2 5.881,4.885 l 25.648,0 0,-4.877 L 0,0.008 0,0 z"
           style="fill:#92213b;fill-opacity:1;fill-rule:nonzero;stroke:none"
           id="path104" /></g><g
         id="g106"
         transform="translate(308.6616,431.2295)"><path
           inkscape:connector-curvature="0"
           d="m 0,0 c -15.891,0 -24.13,7.23 -24.13,21.777 l 0,34.307 12.784,0 0,-33.467 C -11.346,11.271 -5.212,9.84 0,9.84 c 5.299,0 10.26,3.111 10.26,12.777 l 0,33.467 12.78,0 0,-34.475 C 23.04,7.148 14.38,0 0,0"
           style="fill:#564046;fill-opacity:1;fill-rule:nonzero;stroke:none"
           id="path108" /></g><g
         id="g110"
         transform="translate(342.9717,432.9092)"><path
           inkscape:connector-curvature="0"
           d="m 0,0 0,54.404 12.779,0 0,-44.31 21.525,0 L 34.304,0 0,0 z"
           style="fill:#564046;fill-opacity:1;fill-rule:nonzero;stroke:none"
           id="path112" /></g><g
         id="g114"
         transform="translate(438.8452,432.9092)"><path
           inkscape:connector-curvature="0"
           d="M 0,0 0,40.779 -13.704,0 -27.41,0 l -13.623,40.779 0,-40.779 -12.273,0 0,54.404 21.438,0 11.774,-37.416 12.192,37.416 20.597,0 L 12.695,0 0,0 z"
           style="fill:#564046;fill-opacity:1;fill-rule:nonzero;stroke:none"
           id="path116" /></g><g
         id="g118"
         transform="translate(513.4316,456.0342)"><path
           inkscape:connector-curvature="0"
           d="m 0,0 -10.007,0 0,-13.283 10.932,0 c 2.609,0 5.552,1.847 5.552,6.304 C 6.477,-2.016 3.617,0 0,0 m -1.344,21.441 -8.658,0 0,-11.689 9.835,0 c 2.607,0 4.206,2.269 4.206,6.137 -0.006,1.679 -0.676,5.552 -5.383,5.552 m 2.775,-44.566 -24.215,0 0,54.404 21.44,0 c 9.922,0 18.329,-3.617 18.329,-15.306 0,-5.715 -3.7,-9.33 -8.659,-10.592 C 15.051,4.705 19.509,0.756 19.509,-6.982 19.506,-19.422 10.845,-23.125 1.431,-23.125"
           style="fill:#564046;fill-opacity:1;fill-rule:nonzero;stroke:none"
           id="path120" /></g><g
         id="g122"
         transform="translate(544.0576,432.9092)"><path
           inkscape:connector-curvature="0"
           d="m 0,0 0,54.404 33.376,0 0,-9.838 -20.596,0 0,-11.521 18.832,0 0,-9.838 -18.832,0 0,-13.369 21.356,0 L 34.136,0 0,0 z"
           style="fill:#564046;fill-opacity:1;fill-rule:nonzero;stroke:none"
           id="path124" /></g><g
         id="g126"
         transform="translate(653.4893,432.9092)"><path
           inkscape:connector-curvature="0"
           d="M 0,0 -16.061,0 -25.902,35.398 -38.004,0 l -16.06,0 -11.686,54.404 13.537,0 7.815,-39.181 11.521,36.91 16.147,0 8.83,-36.83 8.996,39.101 12.607,0 L 0,0 z"
           style="fill:#564046;fill-opacity:1;fill-rule:nonzero;stroke:none"
           id="path128" /></g><g
         id="g130"
         transform="translate(676.7314,432.9092)"><path
           inkscape:connector-curvature="0"
           d="m 0,0 0,54.404 33.379,0 0,-9.838 -20.6,0 0,-11.521 18.836,0 0,-9.838 -18.836,0 0,-13.369 21.356,0 L 34.135,0 0,0 z"
           style="fill:#564046;fill-opacity:1;fill-rule:nonzero;stroke:none"
           id="path132" /></g><g
         id="g134"
         transform="translate(747.499,431.2295)"><path
           inkscape:connector-curvature="0"
           d="m 0,0 c -20.936,0 -26.145,14.209 -26.145,28.922 0,16.732 8.071,28.334 26.905,28.334 3.779,0 10.426,-1.262 14.291,-2.27 L 11.182,44.305 C 7.9,45.734 4.539,47.42 0.836,47.42 c -7.397,0 -13.787,-2.691 -13.787,-18.498 0,-13.121 3.195,-19.088 13.199,-19.088 3.785,0 5.215,0.084 7.572,1.514 l 0,10.681 -12.025,0 0,9.836 23.373,0 0,-26.904 C 13.541,1.514 8.832,0 0,0"
           style="fill:#564046;fill-opacity:1;fill-rule:nonzero;stroke:none"
           id="path136" /></g><g
         id="g138"
         transform="translate(778.8779,432.9092)"><path
           inkscape:connector-curvature="0"
           d="m 0,0 0,54.404 33.377,0 0,-9.838 -20.602,0 0,-11.521 18.836,0 0,-9.838 -18.836,0 0,-13.369 21.362,0 L 34.137,0 0,0 z"
           style="fill:#564046;fill-opacity:1;fill-rule:nonzero;stroke:none"
           id="path140" /></g><g
         id="g142"
         transform="translate(855.2979,432.9092)"><path
           inkscape:connector-curvature="0"
           d="m 0,0 -16.229,39.264 0,-39.264 -12.275,0 0,54.404 19.174,0 16.053,-39.269 0,39.269 12.613,0 L 19.336,0 0,0 z"
           style="fill:#564046;fill-opacity:1;fill-rule:nonzero;stroke:none"
           id="path144" /></g><g
         id="g146"
         transform="translate(131.0713,528.1362)"><path
           inkscape:connector-curvature="0"
           d="M 0,0 C 10.803,4.504 11.231,21.68 6.437,30.638 0,42.652 -16.25,40.653 -27.218,37.52 c 3.037,8.735 8.617,20.667 18.69,22.39 10.003,1.711 19.796,-4.497 28.494,-8.521 7.771,-3.598 21.428,-8.11 27.037,1.701 1.703,4.143 -3.354,7.556 -7.796,10.367 -4.425,2.813 -9.142,5.512 -14.063,7.355 106.554,22.601 109.495,-200.959 -3.313,-169.102 -8.144,2.295 -15.979,5.608 -23.52,9.43 10.539,-0.873 21.884,0.24 30.31,7.072 7.222,5.852 11.03,18.057 -0.86,20.891 -10.689,2.549 -22.335,-3.963 -32.877,-4.859 -13.277,-1.129 -24.598,-1.461 -32.145,9.011 5.841,0.729 10.364,2.282 12.657,3.946 3.973,2.871 7.825,6.89 8.171,12.009 0.672,9.803 -6.857,18.99 -15.294,23.161 -3.899,1.924 -8.566,2.613 -12.778,1.37 -5.428,-1.598 -6.995,-6.286 -10.789,-9.887 -3.723,-3.521 -7.197,-6.099 -12.325,-7.122 -5.975,-1.057 -11.757,1.812 -16.364,5.385 -2.518,1.954 -4.661,4.325 -6.91,6.575 9.609,-1.372 22.429,-3.853 28.058,6.936 4.531,8.675 -0.847,18.54 3.942,27.315 6.154,11.267 21.76,2.436 29.42,-1.991 C -20.673,5.887 -11.917,-4.958 0,0"
           style="fill:#92213b;fill-opacity:1;fill-rule:nonzero;stroke:none"
           id="path148" /></g><g
         id="g150"
         transform="translate(183.061,481.0576)"><path
           inkscape:connector-curvature="0"
           d="m 0,0 c 6.072,8.811 9.283,19.117 9.283,29.818 0,10.464 -3.075,20.588 -8.894,29.263 -1.21,1.808 -3.661,2.289 -5.467,1.082 C -6.888,58.95 -7.37,56.493 -6.16,54.693 -1.212,47.319 1.4,38.717 1.4,29.818 1.4,20.728 -1.331,11.965 -6.487,4.473 -7.725,2.68 -7.273,0.229 -5.482,-1.01 -3.688,-2.246 -1.232,-1.793 0,0"
           style="fill:#f5f6f5;fill-opacity:1;fill-rule:nonzero;stroke:none"
           id="path152" /></g><g
         id="g154"
         transform="translate(198.2778,470.5869)"><path
           inkscape:connector-curvature="0"
           d="m 0,0 c 8.194,11.889 12.528,25.818 12.528,40.289 0,14.142 -4.152,27.814 -12.002,39.53 -1.212,1.808 -3.659,2.289 -5.472,1.077 -1.807,-1.209 -2.289,-3.664 -1.077,-5.47 C 0.957,65.017 4.649,52.864 4.649,40.289 4.649,27.422 0.799,15.041 -6.484,4.475 -7.719,2.684 -7.269,0.227 -5.473,-1.008 -3.687,-2.24 -1.232,-1.791 0,0"
           style="fill:#f5f6f5;fill-opacity:1;fill-rule:nonzero;stroke:none"
           id="path156" /></g><g
         id="g158"
         transform="translate(206.8984,555.8149)"><path
           inkscape:connector-curvature="0"
           d="m 0,0 c 8.925,-13.314 13.649,-28.856 13.649,-44.939 0,-16.449 -4.929,-32.285 -14.238,-45.805 -1.239,-1.795 -0.786,-4.244 1.005,-5.484 1.793,-1.232 4.249,-0.783 5.482,1.01 10.229,14.842 15.632,32.222 15.632,50.279 0,17.655 -5.178,34.712 -14.987,49.329 C 5.333,6.198 2.886,6.682 1.077,5.47 -0.729,4.258 -1.212,1.813 0,0"
           style="fill:#f5f6f5;fill-opacity:1;fill-rule:nonzero;stroke:none"
           id="path160" /></g><path
         inkscape:connector-curvature="0"
         d="m 276.796,388.675 867.844,0 0,-9.637 -867.844,0 0,9.637 z"
         style="fill:#eae6ae;fill-opacity:1;fill-rule:nonzero;stroke:none"
         id="path162" /></g></g></svg>